<?xml version="1.0" encoding="UTF-8"?>
<svg version="1.1" xmlns="http://www.w3.org/2000/svg" width="256" height="256" viewBox="0 0 256 256">
<path d="M0 0 C1.04970726 -0.00143509 1.04970726 -0.00143509 2.12062073 -0.00289917 C3.58863414 -0.00357426 5.05665066 -0.00176724 6.5246582 0.00244141 C8.74502416 0.0077911 10.96518714 0.00247762 13.18554688 -0.00390625 C23.9995665 -0.0117204 33.69047862 0.62624349 44.06640625 3.8203125 C44.94256592 4.0886792 45.81872559 4.3570459 46.72143555 4.63354492 C61.26263339 9.2103632 75.57735685 16.26723091 87.25390625 26.1953125 C91.50518361 29.68088137 93.9242255 29.48069513 99.31640625 29.1328125 C105.63771376 30.90721461 110.0689281 34.45212064 113.31640625 40.1328125 C114.35038386 44.96052091 113.75395765 48.88924535 112.12890625 53.5078125 C110.13317109 56.39818756 108.21119995 58.15588022 105.31640625 60.1328125 C104.71828125 60.5453125 104.12015625 60.9578125 103.50390625 61.3828125 C99.23204557 62.84745045 95.36404832 62.94357317 91.1953125 61.29296875 C86.08022119 58.4211689 82.37003805 54.69556272 80.31640625 49.1328125 C80.26171875 46.828125 80.26171875 46.828125 80.44140625 44.5078125 C80.62106661 40.60851719 80.50193363 40.35001529 77.75390625 37.1328125 C76.30432677 36.09038583 74.81892816 35.09736521 73.31640625 34.1328125 C72.29289063 33.43285156 71.269375 32.73289063 70.21484375 32.01171875 C43.61351511 14.50495705 11.0102094 11.0217202 -19.68359375 17.1328125 C-39.08080149 21.67511302 -56.0215727 32.16030819 -70.25537109 45.76757812 C-71.56315219 47.01768272 -72.88257478 48.25557923 -74.203125 49.4921875 C-79.49781616 54.57942058 -83.74741666 59.94086802 -87.68359375 66.1328125 C-88.27011719 67.04804687 -88.85664062 67.96328125 -89.4609375 68.90625 C-105.86192769 95.67898235 -108.67911736 127.17083241 -102.17089844 157.52392578 C-95.96412376 183.17437216 -78.37799866 208.45213199 -56.0859375 222.6953125 C-55.29316406 223.1696875 -54.50039062 223.6440625 -53.68359375 224.1328125 C-52.77738281 224.7103125 -51.87117188 225.2878125 -50.9375 225.8828125 C-25.04576993 241.83734471 7.81345789 245.31882566 37.34619141 238.67626953 C67.74993445 231.02942331 91.70577734 210.80138851 107.94140625 184.4453125 C111.98068058 177.33508303 114.75289995 169.87262961 117.31640625 162.1328125 C117.63609375 161.194375 117.95578125 160.2559375 118.28515625 159.2890625 C123.71120801 140.84048653 124.43301815 117.48264821 118.31640625 99.1328125 C117.96612421 95.27971002 117.76222114 92.99734127 119.87890625 89.6953125 C123.24399642 87.53820342 125.39844629 87.56292742 129.31640625 88.1328125 C136.96935477 95.65316042 136.52989036 111.5570103 136.67173767 121.48152161 C136.68872763 123.6778974 136.69278479 125.87387564 136.69140625 128.0703125 C136.69398941 129.12742935 136.69398941 129.12742935 136.69662476 130.2059021 C136.69308601 143.0193386 135.00578033 154.86954091 131.31640625 167.1328125 C130.92001953 168.53273437 130.92001953 168.53273437 130.515625 169.9609375 C125.08324353 187.86147205 114.1573804 203.73463632 101.31640625 217.1328125 C100.51203125 217.9784375 99.70765625 218.8240625 98.87890625 219.6953125 C98.03328125 220.4996875 97.18765625 221.3040625 96.31640625 222.1328125 C95.64609375 222.78636719 94.97578125 223.43992188 94.28515625 224.11328125 C71.45126168 245.64979545 41.39159812 256.28898211 10.41723633 256.37304688 C8.28230777 256.38268429 6.14837306 256.41376398 4.01367188 256.4453125 C-8.92946844 256.54561004 -21.41231928 254.71345202 -33.68359375 250.4453125 C-34.42359619 250.19185059 -35.16359863 249.93838867 -35.92602539 249.67724609 C-48.29354099 245.28652125 -59.41694866 239.33682345 -69.68359375 231.1328125 C-70.61945313 230.39933594 -71.5553125 229.66585937 -72.51953125 228.91015625 C-94.381198 211.45077034 -108.77117507 187.8448926 -116.68359375 161.1328125 C-117.21339844 159.46412109 -117.21339844 159.46412109 -117.75390625 157.76171875 C-120.09608709 148.6193406 -119.90075017 139.27239201 -119.92382812 129.89697266 C-119.93348747 127.53381508 -119.96456801 125.1715466 -119.99609375 122.80859375 C-120.22840345 89.3222787 -104.79032058 59.2844261 -82.12109375 35.1953125 C-60.64892763 14.43469964 -30.01756021 0.02638244 0 0 Z " fill="#000000" transform="translate(119.68359375,-0.1328125)"/>
<path d="M0 0 C1.29349365 0.00523682 2.5869873 0.01047363 3.91967773 0.01586914 C4.9496714 0.01799156 4.9496714 0.01799156 6.00047302 0.02015686 C8.20144949 0.0257706 10.40232557 0.03832532 12.60327148 0.05102539 C14.09220231 0.05603863 15.58113473 0.06060184 17.07006836 0.06469727 C20.72700223 0.07574446 24.38387707 0.09301826 28.04077148 0.11352539 C32.06235231 8.83865088 35.49868128 17.78809927 38.97827148 26.73852539 C39.31459595 27.60148224 39.65092041 28.46443909 39.99743652 29.35354614 C47.43910522 48.45017488 54.74301159 67.59958995 62.03271484 86.75463867 C62.46867477 87.89954269 62.9046347 89.04444672 63.35380554 90.2240448 C64.16816393 92.36315858 64.98179061 94.50255114 65.79450989 96.64228821 C66.16355942 97.61175888 66.53260895 98.58122955 66.9128418 99.58007812 C67.26302368 100.50335907 67.61320557 101.42664001 67.97399902 102.37789917 C68.7022133 104.24532841 69.45872248 106.10190777 70.23937988 107.94802856 C70.80380798 109.28497269 70.80380798 109.28497269 71.37963867 110.64892578 C71.72258972 111.43787735 72.06554077 112.22682892 72.41888428 113.03968811 C73.04077148 115.11352539 73.04077148 115.11352539 72.04077148 118.11352539 C67.60348997 118.22939294 63.16659557 118.30066597 58.72827148 118.36352539 C57.46563477 118.39704102 56.20299805 118.43055664 54.90209961 118.46508789 C53.08935547 118.48442383 53.08935547 118.48442383 51.23999023 118.50415039 C49.56682739 118.53557129 49.56682739 118.53557129 47.85986328 118.56762695 C45.04077148 118.11352539 45.04077148 118.11352539 43.27050781 116.40087891 C41.9818978 114.00401823 41.02919566 111.70668186 40.16577148 109.12524414 C39.82610352 108.12485107 39.48643555 107.12445801 39.13647461 106.09375 C38.77489258 105.00715088 38.41331055 103.92055176 38.04077148 102.80102539 C37.23990584 100.44123678 36.43776786 98.08187969 35.63452148 95.72290039 C35.21299805 94.48088867 34.79147461 93.23887695 34.35717773 91.95922852 C32.36768528 86.12521648 30.30356749 80.31759815 28.23770142 74.51028442 C27.5416412 72.5534704 26.84714525 70.59610635 26.15283203 68.63867188 C23.90733302 62.31505707 21.64097343 55.99982275 19.34155273 49.69555664 C18.92131836 48.54063721 18.50108398 47.38571777 18.06811523 46.19580078 C17.276868 44.02543633 16.48150049 41.85656817 15.68139648 39.68945312 C15.33206055 38.73111572 14.98272461 37.77277832 14.62280273 36.78540039 C14.16224487 35.53388184 14.16224487 35.53388184 13.69238281 34.25708008 C13.04077148 32.11352539 13.04077148 32.11352539 13.04077148 29.11352539 C12.38077148 29.11352539 11.72077148 29.11352539 11.04077148 29.11352539 C10.94022461 29.75032227 10.83967773 30.38711914 10.73608398 31.04321289 C9.78769954 35.23102286 8.3543212 39.19673753 6.91577148 43.23852539 C6.60881348 44.10783691 6.30185547 44.97714844 5.9855957 45.87280273 C3.75138784 52.17560875 1.47191121 58.46170939 -0.83422852 64.73852539 C-1.13216309 65.54950684 -1.43009766 66.36048828 -1.73706055 67.19604492 C-3.83163081 72.85832998 -3.83163081 72.85832998 -4.95922852 75.11352539 C3.95077148 75.11352539 12.86077148 75.11352539 22.04077148 75.11352539 C23.36077148 78.08352539 24.68077148 81.05352539 26.04077148 84.11352539 C26.4700293 85.0790332 26.89928711 86.04454102 27.34155273 87.03930664 C27.67541992 87.82692383 28.00928711 88.61454102 28.35327148 89.42602539 C28.7000293 90.2265332 29.04678711 91.02704102 29.40405273 91.85180664 C30.04077148 94.11352539 30.04077148 94.11352539 29.04077148 98.11352539 C15.18077148 98.11352539 1.32077148 98.11352539 -12.95922852 98.11352539 C-13.28922852 100.09352539 -13.61922852 102.07352539 -13.95922852 104.11352539 C-14.73915773 106.40325002 -15.57419094 108.67483971 -16.45922852 110.92602539 C-16.90266602 112.0668457 -17.34610352 113.20766602 -17.80297852 114.38305664 C-18.95922852 117.11352539 -18.95922852 117.11352539 -19.95922852 118.11352539 C-22.03184928 118.20119651 -24.10743146 118.22048412 -26.18188477 118.21118164 C-28.07197266 118.20634766 -28.07197266 118.20634766 -30.00024414 118.20141602 C-31.3407396 118.19305942 -32.68123439 118.18459446 -34.02172852 118.17602539 C-35.36612793 118.17101199 -36.71052911 118.16644881 -38.05493164 118.16235352 C-41.35640792 118.15052027 -44.65779655 118.1340351 -47.95922852 118.11352539 C-47.08387819 109.66064745 -47.08387819 109.66064745 -45.14672852 105.86352539 C-43.08633242 101.5426228 -41.59931146 97.16272297 -40.18188477 92.59399414 C-38.74243719 88.49639738 -37.0598143 84.52976844 -35.375 80.52783203 C-33.06839405 74.96516877 -30.89891756 69.34993585 -28.72973633 63.73266602 C-27.96237313 61.74666391 -27.19142316 59.76208053 -26.42016602 57.77758789 C-23.50077422 50.24315884 -20.69941697 42.68172791 -18.03125 35.05395508 C-16.85934609 31.83955957 -15.49760199 28.7657157 -14.06079102 25.66430664 C-12.24880148 21.46845852 -10.70872702 17.16828183 -9.15283203 12.87182617 C-4.49936275 0.17260982 -4.49936275 0.17260982 0 0 Z " fill="#000000" transform="translate(115.959228515625,61.886474609375)"/>
</svg>
