<?xml version="1.0" encoding="UTF-8"?>
<svg version="1.1" xmlns="http://www.w3.org/2000/svg" width="256" height="256" viewBox="0 0 256 256">
<path d="M0 0 C4.21125695 2.10702385 7.34362768 5.0691605 10.61645508 8.3894043 C11.15363159 8.92628876 11.69080811 9.46317322 12.2442627 10.0163269 C14.0074716 11.78092212 15.76350208 13.55248098 17.51953125 15.32421875 C18.74506101 16.55348112 19.97103491 17.78230082 21.19743347 19.01069641 C24.41581411 22.23669394 27.62814182 25.46865349 30.8392334 28.7019043 C34.12029779 32.003469 37.40706852 35.29934212 40.69335938 38.59570312 C47.1344944 45.05825376 53.56924733 51.52711917 60 58 C63.92637147 56.4104378 66.55505654 53.70755761 69.47119141 50.73999023 C70.27191826 49.93729202 70.27191826 49.93729202 71.08882141 49.11837769 C72.84771544 47.3530058 74.59952715 45.58077035 76.3515625 43.80859375 C77.57365797 42.58022673 78.79627078 41.35237421 80.01937866 40.12501526 C83.23518542 36.89591478 86.44537517 33.66129231 89.6539917 30.42504883 C94.79574171 25.2401497 99.94425326 20.06198578 105.09598923 14.88701057 C106.89651702 13.07623906 108.69360551 11.26210458 110.49038696 9.44761658 C111.58934241 8.34183538 112.68840669 7.23616232 113.78759766 6.13061523 C114.28841354 5.62306198 114.78922943 5.11550873 115.30522156 4.59257507 C118.42268385 1.4648354 119.82495272 0.08868281 124.3125 -0.25 C129.29569492 0.08784372 131.60430353 1.41821066 134.875 5.125 C136.49307763 9.26008727 136.09791092 12.73061269 135 17 C133.25098842 19.48564412 131.81103654 21.21435584 129.65405273 23.25415039 C129.09795319 23.81141815 128.54185364 24.36868591 127.96890259 24.94284058 C126.14212707 26.76408132 124.28877185 28.55539558 122.43359375 30.34765625 C121.15532756 31.61098771 119.87882657 32.87610751 118.60401917 34.14292908 C115.25617276 37.46033967 111.88500334 40.75301593 108.50830078 44.04101562 C105.06200606 47.40523636 101.63845752 50.79243301 98.21289062 54.17773438 C91.49725328 60.80776664 84.75673739 67.41187637 78 74 C79.57948861 77.91782543 82.27115834 80.48807708 85.26000977 83.36010742 C85.79514191 83.88268127 86.33027405 84.40525513 86.88162231 84.94366455 C88.04130527 86.07569819 89.20306943 87.20560286 90.36667061 88.33360863 C92.20964978 90.12318364 94.04363376 91.92150791 95.87498474 93.72297668 C101.08125603 98.84387739 106.29223568 103.959584 111.53588867 109.04223633 C114.74565134 112.15471968 117.93534688 115.28659367 121.11298943 118.43184853 C122.32456191 119.62367674 123.5433981 120.80816898 124.76962471 121.98491478 C135.56065916 132.35004765 135.56065916 132.35004765 136.32397461 138.1184082 C135.98788243 142.14518251 135.65719676 143.98851034 133 147 C130.20212489 149.25384384 128.22495434 149.95755579 124.6875 150.625 C115.39867875 149.05062352 107.59141521 137.72108351 101.0625 131.16015625 C99.93072136 130.02650857 98.7987188 128.89308441 97.66650391 127.75987244 C94.71177989 124.80136149 91.76007347 121.83985819 88.809021 118.87768555 C85.78728529 115.84565275 82.76265606 112.81650933 79.73828125 109.78710938 C73.82271195 103.86087033 67.91033271 97.93146158 62 92 C58.07489615 93.58809903 55.45453067 96.28944058 52.54467773 99.26000977 C52.01246613 99.79514191 51.48025452 100.33027405 50.93191528 100.88162231 C49.78004317 102.04109036 48.63048697 103.20286276 47.4829998 104.36667061 C45.66770633 106.20751731 43.8462145 108.04202038 42.02296448 109.87498474 C38.1555223 113.76526774 34.29596901 117.66331973 30.4375 121.5625 C25.96290342 126.08426185 21.48515065 130.60279923 16.99888802 135.11298943 C15.20277151 136.92208985 13.41277396 138.7371002 11.62290955 140.55238342 C10.52421168 141.65834475 9.42523295 142.76402714 8.32592773 143.86938477 C7.82870712 144.37693802 7.33148651 144.88449127 6.81919861 145.40742493 C3.49451982 148.73312025 1.40710268 149.84070536 -3.3125 150.375 C-8.20301701 149.87765929 -9.57084492 148.42915508 -13 145 C-14.53214888 141.93570224 -14.22938548 139.3834358 -14 136 C-11.9103411 131.78192019 -8.92877391 128.65433623 -5.6105957 125.38354492 C-5.07371124 124.84636841 -4.53682678 124.30919189 -3.9836731 123.7557373 C-2.21907788 121.9925284 -0.44751902 120.23649792 1.32421875 118.48046875 C2.55348112 117.25493899 3.78230082 116.02896509 5.01069641 114.80256653 C8.23669394 111.58418589 11.46865349 108.37185818 14.7019043 105.1607666 C18.003469 101.87970221 21.29934212 98.59293148 24.59570312 95.30664062 C31.05825376 88.8655056 37.52711917 82.43075267 44 76 C42.4104378 72.07362853 39.70755761 69.44494346 36.73999023 66.52880859 C35.93729202 65.72808174 35.93729202 65.72808174 35.11837769 64.91117859 C33.3530058 63.15228456 31.58077035 61.40047285 29.80859375 59.6484375 C28.58022673 58.42634203 27.35237421 57.20372922 26.12501526 55.98062134 C22.89591478 52.76481458 19.66129231 49.55462483 16.42504883 46.3460083 C11.2401497 41.20425829 6.06198578 36.05574674 0.88701057 30.90401077 C-0.92376094 29.10348298 -2.73789542 27.30639449 -4.55238342 25.50961304 C-5.65816462 24.41065759 -6.76383768 23.31159331 -7.86938477 22.21240234 C-8.37693802 21.71158646 -8.88449127 21.21077057 -9.40742493 20.69477844 C-12.5351646 17.57731615 -13.91131719 16.17504728 -14.25 11.6875 C-13.9247818 6.89053152 -12.53495381 4.58977359 -9.25 1.1875 C-5.99828436 -0.52868326 -3.62539838 -0.38162088 0 0 Z " fill="#000000" transform="translate(67,53)"/>
</svg>
