<?xml version="1.0" encoding="UTF-8"?>
<svg version="1.1" xmlns="http://www.w3.org/2000/svg" width="256" height="256" viewBox="0 0 256 256">
<path d="M0 0 C60.39 0 120.78 0 183 0 C184.50774488 3.01548977 183.79233669 5.96145073 183.47486877 9.2258606 C183.40630281 9.97894308 183.33773684 10.73202556 183.26709312 11.50792873 C183.03464418 14.04506059 182.7937755 16.58132361 182.55297852 19.11767578 C182.38513601 20.93070899 182.21781009 22.74379008 182.05096436 24.55691528 C181.59543666 29.49102366 181.13264942 34.42442773 180.66859937 39.35774088 C180.18527866 44.50901028 179.70857682 49.66089192 179.23118591 54.81271362 C178.32566515 64.57372957 177.41415475 74.3341766 176.50051492 84.09443557 C175.46087295 95.20387803 174.42787354 106.31393493 173.39544404 117.42404962 C171.27104331 140.28339335 169.13826162 163.14194895 167 186 C151.61543143 190.50609209 136.2284643 194.96771558 120.7487793 199.13720703 C118.59594877 199.72015876 116.44493485 200.30985477 114.2956543 200.90576172 C111.11903616 201.78589462 107.93739562 202.64510227 104.75390625 203.5 C103.80383194 203.76756104 102.85375763 204.03512207 101.87489319 204.31079102 C90.40330186 207.33158049 80.67652194 204.04430012 69.5 201 C68.01323143 200.59978008 66.52633131 200.20004857 65.03930664 199.80078125 C61.94190935 198.96764239 58.84575049 198.13009813 55.75048828 197.2890625 C51.77650298 196.20942783 47.80016959 195.13876111 43.82296753 194.07104492 C40.76144133 193.24852051 37.70087537 192.42247221 34.640625 191.59521484 C33.17356781 191.19886229 31.70628269 190.80335239 30.23876953 190.40869141 C28.19859735 189.85921744 26.15969016 189.30528734 24.12109375 188.75 C22.9602124 188.43546875 21.79933105 188.1209375 20.60327148 187.796875 C18 187 18 187 17 186 C16.6925185 183.63296598 16.44550258 181.28415407 16.23435974 178.90785217 C16.16408493 178.15703525 16.09381011 177.40621832 16.02140576 176.63264936 C15.78528783 174.09800674 15.55564329 171.56281821 15.32592773 169.02758789 C15.15867863 167.21786507 14.99103645 165.40817854 14.82302856 163.598526 C14.36655032 158.66922473 13.91567429 153.73942502 13.46581149 148.80951619 C12.99512153 143.66117233 12.51950578 138.51328359 12.04444885 133.36534119 C11.24712584 124.7175456 10.45310986 116.06945167 9.66137695 107.42114258 C8.54370164 95.21258639 7.41980567 83.00460861 6.29479682 70.79672635 C5.51727428 62.35697728 4.74125371 53.91709 3.9655087 45.47717738 C3.77700354 43.42638403 3.58845472 41.3755947 3.399863 39.32480931 C2.86228734 33.47857206 2.3256418 27.632251 1.79053116 21.78578758 C1.6279759 20.01117244 1.46511201 18.23658555 1.30192375 16.4620285 C1.07997871 14.04780695 0.8591603 11.63348504 0.63865662 9.21913147 C0.57319261 8.50970479 0.50772861 7.8002781 0.44028085 7.06935364 C0 2.22852647 0 2.22852647 0 0 Z M35 39 C35.65586994 49.54004972 35.65586994 49.54004972 37 60 C55.81 60.33 74.62 60.66 94 61 C74.375 69.125 74.375 69.125 68.27490234 71.64892578 C58.48809752 75.70197266 48.7252881 79.80135838 39 84 C39.66 90.93 40.32 97.86 41 105 C67.33632766 106.07730778 93.64470708 106.10987006 120 106 C119.84152588 106.86963379 119.68305176 107.73926758 119.51977539 108.63525391 C119.04102247 111.73444262 118.80141577 114.70523819 118.68359375 117.8359375 C118.64169922 118.89941406 118.59980469 119.96289062 118.55664062 121.05859375 C118.51732422 122.15300781 118.47800781 123.24742187 118.4375 124.375 C118.37272461 126.05142578 118.37272461 126.05142578 118.30664062 127.76171875 C118.20102589 130.50770199 118.0989203 133.25376881 118 136 C117.030625 136.11085938 116.06125 136.22171875 115.0625 136.3359375 C109.77825535 137.08817152 104.75062041 138.75735463 99.671875 140.359375 C91.1683344 142.87572885 84.01149078 140.59170899 75.69726562 138.37304688 C72.30991125 137.49317271 69.52921948 137 66 137 C66.01160156 136.20335937 66.02320312 135.40671875 66.03515625 134.5859375 C66.04417969 133.52632813 66.05320312 132.46671875 66.0625 131.375 C66.07410156 130.33085937 66.08570312 129.28671875 66.09765625 128.2109375 C66.05720093 124.51479375 66.05720093 124.51479375 65 119 C57.74 119 50.48 119 43 119 C43 126.38650147 43.12272791 133.58821693 43.625 140.9375 C43.67011719 141.96423828 43.71523437 142.99097656 43.76171875 144.04882812 C43.83261719 145.03173828 43.90351562 146.01464844 43.9765625 147.02734375 C44.02893066 147.91156006 44.08129883 148.79577637 44.13525391 149.70678711 C44.83453109 152.24796415 44.83453109 152.24796415 47.52978516 153.63989258 C51.49432671 155.19374519 55.46632192 156.52291905 59.546875 157.734375 C60.35811829 157.97665833 61.16936157 158.21894165 62.00518799 158.46856689 C63.71538386 158.97596237 65.42656883 159.48003464 67.13867188 159.98095703 C69.73327942 160.74507574 72.31940394 161.53428573 74.90625 162.32421875 C86.81065674 166.04810641 86.81065674 166.04810641 99 165 C99.64803589 164.82786987 100.29607178 164.65573975 100.96374512 164.47839355 C106.68141979 162.94386249 112.3398776 161.23264625 118 159.5 C119.71981163 158.98227348 121.4398621 158.46533968 123.16015625 157.94921875 C130.74097093 155.88401604 130.74097093 155.88401604 138 153 C138.63156191 150.07030552 138.63156191 150.07030552 138.9921875 146.41015625 C139.07298553 145.70762222 139.15378357 145.0050882 139.23703003 144.28126526 C140.26813691 135.04494181 141.06640942 125.78334799 141.85986328 116.52416992 C142.1272864 113.41088221 142.40125592 110.29821552 142.67578125 107.18554688 C142.84934628 105.18492945 143.02253706 103.18427952 143.1953125 101.18359375 C143.27653351 100.26372177 143.35775452 99.34384979 143.44143677 98.39610291 C143.5518782 97.0929287 143.5518782 97.0929287 143.66455078 95.76342773 C143.72957794 95.01004623 143.7946051 94.25666473 143.86160278 93.48045349 C144.03766876 90.32487362 144 87.16048787 144 84 C119.25 83.505 119.25 83.505 94 83 C97.65835938 81.46988281 101.31671875 79.93976563 105.0859375 78.36328125 C108.61898851 76.87147362 112.1494365 75.37366371 115.6796875 73.87524414 C118.13634393 72.83399883 120.59669014 71.80324658 123.05957031 70.77661133 C126.59636673 69.30104618 130.1230121 67.80327597 133.6484375 66.30078125 C134.75367767 65.84536453 135.85891785 65.38994781 136.99765015 64.92073059 C138.01855743 64.4806517 139.03946472 64.04057281 140.09130859 63.5871582 C140.99287689 63.20743362 141.89444519 62.82770905 142.82333374 62.43647766 C145.58767683 60.90920163 145.58767683 60.90920163 147 56 C147.33 50.39 147.66 44.78 148 39 C110.71 39 73.42 39 35 39 Z " fill="#000000" transform="translate(36,50)"/>
<path d="M0 0 C9.57 0 19.14 0 29 0 C29 3.96 29 7.92 29 12 C26.95301586 14.04698414 22.69588759 13.70045693 20 14 C20.6496875 14.52207031 21.299375 15.04414063 21.96875 15.58203125 C28.68483884 21.50006632 28.68483884 21.50006632 29.6328125 26.01171875 C29.61353211 33.38646789 29.61353211 33.38646789 28 35 C25.92737924 35.08767112 23.85179706 35.10695873 21.77734375 35.09765625 C20.51728516 35.09443359 19.25722656 35.09121094 17.95898438 35.08789062 C16.61848891 35.07953403 15.27799412 35.07106907 13.9375 35.0625 C12.59310058 35.0574866 11.2486994 35.05292342 9.90429688 35.04882812 C6.60282059 35.03699488 3.30143197 35.02050971 0 35 C0 31.04 0 27.08 0 23 C3.96 22.505 3.96 22.505 8 22 C7.13375 21.37738281 7.13375 21.37738281 6.25 20.7421875 C4 18.875 4 18.875 0 14 C0 9.38 0 4.76 0 0 Z " fill="#000000" transform="translate(154,0)"/>
<path d="M0 0 C9.57 0 19.14 0 29 0 C29 3.96 29 7.92 29 12 C26.95301586 14.04698414 22.69588759 13.70045693 20 14 C20.6496875 14.52207031 21.299375 15.04414063 21.96875 15.58203125 C28.68483884 21.50006632 28.68483884 21.50006632 29.6328125 26.01171875 C29.61353211 33.38646789 29.61353211 33.38646789 28 35 C25.92737924 35.08767112 23.85179706 35.10695873 21.77734375 35.09765625 C20.51728516 35.09443359 19.25722656 35.09121094 17.95898438 35.08789062 C16.61848891 35.07953403 15.27799412 35.07106907 13.9375 35.0625 C12.59310058 35.0574866 11.2486994 35.05292342 9.90429688 35.04882812 C6.60282059 35.03699488 3.30143197 35.02050971 0 35 C0 31.04 0 27.08 0 23 C2.97 22.67 5.94 22.34 9 22 C8.02546875 21.37738281 8.02546875 21.37738281 7.03125 20.7421875 C4.5 18.875 4.5 18.875 0 14 C0 9.38 0 4.76 0 0 Z " fill="#000000" transform="translate(114,0)"/>
<path d="M0 0 C1.16781006 0.00523682 2.33562012 0.01047363 3.53881836 0.01586914 C4.79887695 0.0190918 6.05893555 0.02231445 7.35717773 0.02563477 C8.6976732 0.03399136 10.03816799 0.04245632 11.37866211 0.05102539 C12.72306153 0.05603879 14.06746271 0.06060197 15.41186523 0.06469727 C18.71331644 0.07653042 22.01474471 0.09446653 25.31616211 0.11352539 C25.31616211 4.40352539 25.31616211 8.69352539 25.31616211 13.11352539 C20.03616211 13.11352539 14.75616211 13.11352539 9.31616211 13.11352539 C9.31616211 16.41352539 9.31616211 19.71352539 9.31616211 23.11352539 C14.59616211 23.11352539 19.87616211 23.11352539 25.31616211 23.11352539 C25.31616211 27.07352539 25.31616211 31.03352539 25.31616211 35.11352539 C15.74616211 35.11352539 6.17616211 35.11352539 -3.68383789 35.11352539 C-3.70674809 30.28965472 -3.72667475 25.4659715 -3.73876953 20.64208984 C-3.74380963 18.99983075 -3.75064167 17.35757616 -3.75927734 15.71533203 C-3.77135715 13.3597706 -3.77706928 11.0042683 -3.78149414 8.64868164 C-3.78665543 7.91013443 -3.79181671 7.17158722 -3.7971344 6.41065979 C-3.79733039 4.64454451 -3.74578508 2.87855393 -3.68383789 1.11352539 C-2.68383789 0.11352539 -2.68383789 0.11352539 0 0 Z " fill="#000000" transform="translate(76.683837890625,-0.113525390625)"/>
</svg>
