<?xml version="1.0" encoding="UTF-8"?>
<svg version="1.1" xmlns="http://www.w3.org/2000/svg" width="428.57" height="342.54" viewBox="0 0 428.57 342.54">
<path d="M0 0 C1.24808449 -0.00226556 2.49616898 -0.00453111 3.78207421 -0.00686532 C7.22553038 -0.01295001 10.66896215 -0.01285368 14.11242247 -0.01167095 C17.83443286 -0.01146609 21.5564356 -0.01699374 25.27844238 -0.02172852 C32.56277678 -0.0300173 39.84710308 -0.03278255 47.1314418 -0.03334089 C53.05550674 -0.03381689 58.97956902 -0.03587581 64.90363312 -0.03904152 C81.71789121 -0.04784321 98.53214292 -0.05246165 115.34640333 -0.05171105 C116.70467825 -0.05165111 116.70467825 -0.05165111 118.09039307 -0.05158997 C118.99702164 -0.05154909 119.90365021 -0.0515082 120.83775237 -0.05146609 C135.52682351 -0.05105974 150.21586899 -0.06062766 164.90493271 -0.07472833 C180.00563794 -0.08910921 195.10633068 -0.09599758 210.20704293 -0.09513456 C218.67766927 -0.09480318 227.14826871 -0.09752417 235.61888885 -0.10831261 C242.83137171 -0.11744015 250.04381547 -0.11957439 257.25630161 -0.11280318 C260.93183567 -0.10954935 264.60729483 -0.10943995 268.28282166 -0.11815643 C272.27812202 -0.12753331 276.27325072 -0.12121584 280.26855469 -0.11352539 C281.41517885 -0.11866895 282.56180301 -0.12381252 283.74317336 -0.12911195 C303.8887405 -0.04382297 321.1731539 4.77815374 336.06793213 18.71574402 C339.73171074 22.53372207 342.64963895 26.61606402 345.38824463 31.13371277 C345.86133057 31.91359558 346.3344165 32.69347839 346.82183838 33.49699402 C355.74280752 49.67121403 354.53883005 69.39704491 354.5335083 87.30412292 C354.53650523 89.32592327 354.53990898 91.34772305 354.54368591 93.36952209 C354.5524765 98.83265885 354.55486196 104.29577991 354.5555017 109.75892305 C354.5562151 113.18101824 354.5583549 116.6031095 354.56099892 120.0252037 C354.57023653 131.98927308 354.57433586 143.95333135 354.57354736 155.91740417 C354.57294725 167.02812498 354.58349022 178.13879713 354.59929103 189.24950564 C354.61241492 198.82277579 354.61772922 208.39603014 354.61709195 217.96930921 C354.61683836 223.67175789 354.61961244 229.3741633 354.63027 235.07660294 C354.64003279 240.44636049 354.63997477 245.81603412 354.63275337 251.18579483 C354.63171757 253.14234033 354.63400972 255.09889129 354.64011383 257.05542755 C354.66735102 266.40045745 354.51194585 275.64453446 353.50978088 284.94288635 C353.43382067 285.65400121 353.35786045 286.36511607 353.27959841 287.09777987 C351.86378427 298.78526488 347.87021693 308.99269444 340.38824463 318.13371277 C339.87777588 318.81691589 339.36730713 319.50011902 338.84136963 320.20402527 C328.48186879 333.28161296 313.22643309 339.58383361 297.0882206 341.74406385 C291.44309941 342.33855835 285.85388601 342.4098716 280.1819458 342.38768005 C278.93029475 342.39080003 277.6786437 342.39392002 276.38906384 342.39713454 C272.95880416 342.40538953 269.52865751 342.40140027 266.09839773 342.39516211 C262.38190587 342.39060002 258.66543222 342.39763983 254.94894409 342.40312195 C247.68566874 342.41197783 240.42243491 342.41011099 233.15915799 342.40429667 C227.2519047 342.39976513 221.34466298 342.3991737 215.43740845 342.4013443 C214.59408689 342.40165077 213.75076533 342.40195723 212.88188857 342.40227298 C211.16826828 342.40291249 209.45464799 342.40356091 207.74102771 342.40421817 C191.70262103 342.40991031 175.66423727 342.40338111 159.62583435 342.39261743 C145.88809765 342.38368294 132.15039477 342.3852353 118.41265869 342.39445496 C102.42849452 342.40517734 86.44435041 342.4093611 70.46018314 342.40323043 C68.75314904 342.40259338 67.04611492 342.40196464 65.33908081 342.4013443 C64.07950389 342.40088147 64.07950389 342.40088147 62.79448098 342.4004093 C56.89981711 342.39868825 51.00516604 342.40158467 45.11050415 342.40630341 C37.91902759 342.41193415 30.72759465 342.41034991 23.53612304 342.39974192 C19.87258491 342.39451458 16.20911928 342.39237783 12.54558182 342.39904022 C8.56184026 342.40617493 4.57827905 342.39761028 0.59454346 342.38768005 C-1.11590763 342.39437222 -1.11590763 342.39437222 -2.86091328 342.40119958 C-20.43375278 342.31674102 -35.6380224 339.19419399 -49.61175537 328.13371277 C-50.58241943 327.39121277 -50.58241943 327.39121277 -51.57269287 326.63371277 C-56.06916009 323.02083081 -59.36109722 318.8742559 -62.61175537 314.13371277 C-63.05519287 313.52914246 -63.49863037 312.92457214 -63.95550537 312.30168152 C-75.10281925 296.15846782 -73.91303667 273.98422899 -73.87054443 255.19621277 C-73.8732616 253.15234758 -73.87682657 251.10848337 -73.88116455 249.06462097 C-73.8902046 243.56463676 -73.88677925 238.06472841 -73.88040638 232.56474304 C-73.8753026 226.77783521 -73.8800499 220.99093339 -73.88317871 215.20402527 C-73.88680569 205.49047188 -73.88205267 195.77694901 -73.87249756 186.06340027 C-73.86161548 174.87245741 -73.86514196 163.68158746 -73.87615037 152.49064636 C-73.88525951 142.8400053 -73.88649085 133.18938604 -73.88127303 123.53874207 C-73.87817321 117.7933686 -73.87768881 112.04802928 -73.88434601 106.30265808 C-73.89017189 100.89835743 -73.8860278 95.49414974 -73.8745575 90.08985901 C-73.87193871 88.11999159 -73.87262765 86.15011619 -73.87708282 84.18025208 C-73.92982076 58.46913915 -71.9005332 36.24675231 -53.39300537 16.70793152 C-38.33537063 2.77116004 -19.71859773 -0.0264258 0 0 Z M-0.72845459 43.45429993 C-2.48142444 43.48726679 -2.48142444 43.48726679 -4.26980782 43.52089965 C-11.38620225 43.74564692 -17.77590105 44.20868872 -23.63519287 48.67668152 C-27.08682517 52.87650001 -28.9547212 56.68310535 -29.61175537 62.13371277 C-29.85732178 63.56650574 -29.85732178 63.56650574 -30.10784912 65.02824402 C-30.44762431 68.36307458 -30.36208149 70.86402038 -29.61175537 74.13371277 C-27.84000816 76.13239721 -27.84000816 76.13239721 -25.31097412 77.68449402 C-24.3063916 78.36592468 -23.30180908 79.04735535 -22.26678467 79.74943542 C-21.04883815 80.54480215 -19.83046143 81.33951034 -18.61175537 82.13371277 C-17.16546979 83.09534521 -15.71996164 84.05814757 -14.27508545 85.02189636 C-10.00895871 87.85715188 -5.72624092 90.66645548 -1.43963623 93.47062683 C14.75419695 104.06798982 30.86424941 114.78145181 46.88824463 125.63371277 C63.71237007 137.02455344 80.63242927 148.26245498 97.612854 159.41886902 C98.91573364 160.27492233 98.91573364 160.27492233 100.24493408 161.14826965 C101.93442275 162.2578257 103.62435326 163.36670932 105.3147583 164.47486877 C109.12484503 166.9751785 112.92494619 169.48765526 116.6987915 172.04240417 C117.37049377 172.49589737 118.04219604 172.94939056 118.73425293 173.41662598 C119.95356251 174.24180481 121.17031052 175.07079143 122.38354492 175.90487671 C129.82264667 180.93617281 136.26498621 184.77696996 145.38824463 183.13371277 C156.08957945 178.58496174 165.67827498 171.40687727 175.22686768 164.87223816 C179.98078369 161.61987275 184.74936845 158.38913934 189.51715088 155.15715027 C190.50075592 154.48983887 191.48436096 153.82252747 192.49777222 153.13499451 C202.73055096 146.20349351 213.05439499 139.41318051 223.38824463 132.63371277 C240.17430105 121.61341609 256.86289402 110.45614068 273.49176025 99.20011902 C274.32083893 98.63896393 275.1499176 98.07780884 276.00411987 97.49964905 C277.63737715 96.39416272 279.27049762 95.28847425 280.9034729 94.18257141 C288.19389332 89.25131389 295.51851682 84.37184925 302.8547821 79.50909424 C303.69541702 78.95072372 304.53605194 78.39235321 305.40216064 77.81706238 C306.14901627 77.32209763 306.89587189 76.82713287 307.6653595 76.31716919 C309.33619575 75.24659078 309.33619575 75.24659078 310.38824463 74.13371277 C311.13169815 65.32664801 310.51000911 57.07688813 305.20074463 49.75871277 C298.40609623 43.41704093 290.32937953 43.62025485 281.50494385 43.45429993 C280.27007673 43.42119599 279.03520962 43.38809204 277.76292229 43.35398495 C265.34988361 43.04728697 252.93721187 42.9924066 240.52105713 43.00431824 C238.07963027 43.00295775 235.63820362 43.00117424 233.19677734 42.99900818 C227.33309704 42.99497406 221.46943126 42.99549156 215.60575056 42.99842082 C210.82786422 43.00070608 206.04998146 43.00097409 201.27209473 42.999897 C200.58458165 42.99974377 199.89706858 42.99959054 199.18872178 42.99943266 C197.79080121 42.99911284 196.39288064 42.99878863 194.99496007 42.99846007 C181.97480617 42.99562808 168.95465939 42.99885615 155.93450665 43.00426044 C144.83249389 43.00872638 133.73049158 43.0079498 122.628479 43.00334167 C109.64573686 42.99795522 96.6630009 42.99590256 83.6802578 42.99895394 C82.28830338 42.99927239 80.89634895 42.99958676 79.50439453 42.999897 C78.82003834 43.00005128 78.13568215 43.00020555 77.43058789 43.0003645 C72.67446753 43.00121753 67.91835118 42.99979342 63.16223145 42.99741745 C56.72688341 42.99448995 50.29155478 42.99660221 43.8562088 43.00231171 C41.52006309 43.00361352 39.18391569 43.00329026 36.84777069 43.00104904 C24.31918898 42.99015457 11.79593708 43.11854985 -0.72845459 43.45429993 Z M-29.61175537 127.13371277 C-29.61175537 172.01371277 -29.61175537 216.89371277 -29.61175537 263.13371277 C-22.27749998 255.79945738 -15.51883475 248.1104014 -8.99456787 240.05168152 C-6.40419689 236.8795387 -3.76492671 233.75327983 -1.11175537 230.63371277 C2.261214 226.66479389 5.60001441 222.67353846 8.88824463 218.63371277 C12.17648075 214.59387982 15.51550905 210.60283606 18.88824463 206.63371277 C23.01820227 201.77246054 27.09061292 196.87021403 31.10308838 191.91105652 C32.77848117 189.87480989 34.47259925 187.87440139 36.20465088 185.88761902 C36.6725 185.34500427 37.14034912 184.80238953 37.62237549 184.24333191 C38.94627765 182.71121203 40.2802848 181.1878411 41.61480713 179.66496277 C42.2000415 178.82965027 42.78527588 177.99433777 43.38824463 177.13371277 C42.23922496 173.68665377 41.60578176 173.33098421 38.66412354 171.41667175 C37.86956253 170.89381592 37.07500153 170.37096008 36.25636292 169.83226013 C35.38464951 169.27045044 34.5129361 168.70864075 33.61480713 168.12980652 C32.71147141 167.53826782 31.80813568 166.94672913 30.87742615 166.33726501 C27.92753018 164.40773249 24.97046689 162.48949387 22.01324463 160.57121277 C19.99924772 159.25673612 17.98582056 157.94138611 15.97296143 156.62516785 C12.95734303 154.65336639 9.94137958 152.68212272 6.92338562 150.71395874 C-1.93386642 144.93625858 -10.73457338 139.07673871 -19.50720215 133.17152405 C-21.05518864 132.12980974 -22.60489837 131.09065746 -24.15472412 130.05168152 C-25.00059082 129.48215759 -25.84645752 128.91263367 -26.71795654 128.32585144 C-28.379839 127.04492406 -28.379839 127.04492406 -29.61175537 127.13371277 Z M305.67999268 129.49430847 C304.88862411 130.01420349 304.09725555 130.53409851 303.28190613 131.06974792 C302.41336502 131.64386414 301.54482391 132.21798035 300.64996338 132.80949402 C299.29899315 133.69906799 299.29899315 133.69906799 297.92073059 134.60661316 C294.97068396 136.55055535 292.02309591 138.49818682 289.07574463 140.44621277 C287.58452087 141.43021561 287.58452087 141.43021561 286.06317139 142.43409729 C269.74693947 153.20108772 253.50961299 164.0770779 237.38824463 175.13371277 C239.20409323 178.99349007 241.66793355 181.99635916 244.45074463 185.19621277 C245.45280332 186.36353245 246.45409492 187.53151103 247.45465088 188.70011902 C247.95239014 189.28035828 248.45012939 189.86059753 248.96295166 190.4584198 C250.97350149 192.82162517 252.93239105 195.22514806 254.88824463 197.63371277 C258.17647946 201.67354414 261.51545889 205.66463341 264.88824463 209.63371277 C269.00926097 214.48330658 273.05815817 219.38532083 277.07574463 224.32121277 C279.64970931 227.45171036 282.26397457 230.54540324 284.88824463 233.63371277 C289.01724993 238.49384404 293.07999528 243.40259965 297.11090088 248.34465027 C299.6955341 251.51005013 302.28563166 254.67058317 304.88824463 257.82121277 C305.72355713 258.83570496 306.55886963 259.85019714 307.41949463 260.89543152 C308.06918213 261.63406433 308.71886963 262.37269714 309.38824463 263.13371277 C309.71824463 263.13371277 310.04824463 263.13371277 310.38824463 263.13371277 C310.38824463 218.25371277 310.38824463 173.37371277 310.38824463 127.13371277 C308.57082871 127.13371277 307.15515325 128.52242905 305.67999268 129.49430847 Z M80.38824463 200.13371277 C78.518153 202.21327894 76.69448249 204.31211812 74.88824463 206.44621277 C74.34434082 207.08486267 73.80043701 207.72351257 73.24005127 208.3815155 C69.32396657 212.99317884 65.47941179 217.65977997 61.66558838 222.35636902 C59.10620409 225.47767644 56.50230672 228.55821307 53.88824463 231.63371277 C50.51540874 235.6027482 47.17647818 239.59388298 43.88824463 243.63371277 C40.13971817 248.23904527 36.31740216 252.77575721 32.47198486 257.29997253 C29.59279143 260.69325386 26.75620226 264.11639063 23.95074463 267.57121277 C20.47751203 271.84117256 16.92002511 276.02848423 13.32574463 280.19621277 C5.05612284 289.12174067 5.05612284 289.12174067 -1.61175537 299.13371277 C92.10824463 299.13371277 185.82824463 299.13371277 282.38824463 299.13371277 C278.59184154 294.07184198 274.83952147 289.19721412 270.70074463 284.44621277 C269.64832574 283.22775252 268.59625023 282.0089956 267.54449463 280.78996277 C267.01855713 280.18152527 266.49261963 279.57308777 265.95074463 278.94621277 C259.42119218 271.37193192 253.01353236 263.70192341 246.70074463 255.94621277 C244.12678071 252.81571611 241.51255377 249.72198816 238.88824463 246.63371277 C234.76722829 241.78411896 230.71833109 236.88210471 226.70074463 231.94621277 C223.6692228 228.25922676 220.5804414 224.62258955 217.48736572 220.98722839 C213.73884645 216.5728624 210.08143256 212.08947566 206.45855713 207.57121277 C204.22925844 204.94652903 201.85225515 202.53762548 199.38824463 200.13371277 C198.39196045 200.81361267 198.39196045 200.81361267 197.37554932 201.50724792 C194.30155736 203.59869268 191.21999252 205.67871508 188.13824463 207.75871277 C187.094104 208.47156433 186.04996338 209.18441589 184.97418213 209.91886902 C168.09215074 221.27776668 150.26896102 228.98437291 129.54840088 225.48527527 C111.75793269 221.69119228 97.93398421 211.72763377 83.2991333 201.39958191 C81.63132365 200.0416687 81.63132365 200.0416687 80.38824463 200.13371277 Z " fill="#000000" transform="translate(74,0)"/>
</svg>
