<?xml version="1.0" encoding="UTF-8"?>
<svg version="1.1" xmlns="http://www.w3.org/2000/svg" width="512" height="512" viewBox="0 0 512 512">
<path d="M0 0 C0.69030892 -0.00085442 1.38061784 -0.00170885 2.09184521 -0.00258917 C4.39802335 -0.00423236 6.70412828 0.00125835 9.01029968 0.00672913 C10.66618854 0.00701127 12.32207752 0.00685272 13.97796631 0.00628662 C18.46927349 0.00599973 22.96055397 0.01187909 27.45185494 0.01886058 C32.14705027 0.02511201 36.84224622 0.02569933 41.53744507 0.02688599 C50.42669225 0.02999402 59.31592714 0.0382003 68.2051689 0.04823548 C78.3260096 0.059413 88.44685088 0.0649112 98.56769621 0.06993091 C119.38540511 0.08038334 140.20309714 0.09872228 161.02079773 0.12025452 C161.02079773 10.35025452 161.02079773 20.58025452 161.02079773 31.12025452 C156.05387878 31.13483704 151.08695984 31.14941956 145.9695282 31.16444397 C129.5768507 31.2147332 113.18426821 31.28116745 96.7916851 31.35596943 C86.85081416 31.40093557 76.9099791 31.44034837 66.96903992 31.46669006 C58.30454754 31.48966349 49.64016867 31.52305422 40.9757663 31.56895608 C36.38799551 31.59289711 31.80033718 31.61162013 27.21250534 31.61786842 C22.89343277 31.62391528 18.57464803 31.6439007 14.25568199 31.67453003 C12.67146617 31.68331665 11.08721275 31.68703154 9.50297356 31.68526268 C7.33710477 31.68360809 5.17211146 31.70032355 3.00636292 31.7215271 C1.79512693 31.72613606 0.58389095 31.73074503 -0.66404915 31.73549366 C-5.0047687 32.23928305 -8.38098153 33.66249498 -11.62373352 36.62025452 C-15.12967757 41.12287163 -16.10333404 43.99653401 -16.11342335 49.62357712 C-16.11788119 50.77475391 -16.12233904 51.92593071 -16.12693197 53.11199164 C-16.1267476 54.38249122 -16.12656324 55.65299079 -16.12637329 56.96199036 C-16.12967213 58.32077586 -16.13339774 59.67956039 -16.13751477 61.03834367 C-16.1475405 64.78057217 -16.15125248 68.52278463 -16.15390408 72.26502466 C-16.1578054 76.29787027 -16.16738381 80.33070316 -16.17611694 84.36354065 C-16.19588553 94.106565 -16.20594775 103.8495904 -16.21484473 113.59262979 C-16.21922671 118.1792135 -16.22459373 122.76579605 -16.2298336 127.35237885 C-16.24684575 142.59622839 -16.26134061 157.84007721 -16.26858234 173.08393478 C-16.27049228 177.04037731 -16.27241261 180.99681983 -16.27436829 184.95326233 C-16.27485203 185.93663253 -16.27533577 186.92000272 -16.27583417 187.93317202 C-16.28413704 203.86827597 -16.30947836 219.80330492 -16.34194896 235.73837611 C-16.37500357 252.09317588 -16.39302963 268.4479375 -16.39622658 284.80277085 C-16.39839309 293.987623 -16.40716234 303.17236574 -16.43268776 312.35718536 C-16.45437287 320.1782652 -16.46245597 327.99920908 -16.45272098 335.82031557 C-16.44816999 339.81108504 -16.45010865 343.80157384 -16.46948242 347.79230499 C-16.48707017 351.44668052 -16.48615254 355.1005697 -16.47058513 358.75495008 C-16.46707467 360.70116983 -16.48326809 362.64739442 -16.5001896 364.59354377 C-16.45056536 371.3112489 -16.12530073 375.7209549 -11.97920227 381.12025452 C-7.13358989 384.87807637 -3.58848619 386.24349844 2.47447491 386.25447559 C3.61458481 386.25893344 4.75469472 386.26339128 5.92935342 386.26798421 C7.18749803 386.26779985 8.44564264 386.26761549 9.74191284 386.26742554 C11.08761127 386.27072441 12.4333087 386.27445003 13.77900487 386.27856702 C17.48509805 386.28859246 21.19117504 386.29230468 24.89727986 386.29495633 C28.89128949 386.29885777 32.88528628 386.30843622 36.87928772 386.31716919 C46.52887938 386.33693815 56.1784721 386.34700036 65.82807896 386.35589698 C70.37119917 386.36027918 74.91431822 386.36564617 79.45743752 386.37088585 C94.5580264 386.38789857 109.65861455 386.40239303 124.75921154 386.40963459 C128.67851958 386.41154451 132.59782761 386.41346484 136.51713562 386.41542053 C137.97833968 386.41614614 137.97833968 386.41614614 139.46906302 386.41688641 C155.2515284 386.42518777 171.03391801 386.45052627 186.8163503 386.48300121 C203.01634321 386.51606384 219.21629761 386.53408263 235.41632444 386.53727883 C244.5134595 386.53944467 253.61048408 386.54820407 262.70758629 386.57374001 C270.45471033 386.59543614 278.20169705 386.6035028 285.94884803 386.59377322 C289.9012624 386.58922534 293.85339338 386.59114286 297.80576897 386.61053467 C301.42627376 386.6281447 305.04628795 386.62718661 308.66679779 386.61163738 C310.59239563 386.6081334 312.51799849 386.62430382 314.44352502 386.64124185 C322.58635318 386.58064885 328.41278056 385.72827169 334.39579773 379.74525452 C337.51741102 374.70264843 338.27195783 370.12083375 338.29927063 364.24858093 C338.30795923 363.24858789 338.30795923 363.24858789 338.31682336 362.22839296 C338.33374562 360.00821488 338.33669307 357.78824564 338.33964539 355.56800842 C338.34894895 353.97107946 338.35911826 352.37415534 338.37008667 350.77723694 C338.3973525 346.45129418 338.41252595 342.12538394 338.4255147 337.79937792 C338.44116019 333.27498179 338.4679459 328.75065189 338.49354553 324.2263031 C338.5403082 315.66294696 338.57706447 307.09957833 338.61021841 298.53615987 C338.64845753 288.78525841 338.69786302 279.03442349 338.74820256 269.28357816 C338.85148508 249.22918 338.93928346 229.17475379 339.02079773 209.12025452 C349.25079773 209.12025452 359.48079773 209.12025452 370.02079773 209.12025452 C370.06600086 230.31322237 370.10281966 251.50615099 370.12442207 272.69915485 C370.13472048 282.54014122 370.14875332 292.38109543 370.17167664 302.22206116 C370.19165452 310.80266647 370.20452459 319.3832485 370.20897472 327.96387643 C370.21157466 332.50431115 370.21765561 337.04467924 370.23225784 341.58509254 C370.24591133 345.86549742 370.25000478 350.14580871 370.24701309 354.42623329 C370.2475598 355.99063629 370.25149072 357.55504267 370.25920868 359.11942673 C370.31286482 370.56410167 370.04246829 381.19680458 364.64579773 391.49525452 C364.06056335 392.63736389 363.47532898 393.77947327 362.87236023 394.95619202 C361.1223671 397.9466866 359.35234411 400.55843195 357.02079773 403.12025452 C356.36079773 403.12025452 355.70079773 403.12025452 355.02079773 403.12025452 C355.02079773 403.78025452 355.02079773 404.44025452 355.02079773 405.12025452 C342.83776865 415.64431794 329.1606169 418.42780647 313.5355072 418.38095093 C312.16771923 418.38397463 310.79993296 418.3878652 309.43214965 418.39254349 C305.68803996 418.40280436 301.94402623 418.40064655 298.19990873 418.3963629 C294.15614514 418.39389215 290.11240445 418.40291425 286.06864929 418.41040039 C278.15150329 418.4231404 270.23439122 418.4249419 262.31723669 418.42260013 C255.87969255 418.42081578 249.44215869 418.42256912 243.00461578 418.42682457 C242.08774445 418.42741976 241.17087311 418.42801495 240.22621779 418.42862817 C238.36345484 418.42983995 236.50069188 418.43105409 234.63792893 418.43227055 C217.17370209 418.44314371 199.70949457 418.44098484 182.24526665 418.4348857 C166.2815373 418.42971856 150.31786902 418.44096703 134.35415176 418.45998392 C117.95057476 418.47937449 101.54702663 418.48761607 85.1434381 418.48386067 C75.93896586 418.48195024 66.73454557 418.4844206 57.5300827 418.49857521 C49.69280689 418.51050562 41.85561499 418.51187542 34.01833799 418.49978504 C30.0229155 418.49390757 26.02764636 418.49276538 22.03223419 418.50478745 C18.36799021 418.51568446 14.70402691 418.51249797 11.03979585 418.49852576 C9.10050844 418.4946492 7.16120838 418.50539478 5.22195077 418.51682264 C-10.39209894 418.42109447 -23.29862966 414.33890095 -34.72138977 403.50697327 C-42.71593112 395.05599617 -48.09628962 384.10996085 -48.11063004 372.37732506 C-48.11447118 371.19814015 -48.11831233 370.01895524 -48.12226987 368.80403745 C-48.12140339 367.50736949 -48.1205369 366.21070153 -48.11964417 364.8747406 C-48.12222801 363.48423195 -48.12524123 362.09372403 -48.12864757 360.70321715 C-48.1367187 356.877825 -48.1385072 353.05245162 -48.13924503 349.22705197 C-48.14109542 345.10282465 -48.14864275 340.97860707 -48.15538025 336.85438538 C-48.16896552 327.83357868 -48.17498876 318.81277642 -48.17939091 309.79196119 C-48.18215334 304.15884399 -48.18639073 298.5257285 -48.19089508 292.89261246 C-48.20308864 277.29529872 -48.21338737 261.69798636 -48.21677017 246.10066795 C-48.21698974 245.10227146 -48.2172093 244.10387496 -48.21743552 243.07522402 C-48.21776294 241.57404588 -48.21776294 241.57404588 -48.21809697 240.04254091 C-48.21854044 238.01457175 -48.218987 235.98660258 -48.21943665 233.95863342 C-48.21965808 232.95269074 -48.21987951 231.94674806 -48.22010764 230.91032226 C-48.22405455 214.61519834 -48.24150489 198.32011918 -48.26479617 182.02501254 C-48.28851754 165.29387223 -48.3009724 148.56275437 -48.30213809 131.83159697 C-48.30305448 122.43821185 -48.30879754 113.04488502 -48.3269577 103.65151596 C-48.34236937 95.65159791 -48.3474729 87.65175615 -48.3392196 79.65182607 C-48.3353167 75.57161503 -48.33622499 71.49155758 -48.35027695 67.41136551 C-48.36303766 63.67182429 -48.36179947 59.93255173 -48.34968624 56.19301076 C-48.34681173 54.20830708 -48.35864863 52.22359867 -48.37110829 50.23893201 C-48.28857794 35.27501918 -43.58618859 24.309211 -33.36592102 13.41322327 C-24.11112368 4.52195315 -12.76691823 -0.00953467 0 0 Z " fill="#000000" transform="translate(81.97920227050781,60.87974548339844)"/>
<path d="M0 0 C41.58 0 83.16 0 126 0 C126 41.58 126 83.16 126 126 C115.77 126 105.54 126 95 126 C94.67 102.57 94.34 79.14 94 55 C88.7499707 60.27621338 83.49994141 65.55242676 78.09082031 70.98852539 C61.30616981 87.85336324 44.50925462 104.70593078 27.70454629 121.55078036 C25.09590447 124.16567599 22.48737168 126.78068036 19.87890625 129.39575195 C19.35958852 129.91638123 18.84027079 130.43701051 18.30521616 130.97341644 C9.88797892 139.4124321 1.47961239 147.86023354 -6.92552981 156.31129379 C-15.54508579 164.97754668 -24.17405785 173.6343389 -32.81191182 182.2823543 C-38.14506051 187.62237621 -43.47065741 192.96970987 -48.78694084 198.32652318 C-52.85881333 202.42785841 -56.94371657 206.51600781 -61.03371811 210.59925652 C-62.71349584 212.28041572 -64.38895683 213.96590033 -66.05985641 215.65588379 C-68.33302554 217.95374647 -70.62088377 220.23587339 -72.91326904 222.51454163 C-73.57864268 223.19447947 -74.24401632 223.87441732 -74.92955279 224.57495934 C-75.54362782 225.17907912 -76.15770284 225.7831989 -76.7903862 226.40562534 C-77.31743802 226.93457576 -77.84448984 227.46352618 -78.38751292 228.0085054 C-80 229 -80 229 -82.06321073 228.77825254 C-84.84932789 227.65871786 -86.45148624 225.88395661 -88.546875 223.74609375 C-89.39121094 222.89208984 -90.23554688 222.03808594 -91.10546875 221.15820312 C-91.97816406 220.26037109 -92.85085938 219.36253906 -93.75 218.4375 C-94.63816406 217.53580078 -95.52632813 216.63410156 -96.44140625 215.70507812 C-98.63448315 213.47662902 -100.82026044 211.24148407 -103 209 C-101.69054509 206.11003095 -100.29346929 204.04412997 -98.05209923 201.80600357 C-97.4454897 201.19541194 -96.83888016 200.58482031 -96.21388853 199.95572591 C-95.54658015 199.29424322 -94.87927178 198.63276053 -94.19174194 197.95123291 C-93.48357854 197.24136065 -92.77541513 196.53148839 -92.04579222 195.80010486 C-89.66595562 193.41696772 -87.27902937 191.04106035 -84.89208984 188.66503906 C-83.18695354 186.96046675 -81.4822572 185.25545421 -79.77796936 183.55003357 C-76.10482824 179.87643666 -72.42863429 176.2059244 -68.74964523 172.53818512 C-63.43045232 167.2352469 -58.1167912 161.92679406 -52.80446358 156.61697945 C-44.18539877 148.00229179 -35.56187718 139.39207985 -26.93554688 130.78466797 C-18.55592551 122.42340488 -10.17840747 114.06004361 -1.80371094 105.69384766 C-1.28748615 105.17814832 -0.77126136 104.66244897 -0.2393934 104.13112238 C2.35034405 101.54399501 4.94004018 98.95682629 7.52971578 96.36963701 C29.01341082 74.90667509 50.50515698 53.45179904 72 32 C48.24 31.67 24.48 31.34 0 31 C0 20.77 0 10.54 0 0 Z " fill="#000000" transform="translate(352,33)"/>
</svg>
