<?xml version="1.0" encoding="UTF-8"?>
<svg version="1.1" xmlns="http://www.w3.org/2000/svg" width="172.5" height="172.5" viewBox="0 0 172.5 172.5">
<path d="M0 0 C1.36898437 1.00160156 1.36898437 1.00160156 2.765625 2.0234375 C21.40466599 16.44526531 32.22197892 36.7197929 35.53125 59.84765625 C38.46944426 83.84847417 32.11036445 107.24745741 17.6875 126.625 C7.12995644 139.63340189 -6.74369898 151.38173426 -23.234375 155.8828125 C-26 156 -26 156 -27.64746094 155.01391602 C-29.75950581 151.86910407 -29.42064235 148.556641 -29.40625 144.89453125 C-29.41708618 144.09649582 -29.42792236 143.29846039 -29.43908691 142.47624207 C-29.47336785 139.92157967 -29.4889327 137.3673621 -29.5 134.8125 C-29.51465521 131.46442111 -29.54856264 128.11732216 -29.59375 124.76953125 C-29.58921814 123.63158867 -29.58921814 123.63158867 -29.58459473 122.47065735 C-29.65989265 117.0307201 -30.88223279 113.01422423 -33 108 C-33.33 107.01 -33.66 106.02 -34 105 C-32.81664062 104.76925781 -31.63328125 104.53851563 -30.4140625 104.30078125 C-13.92275549 101.16889051 -13.92275549 101.16889051 -1.1796875 90.890625 C4.39191635 81.96129962 4.82331441 71.24067789 4 61 C2.71947911 56.03715221 0.6921673 51.82284349 -2.3125 47.6875 C-4 45 -4 45 -3.75 42.75 C-3.37875 41.38875 -3.37875 41.38875 -3 40 C-2.59600603 33.92973157 -3.00142842 28.74589328 -5 23 C-12.5616161 23.12816298 -17.09375202 25.47989473 -23.3984375 29.6015625 C-27.7355348 31.28559811 -30.49635536 30.93299517 -35.03369141 30.35009766 C-40.01406782 29.76229027 -44.99122137 29.85568594 -50 29.875 C-51.00289063 29.87113281 -52.00578125 29.86726563 -53.0390625 29.86328125 C-58.02053779 29.86971726 -62.79234662 30.08133599 -67.73046875 30.75 C-73.2607516 31.3049144 -76.62501815 29.93092006 -81.3125 27.125 C-85.91561902 24.50359306 -89.60882589 22.51822139 -95 22 C-95.80568119 26.23941771 -96.13518559 30.24890396 -96.125 34.5625 C-96.12757812 35.65691406 -96.13015625 36.75132813 -96.1328125 37.87890625 C-96.09386332 40.96189408 -96.09386332 40.96189408 -95.3828125 43.75390625 C-95.25648437 44.49511719 -95.13015625 45.23632812 -95 46 C-96.75 48.375 -96.75 48.375 -99 51 C-104.37557966 61.35296824 -103.23013608 71.90507299 -101 83 C-98.98666435 89.32414706 -95.98918685 94.04448652 -90.4296875 97.7578125 C-82.57108127 101.77555652 -73.64395102 103.51706484 -65 105 C-65.26554687 105.51949219 -65.53109375 106.03898437 -65.8046875 106.57421875 C-66.15789062 107.27160156 -66.51109375 107.96898437 -66.875 108.6875 C-67.24753906 109.41710937 -67.62007813 110.14671875 -68.00390625 110.8984375 C-69.10139895 113.06851518 -69.10139895 113.06851518 -69.8125 115.8125 C-71.62853204 119.15782217 -74.57024082 119.62809633 -78 121 C-78.33 121.99 -78.66 122.98 -79 124 C-79.99 124 -80.98 124 -82 124 C-82 122.68 -82 121.36 -82 120 C-82.99 120 -83.98 120 -85 120 C-85.33 120.99 -85.66 121.98 -86 123 C-86.99 123 -87.98 123 -89 123 C-88.87625 122.278125 -88.7525 121.55625 -88.625 120.8125 C-88.7607566 117.68447642 -88.7607566 117.68447642 -91.75 115.125 C-94.68716273 112.73177209 -94.68716273 112.73177209 -97.375 113.1875 C-97.91125 113.455625 -98.4475 113.72375 -99 114 C-98.7215625 112.824375 -98.7215625 112.824375 -98.4375 111.625 C-97.74037734 109.02910225 -97.74037734 109.02910225 -99 107 C-99.33 107.66 -99.66 108.32 -100 109 C-100.66 109 -101.32 109 -102 109 C-102.33 107.68 -102.66 106.36 -103 105 C-103.99 105 -104.98 105 -106 105 C-106 104.34 -106 103.68 -106 103 C-107.98 102.67 -109.96 102.34 -112 102 C-111.29875 102.66 -110.5975 103.32 -109.875 104 C-105.04073332 108.87523504 -101.39498376 113.93253788 -98.6875 120.25 C-96.50286802 124.68753371 -94.5564244 126.76284044 -89.890625 128.4609375 C-83.6561061 129.62359103 -77.30926737 129.27869156 -71 129 C-70.91323092 133.12486838 -70.85968705 137.24950384 -70.8125 141.375 C-70.78736328 142.550625 -70.76222656 143.72625 -70.73632812 144.9375 C-70.72666016 146.05898437 -70.71699219 147.18046875 -70.70703125 148.3359375 C-70.6913208 149.37282715 -70.67561035 150.4097168 -70.65942383 151.47802734 C-70.77181396 152.31027832 -70.8842041 153.1425293 -71 154 C-74 156 -74 156 -77.2265625 155.8515625 C-81.33393777 154.9246393 -84.72870862 153.40675495 -88.375 151.375 C-89.03346924 151.0130957 -89.69193848 150.65119141 -90.37036133 150.27832031 C-111.15869137 138.60965246 -126.44264373 119.46164371 -132.99609375 96.51171875 C-138.9433236 71.84067434 -136.78662128 46.97345004 -124.1875 24.75 C-111.210393 4.40568122 -92.2791147 -9.05535749 -68.7265625 -14.44140625 C-45.14491732 -19.2726029 -19.45885471 -14.32879301 0 0 Z " fill="#000000" transform="translate(136,17)"/>
<path d="M0 0 C1.32 0 2.64 0 4 0 C3.67 0.99 3.34 1.98 3 3 C1.68 2.67 0.36 2.34 -1 2 C-0.67 1.34 -0.34 0.68 0 0 Z " fill="#000000" transform="translate(44,133)"/>
<path d="M0 0 C0.66 0.33 1.32 0.66 2 1 C2 1.99 2 2.98 2 4 C1.01 4 0.02 4 -1 4 C-0.67 2.68 -0.34 1.36 0 0 Z " fill="#000000" transform="translate(42,127)"/>
</svg>
