<?xml version="1.0" encoding="UTF-8"?>
<svg version="1.1" xmlns="http://www.w3.org/2000/svg" width="256" height="256" viewBox="0 0 256 256">
<path d="M0 0 C5.54161397 3.26518333 10.18560911 7.88947378 12.1328125 14.14453125 C12.62337425 16.61963826 12.69502944 18.91513869 12.6875 21.4375 C12.69007813 22.30632813 12.69265625 23.17515625 12.6953125 24.0703125 C12.5625 26.3125 12.5625 26.3125 11.5625 28.3125 C12.27317627 28.57877197 12.98385254 28.84504395 13.71606445 29.11938477 C16.66567024 30.35574496 19.33660137 31.80283071 22.10546875 33.40234375 C23.17128174 34.01730713 24.23709473 34.63227051 25.33520508 35.26586914 C26.4620874 35.92063232 27.58896973 36.57539551 28.75 37.25 C29.91742071 37.92268966 31.08498364 38.59513256 32.25268555 39.26733398 C37.59848014 42.35516008 42.90271177 45.48820832 48.1015625 48.8203125 C48.91729736 49.33988525 49.73303223 49.85945801 50.57348633 50.39477539 C52.07347415 51.35949653 53.56357697 52.33981855 55.04174805 53.33764648 C57.2378807 54.80777355 57.2378807 54.80777355 60.5625 56.3125 C63.39495842 55.85144355 63.39495842 55.85144355 65.5625 54.3125 C71.68796855 50.5774582 76.48081665 49.25119268 83.76953125 50.7734375 C90.87614023 52.83156957 96.14468302 56.48541872 100 62.875 C102.72554812 69.02223191 102.66686751 76.29364782 100.90234375 82.71484375 C97.79978067 89.71239944 92.50607541 93.53506984 85.5625 96.3125 C85.5625 116.1125 85.5625 135.9125 85.5625 156.3125 C89.5225 158.2925 89.5225 158.2925 93.5625 160.3125 C98.93278175 165.68278175 101.6821621 171.09117411 102 178.6875 C101.76213488 185.91265308 99.67895481 191.6672451 94.375 196.6875 C88.63569843 201.111801 81.77107296 203.19776335 74.5625 202.3125 C65.71617483 199.46617483 65.71617483 199.46617483 62.5625 196.3125 C58.85636281 196.6602039 56.1909629 197.88932332 53.03515625 199.796875 C52.17051758 200.31419189 51.30587891 200.83150879 50.41503906 201.36450195 C49.49432617 201.92484131 48.57361328 202.48518066 47.625 203.0625 C45.6627928 204.23833529 43.70055218 205.41411482 41.73828125 206.58984375 C40.72717285 207.19940918 39.71606445 207.80897461 38.67431641 208.43701172 C33.56398328 211.5170038 28.44032759 214.57425098 23.3125 217.625 C22.36640869 218.19379883 21.42031738 218.76259766 20.44555664 219.34863281 C19.5714917 219.8690918 18.69742676 220.38955078 17.796875 220.92578125 C17.02569336 221.38766846 16.25451172 221.84955566 15.45996094 222.32543945 C13.5625 223.3125 13.5625 223.3125 11.5625 223.3125 C11.8925 224.3025 12.2225 225.2925 12.5625 226.3125 C13.26515799 233.44275074 12.98405848 239.47456484 8.5625 245.3125 C3.86839044 250.27120446 -0.51356351 253.82963217 -7.453125 254.68359375 C-14.91396605 254.83677527 -20.66858803 254.36174891 -26.4375 249.3125 C-31.26863901 243.48040619 -33.58197746 238.74890342 -33.5 231.125 C-33.49097656 230.03832031 -33.48195313 228.95164063 -33.47265625 227.83203125 C-33.46105469 227.00058594 -33.44945313 226.16914063 -33.4375 225.3125 C-33.95844238 225.01706299 -34.47938477 224.72162598 -35.01611328 224.41723633 C-46.40467706 217.95147909 -57.74224757 211.41242577 -68.97509766 204.67895508 C-74.03786911 201.66111089 -79.12987064 198.87692952 -84.4375 196.3125 C-85.118125 196.93125 -85.79875 197.55 -86.5 198.1875 C-91.72141554 201.96469422 -97.08390166 202.86983319 -103.4375 202.3125 C-110.05131452 200.84572662 -114.92209812 197.28463219 -119.4375 192.3125 C-123.15130912 186.39361672 -123.33728677 180.10415973 -122.4375 173.3125 C-120.19240401 165.90160445 -116.14472772 161.11513329 -109.4375 157.3125 C-108.4475 156.9825 -107.4575 156.6525 -106.4375 156.3125 C-106.4375 136.5125 -106.4375 116.7125 -106.4375 96.3125 C-109.0775 94.9925 -111.7175 93.6725 -114.4375 92.3125 C-116.4609375 90.56640625 -116.4609375 90.56640625 -117.8125 88.875 C-118.27398437 88.31941406 -118.73546875 87.76382813 -119.2109375 87.19140625 C-123.11088365 81.21728492 -123.12570485 75.23866421 -122.4375 68.3125 C-120.6905965 61.13692801 -116.53371394 56.34608517 -110.4375 52.3125 C-103.12138132 49.36038194 -96.94404341 49.8743471 -89.6484375 52.36328125 C-87.09052282 53.46146724 -84.8116555 54.86429951 -82.4375 56.3125 C-81.80585937 55.9314209 -81.17421875 55.5503418 -80.5234375 55.15771484 C-78.60418737 54.00070292 -76.68410041 52.84507861 -74.76342773 51.69042969 C-72.52824327 50.34436396 -70.29602039 48.99336928 -68.06665039 47.63769531 C-62.26548632 44.12174484 -56.44037874 40.74045207 -50.43359375 37.5859375 C-48.78133789 36.69575928 -48.78133789 36.69575928 -47.09570312 35.78759766 C-44.98366021 34.65632907 -42.85346529 33.55818411 -40.70507812 32.49755859 C-37.87220301 30.95647835 -35.64720581 29.66459735 -33.4375 27.3125 C-32.78873661 24.32808056 -32.84417288 21.96917889 -33.21704102 18.9453125 C-33.5936814 14.44731702 -31.9198945 10.98423114 -29.4375 7.3125 C-21.68896125 -1.14780431 -11.03597417 -5.18229205 0 0 Z M-35.34375 41.64453125 C-35.93665833 41.99237671 -36.52956665 42.34022217 -37.14044189 42.6986084 C-39.07568263 43.83591762 -41.00686711 44.97988838 -42.9375 46.125 C-44.2581029 46.9059025 -45.578741 47.68674546 -46.89941406 48.4675293 C-49.52655663 50.02218682 -52.15156015 51.58038516 -54.77539062 53.140625 C-57.95010863 55.02691429 -61.13744042 56.89082559 -64.328125 58.75 C-65.948454 59.70742455 -67.56829366 60.66567802 -69.1875 61.625 C-69.92419922 62.04950439 -70.66089844 62.47400879 -71.41992188 62.91137695 C-75.02150753 64.90288015 -75.02150753 64.90288015 -77.13378906 68.24682617 C-77.52972506 70.50107838 -77.52972506 70.50107838 -77.3125 73.5625 C-77.54380016 80.50150479 -80.09058704 85.37465889 -84.44921875 90.671875 C-86.4375 92.3125 -86.4375 92.3125 -94.4375 96.3125 C-94.4375 116.1125 -94.4375 135.9125 -94.4375 156.3125 C-91.51994762 152.66555953 -89.38107813 149.66804884 -87.1875 145.65625 C-86.28439087 144.015354 -86.28439087 144.015354 -85.36303711 142.34130859 C-85.04930145 141.76628601 -84.7355658 141.19126343 -84.412323 140.59881592 C-82.74430875 137.54226061 -81.0605355 134.49439149 -79.37890625 131.4453125 C-79.04186172 130.8332193 -78.7048172 130.2211261 -78.3575592 129.59048462 C-75.41767832 124.25786004 -72.4107405 118.96597124 -69.375 113.6875 C-65.01124835 106.09068538 -60.70933581 98.46137553 -56.4375 90.8125 C-52.05035014 82.9621907 -47.64618868 75.12243862 -43.1875 67.3125 C-42.46191895 66.04152466 -42.46191895 66.04152466 -41.72167969 64.74487305 C-39.33470227 60.57818145 -36.92232244 56.42864174 -34.46875 52.30078125 C-33.76540527 51.11645508 -33.76540527 51.11645508 -33.04785156 49.90820312 C-32.16347151 48.42386676 -31.27501586 46.94194848 -30.38183594 45.46289062 C-28.18876992 42.12170487 -28.18876992 42.12170487 -27.4375 38.3125 C-30.59149128 38.3125 -32.64897741 40.056711 -35.34375 41.64453125 Z M5.5625 38.3125 C10.45667223 48.68041748 16.20331745 58.53026245 21.92285156 68.45654297 C24.63865684 73.18696139 27.31948558 77.93702153 30 82.6875 C30.53955322 83.64309814 31.07910645 84.59869629 31.63500977 85.58325195 C32.73062907 87.52383528 33.82608785 89.46450924 34.92138672 91.40527344 C37.63299024 96.20886979 40.34791421 101.01058857 43.0625 105.8125 C44.1406357 107.72004603 45.21876069 109.62759813 46.296875 111.53515625 C48.51517406 115.45989054 50.73398545 119.38433464 52.953125 123.30859375 C59.16954191 134.30245049 65.37748804 145.30094124 71.5625 156.3125 C71.8925 156.3125 72.2225 156.3125 72.5625 156.3125 C72.79463673 148.59387461 72.97209518 140.87561247 73.08062172 133.15428734 C73.13272592 129.56823477 73.20331948 125.98457646 73.31689453 122.39990234 C73.42591107 118.93725931 73.48540715 115.47691087 73.51127243 112.01268387 C73.53862957 110.05442711 73.61664931 108.09708954 73.69546509 106.14022827 C73.69769657 102.59262143 73.61209846 99.70362775 72.5625 96.3125 C70.1740885 94.08673612 67.99990129 92.8472334 65.01473999 91.54580688 C61.08872637 89.57129393 59.27702458 86.25191928 57.5625 82.3125 C56.53447746 79.01203066 56.45896977 76.00903925 56.5 72.5625 C56.50902344 71.57765625 56.51804688 70.5928125 56.52734375 69.578125 C56.53894531 68.83046875 56.55054688 68.0828125 56.5625 67.3125 C55.89532959 66.9314209 55.22815918 66.5503418 54.54077148 66.15771484 C51.35863987 64.3375671 48.1786659 62.51369092 45 60.6875 C44.13121216 60.18861771 44.13121216 60.18861771 43.24487305 59.67965698 C33.59140898 54.12951424 24.0539522 48.41524305 14.59936523 42.53076172 C13.70032471 41.97533691 12.80128418 41.41991211 11.875 40.84765625 C11.08738281 40.356604 10.29976562 39.86555176 9.48828125 39.35961914 C7.634999 38.15327033 7.634999 38.15327033 5.5625 38.3125 Z M-17.4375 43.3125 C-18.16453125 44.65699219 -18.8915625 46.00148437 -19.640625 47.38671875 C-25.75358379 58.66040766 -31.98651283 69.85302855 -38.375 80.97265625 C-41.56747944 86.5297453 -44.72438819 92.10659142 -47.875 97.6875 C-48.41503662 98.64390381 -48.95507324 99.60030762 -49.51147461 100.58569336 C-50.60658373 102.52547525 -51.70155414 104.46533545 -52.79638672 106.40527344 C-56.0416285 112.15420814 -59.29125526 117.90066543 -62.5402832 123.64746094 C-65.37521518 128.66228217 -68.20839943 133.67808021 -71.0390625 138.6953125 C-71.62880859 139.74009766 -72.21855469 140.78488281 -72.82617188 141.86132812 C-73.95562238 143.86232311 -75.08455649 145.86360968 -76.21289062 147.86523438 C-76.97762695 149.2197168 -76.97762695 149.2197168 -77.7578125 150.6015625 C-78.20398926 151.39256348 -78.65016602 152.18356445 -79.10986328 152.99853516 C-80.0750228 154.68073116 -81.08185676 156.33922643 -82.11279297 157.98193359 C-83.63041027 160.15693586 -83.63041027 160.15693586 -83.3125 162.3125 C-82.22681317 164.79406989 -80.87250395 167.01649368 -79.4375 169.3125 C-78.7775 170.6325 -78.1175 171.9525 -77.4375 173.3125 C-33.2175 173.3125 11.0025 173.3125 56.5625 173.3125 C57.8825 170.6725 59.2025 168.0325 60.5625 165.3125 C61.5525 163.8275 61.5525 163.8275 62.5625 162.3125 C50.39312957 140.34164707 38.08513961 118.45531758 25.60644531 96.65835571 C19.03199111 85.17102061 12.55569191 73.63003401 6.10498047 62.07275391 C3.80708944 57.9607001 1.49840817 53.85474889 -0.8125 49.75 C-1.18818115 49.08258789 -1.5638623 48.41517578 -1.95092773 47.72753906 C-2.77956759 46.25573686 -3.6084937 44.78409583 -4.4375 43.3125 C-8.7275 43.3125 -13.0175 43.3125 -17.4375 43.3125 Z M-77.4375 184.3125 C-74.29413663 187.45586337 -72.27410781 189.19097829 -68.5703125 191.30859375 C-67.61286133 191.86192383 -66.65541016 192.41525391 -65.66894531 192.98535156 C-63.56202972 194.18220679 -61.4545905 195.37814061 -59.34667969 196.57324219 C-53.90590417 199.67372566 -48.57716791 202.83126459 -43.3828125 206.33203125 C-34.30383322 213.08090848 -34.30383322 213.08090848 -23.75 214.78515625 C-20.66019013 213.1998142 -20.66019013 213.1998142 -17.9609375 211.125 C-14.52031085 208.65371398 -12.03745177 208.518935 -7.8984375 208.7734375 C-3.33349958 209.77337628 0.561048 211.9654945 4.5625 214.3125 C5.2225 214.6425 5.8825 214.9725 6.5625 215.3125 C8.79384436 214.24919935 10.87112665 213.12118934 13 211.875 C14.01694946 211.29165894 14.01694946 211.29165894 15.05444336 210.6965332 C23.46723364 205.84345672 31.81109106 200.86750396 40.15600586 195.89868164 C45.59991348 192.65735206 51.04519324 189.42749612 56.5625 186.3125 C56.5625 185.6525 56.5625 184.9925 56.5625 184.3125 C12.3425 184.3125 -31.8775 184.3125 -77.4375 184.3125 Z " fill="#000000" transform="translate(138.4375,1.6875)"/>
</svg>
