<?xml version="1.0" encoding="UTF-8"?>
<svg version="1.1" xmlns="http://www.w3.org/2000/svg" width="256" height="256" viewBox="0 0 256 256">
<path d="M0 0 C60.06 0 120.12 0 182 0 C181.41461937 9.95147076 180.82568219 19.85564657 179.92366028 29.77664185 C179.8229293 30.88985746 179.8229293 30.88985746 179.72016335 32.02556229 C179.65065153 32.79322292 179.58113972 33.56088356 179.50952148 34.35180664 C179.36137142 36.00944578 179.21344955 37.66710533 179.06573486 39.32478333 C178.66934518 43.76599198 178.26981881 48.20691318 177.86966968 52.64778447 C177.45006952 57.31071245 177.03343646 61.97390558 176.61647034 66.6370697 C175.82879547 75.44109926 175.03850483 84.24489192 174.24724203 93.04859966 C173.34554448 103.08247647 172.44681219 113.1166182 171.54831207 123.15078175 C169.70214222 143.76748144 167.85230346 164.38385054 166 185 C161.12599898 186.87164764 156.29297329 188.57740272 151.26782227 190.00878906 C150.33678177 190.27520203 150.33678177 190.27520203 149.38693237 190.54699707 C147.36459054 191.12408053 145.34074228 191.69557861 143.31640625 192.265625 C142.61785963 192.46270805 141.91931301 192.65979111 141.19959831 192.86284637 C137.50759424 193.90357983 133.81425296 194.93941373 130.11987305 195.97167969 C126.32578114 197.03303244 122.53721548 198.11289337 118.74952793 199.19684219 C115.81411564 200.03297648 112.87477163 200.85456993 109.93421745 201.67241669 C108.5361697 202.06401606 107.13963756 202.46107238 105.7447834 202.86389923 C91.67512014 206.91729966 91.67512014 206.91729966 84 205 C82.94284286 204.73963959 81.88568573 204.47927917 80.79649353 204.21102905 C76.93566792 203.20569752 73.09789079 202.1296485 69.26171875 201.03515625 C67.84941048 200.63730828 66.43695763 200.23997322 65.02436829 199.84312439 C62.08064814 199.01450309 59.13833386 198.18112103 56.19702148 197.34399414 C52.4321309 196.27267385 48.66452615 195.21129766 44.8959074 194.15317631 C41.98593138 193.33535784 39.077136 192.51340678 36.16871071 191.69009209 C34.77955752 191.29716428 33.39011352 190.90526308 32.00037193 190.51442146 C30.06119932 189.9681597 28.12369933 189.41597082 26.1862793 188.86352539 C25.08535446 188.55121475 23.98442963 188.23890411 22.85014343 187.91712952 C21.43932243 187.46315041 21.43932243 187.46315041 20 187 C19.30366487 186.79536983 18.60732973 186.59073965 17.88989353 186.37990856 C16 185 16 185 15.25793076 181.97515488 C15.14362843 180.66478382 15.0293261 179.35441277 14.91156006 178.0043335 C14.84280552 177.27590217 14.77405098 176.54747084 14.70321298 175.79696584 C14.47644403 173.34475278 14.27694463 170.89107054 14.07714844 168.43652344 C13.92054559 166.68229374 13.76228244 164.92821158 13.60247803 163.17427063 C13.17239627 158.40073198 12.76587503 153.62544212 12.36355877 148.84949398 C11.93904069 143.85562841 11.49353043 138.8636369 11.050354 133.87139893 C10.3085969 125.48253209 9.58060447 117.09256678 8.86230469 108.70166016 C7.84971468 96.87320296 6.81268508 85.04698418 5.77058363 73.22109556 C4.9622301 64.03842659 4.16002626 54.85521838 3.359375 45.671875 C3.27349719 44.6871329 3.18761938 43.7023908 3.09913921 42.68780804 C2.60549106 37.0214915 2.11505255 31.35491241 1.62924957 25.68791771 C1.48176783 23.9713746 1.33343124 22.25490469 1.18417358 20.53851509 C0.98049127 18.1937471 0.78005631 15.84872378 0.58050537 13.50360107 C0.46771114 12.19172192 0.35491692 10.87984276 0.23870468 9.52820969 C0.02424722 6.35838965 0 3.17706643 0 0 Z M35 39 C34.99517359 46.6087051 34.99517359 46.6087051 35.44311523 54.13061523 C35.5399913 55.24464218 35.63686737 56.35866913 35.73667908 57.50645447 C35.84291092 58.67866043 35.94914276 59.85086639 36.05859375 61.05859375 C36.1672023 62.28409439 36.27581085 63.50959503 36.38771057 64.77223206 C36.61694452 67.34662119 36.8481752 69.92083323 37.08129883 72.49487305 C37.43849758 76.4485418 37.78702745 80.40291104 38.13476562 84.35742188 C38.35885737 86.86202553 38.58344898 89.36658453 38.80859375 91.87109375 C38.91280136 93.05746933 39.01700897 94.24384491 39.12437439 95.46617126 C39.22440262 96.55813309 39.32443085 97.65009491 39.42749023 98.77514648 C39.51409409 99.7383934 39.60069794 100.70164032 39.68992615 101.69407654 C39.87624609 104.02251305 39.87624609 104.02251305 41 106 C66.74 106 92.48 106 119 106 C118.01 115.9 117.02 125.8 116 136 C112.514375 136.99 109.02875 137.98 105.4375 139 C104.35267334 139.31324219 103.26784668 139.62648438 102.15014648 139.94921875 C93.15466031 142.45150467 86.66098055 142.19904188 77.8125 139.5 C76.23710155 139.02648463 74.66031398 138.55756105 73.08203125 138.09375 C72.39343018 137.88427734 71.7048291 137.67480469 70.99536133 137.45898438 C68.69154519 136.85055235 68.69154519 136.85055235 65 137 C65.03255208 134.94921875 65.06510417 132.8984375 65.09765625 130.84765625 C64.96172341 126.88385465 64.43798598 122.94187381 64 119 C56.74 119 49.48 119 42 119 C42.12375 121.805 42.2475 124.61 42.375 127.5 C42.40899902 128.34626953 42.44299805 129.19253906 42.47802734 130.06445312 C42.8690148 138.09650304 43.94276532 146.03409075 45 154 C51.11394593 155.74841633 57.23422592 157.47313361 63.359375 159.18188477 C65.44031847 159.7653707 67.5197785 160.3541753 69.59765625 160.94848633 C72.59256538 161.8040722 75.59236882 162.64009956 78.59375 163.47265625 C79.97548401 163.87412621 79.97548401 163.87412621 81.38513184 164.28370667 C86.9822323 165.81171663 91.33629285 166.28931297 97 165 C97.71762512 164.83992966 98.43525024 164.67985931 99.17462158 164.51493835 C104.19960748 163.31917396 109.17695323 161.92637351 114.15625 160.55444336 C115.97650761 160.05769741 117.79984169 159.57209697 119.62597656 159.09741211 C122.27613343 158.40828587 124.91544442 157.68669655 127.5546875 156.95703125 C128.78117508 156.64727104 128.78117508 156.64727104 130.03244019 156.33125305 C130.78727692 156.11470566 131.54211365 155.89815826 132.31982422 155.67504883 C132.98408417 155.49597488 133.64834412 155.31690094 134.33273315 155.13240051 C136.99945058 153.32117744 137.23801782 151.04864391 138 148 C138.2911997 146.1049923 138.51822644 144.19919974 138.68603516 142.28930664 C138.78598785 141.19119156 138.88594055 140.09307648 138.98892212 138.96168518 C139.08796844 137.78968063 139.18701477 136.61767609 139.2890625 135.41015625 C139.45128799 133.58332558 139.45128799 133.58332558 139.61679077 131.71958923 C139.84365545 129.14872728 140.0670165 126.57755406 140.28710938 124.00610352 C140.62354343 120.07949995 140.97098773 116.15399125 141.3203125 112.22851562 C141.53971121 109.7266193 141.75848214 107.22466783 141.9765625 104.72265625 C142.07965729 103.55267593 142.18275208 102.38269562 142.28897095 101.17726135 C142.38261932 100.07599411 142.4762677 98.97472687 142.57275391 97.84008789 C142.65554596 96.87889542 142.73833801 95.91770294 142.82363892 94.92738342 C143.0226689 91.62372336 143 88.30964995 143 85 C115.94 84.67 88.88 84.34 61 84 C60.34 76.08 59.68 68.16 59 60 C87.38 60 115.76 60 145 60 C148.14466038 53.71067925 146.6304234 46.0219554 147 39 C110.04 39 73.08 39 35 39 Z " fill="#000000" transform="translate(37,50)"/>
<path d="M0 0 C13 0 13 0 15.80078125 2.1875 C16.29964844 3.115625 16.79851562 4.04375 17.3125 5 C17.84488281 5.928125 18.37726563 6.85625 18.92578125 7.8125 C19.28027344 8.534375 19.63476562 9.25625 20 10 C20.35449219 9.278125 20.70898438 8.55625 21.07421875 7.8125 C21.60660156 6.884375 22.13898438 5.95625 22.6875 5 C23.18636719 4.071875 23.68523437 3.14375 24.19921875 2.1875 C27 -0 27 -0 40 0 C40 11.55 40 23.1 40 35 C36.04 35 32.08 35 28 35 C27.67 30.38 27.34 25.76 27 21 C25.02 23.97 23.04 26.94 21 30 C16.38226158 28.46075386 15.42585496 25.13050979 13 21 C12.67 25.62 12.34 30.24 12 35 C8.04 35 4.08 35 0 35 C0 23.45 0 11.9 0 0 Z " fill="#000000" transform="translate(129,0)"/>
<path d="M0 0 C3.96 0 7.92 0 12 0 C12 3.63 12 7.26 12 11 C15.3 11 18.6 11 22 11 C22 7.37 22 3.74 22 0 C25.96 0 29.92 0 34 0 C34 11.55 34 23.1 34 35 C30.04 35 26.08 35 22 35 C22 31.37 22 27.74 22 24 C18.7 24 15.4 24 12 24 C12 27.63 12 31.26 12 35 C8.04 35 4.08 35 0 35 C0 23.45 0 11.9 0 0 Z " fill="#000000" transform="translate(54,0)"/>
<path d="M0 0 C1.34888732 0.00015905 2.69778075 0.00584927 4.04663086 0.01586914 C5.10991859 0.01799156 5.10991859 0.01799156 6.19468689 0.02015686 C8.46699173 0.02577096 10.73919936 0.03832576 13.01147461 0.05102539 C14.54858257 0.05603858 16.08569206 0.0606018 17.62280273 0.06469727 C21.39823103 0.07574497 25.17358632 0.09301898 28.94897461 0.11352539 C28.94897461 4.07352539 28.94897461 8.03352539 28.94897461 12.11352539 C25.64897461 12.11352539 22.34897461 12.11352539 18.94897461 12.11352539 C18.94897461 19.70352539 18.94897461 27.29352539 18.94897461 35.11352539 C14.98897461 35.11352539 11.02897461 35.11352539 6.94897461 35.11352539 C6.94897461 27.52352539 6.94897461 19.93352539 6.94897461 12.11352539 C3.31897461 12.11352539 -0.31102539 12.11352539 -4.05102539 12.11352539 C-4.14868164 3.61743164 -4.14868164 3.61743164 -4.05102539 1.11352539 C-3.05102539 0.11352539 -3.05102539 0.11352539 0 0 Z " fill="#000000" transform="translate(96.051025390625,-0.113525390625)"/>
<path d="M0 0 C3.96 0 7.92 0 12 0 C12 7.59 12 15.18 12 23 C17.28 23 22.56 23 28 23 C28 26.96 28 30.92 28 35 C18.76 35 9.52 35 0 35 C0 23.45 0 11.9 0 0 Z " fill="#000000" transform="translate(174,0)"/>
</svg>
