<?xml version="1.0" encoding="UTF-8"?>
<svg version="1.1" xmlns="http://www.w3.org/2000/svg" width="256" height="256" viewBox="0 0 256 256">
<path d="M0 0 C84.48 0 168.96 0 256 0 C256 84.48 256 168.96 256 256 C171.52 256 87.04 256 0 256 C0 171.52 0 87.04 0 0 Z M165.625 128.375 C159.10652477 136.75848342 159.11655743 145.83533316 160 156 C161.91065528 165.04857498 167.46951705 171.89119204 175 177.05859375 C182.33535057 181.41395815 189.99941293 184.933322 197.87060547 188.21118164 C202.773131 190.28633338 207.00759298 192.46420924 210.375 196.75 C211.35878143 200.29161315 210.99887865 203.48220996 210 207 C207.48668598 210.41092617 204.96303244 211.68086031 201 213 C191.78253941 213.89841072 185.30001521 213.26801156 177.875 207.625 C175.17667724 205.161314 172.58366933 202.58366933 170 200 C161.585 204.95 161.585 204.95 153 210 C154.51237236 217.56186182 159.39622683 222.26295708 165.46875 226.875 C178.2272402 234.9499938 193.46192448 236.78798838 208.1328125 233.81640625 C217.54277786 231.13700194 226.02904063 226.38276905 231.2734375 217.953125 C235.89178717 209.24049371 235.97323105 199.98686143 233.796875 190.47265625 C230.75967663 181.04840838 223.44206926 174.7348293 215 170 C209.43092509 167.25742689 203.7781646 164.70433746 198.07714844 162.2487793 C187.22172607 157.5061113 187.22172607 157.5061113 184 153 C183.08913486 149.57086066 183.29413664 146.4666999 184 143 C186.32764553 139.64545203 187.93923823 138.38573155 191.75 137 C196.87507379 137 201.80792589 138.00074722 205.6875 141.5390625 C207.0625 143.1875 207.0625 143.1875 209 146 C211.88305128 145.40074509 213.99659057 144.54853768 216.453125 142.93359375 C217.071875 142.53076172 217.690625 142.12792969 218.328125 141.71289062 C219.27945313 141.08157227 219.27945313 141.08157227 220.25 140.4375 C220.8996875 140.01275391 221.549375 139.58800781 222.21875 139.15039062 C223.81578918 138.1052694 225.4083442 137.05330163 227 136 C225.97096684 130.15144443 221.5974739 126.17385155 217.1796875 122.4765625 C201.12358318 111.39180429 178.70813958 114.32986486 165.625 128.375 Z M116 118 C115.96241577 121.71648804 115.96241577 121.71648804 115.92407227 125.50805664 C115.84048903 133.70637939 115.75181746 141.90464147 115.66066074 150.10288334 C115.60556369 155.07206645 115.55216533 160.04125557 115.50268555 165.01049805 C115.45484641 169.80863301 115.40249749 174.60669976 115.34705925 179.40475273 C115.32672398 181.23269381 115.30799681 183.06065353 115.29092598 184.88862801 C115.26668544 187.45454748 115.23665928 190.02034034 115.20532227 192.58618164 C115.1995668 193.33712601 115.19381134 194.08807037 115.18788147 194.86177063 C115.02335923 206.76119672 115.02335923 206.76119672 111.625 210.875 C107.89037 213.8982719 104.82778504 214.36085687 100.0546875 214.2734375 C95.8457543 213.71331331 93.13192927 211.3947519 90.51953125 208.17578125 C89.29586487 206.48595624 88.14175524 204.74621389 87 203 C80.3105939 206.15538024 74.18524262 209.95230446 68 214 C70.75861027 221.75102204 76.78466192 228.07115131 84 232 C95.70155791 236.89784998 108.16673817 237.53216445 120.1640625 233.22265625 C127.79735172 229.78914971 133.72596798 223.69484339 137 216 C140.12998906 206.34597858 139.25158738 195.78250855 139.1953125 185.7734375 C139.19157689 183.8147496 139.18873251 181.85605983 139.18673706 179.89736938 C139.17914375 174.77149184 139.15953271 169.64572976 139.1373291 164.51989746 C139.11677747 159.27760377 139.10771551 154.03529121 139.09765625 148.79296875 C139.07628233 138.52858725 139.04113576 128.26432134 139 118 C131.41 118 123.82 118 116 118 Z " fill="#000000" transform="translate(0,0)"/>
</svg>
