<?xml version="1.0" encoding="UTF-8"?>
<svg version="1.1" xmlns="http://www.w3.org/2000/svg" width="342.5" height="428.3" viewBox="0 0 342.5 428.3">
<path d="M0 0 C1.07120658 0.79482101 2.14285466 1.5890472 3.21484375 2.3828125 C40.12112968 30.11935354 64.22663311 72.23400233 70.75 117.8125 C74.18822954 144.59037244 71.75261382 170.25345714 64 196 C63.79568359 196.68562012 63.59136719 197.37124023 63.38085938 198.07763672 C52.18643222 234.69052108 29.30245158 267.1113417 4.63671875 295.89453125 C2.27889771 298.65252903 0.01109619 301.47446369 -2.25 304.3125 C-6.74372285 309.84448372 -11.59859277 315.00694839 -16.50878906 320.16723633 C-19.59680945 323.41522174 -22.62442352 326.69041691 -25.5546875 330.08203125 C-29.20652532 334.29092039 -33.1195535 338.17747191 -37.10546875 342.06640625 C-39.91409053 344.83422481 -42.59545923 347.65098497 -45.16040039 350.6472168 C-51.54234489 357.9738346 -58.48029314 364.78268167 -65.32397461 371.67407227 C-67.06992202 373.43665551 -68.81047582 375.20459745 -70.5456543 376.9777832 C-73.06911779 379.55605797 -75.60868172 382.11745019 -78.15234375 384.67578125 C-78.9202977 385.46640457 -79.68825165 386.25702789 -80.47947693 387.0716095 C-85.76445206 392.33616357 -90.24750525 395.59118325 -97.90625 396.25 C-98.7621875 396.1675 -99.618125 396.085 -100.5 396 C-101.3559375 395.938125 -102.211875 395.87625 -103.09375 395.8125 C-111.66081751 393.41740586 -117.65641654 386.75926325 -123.72265625 380.60546875 C-125.07912514 379.24619011 -125.07912514 379.24619011 -126.46299744 377.85945129 C-128.36773388 375.95014052 -130.2674953 374.03606922 -132.16333008 372.11791992 C-134.57246915 369.680542 -136.99015703 367.25188103 -139.41121769 364.82635021 C-141.74735033 362.48501777 -144.07878886 360.13904681 -146.41015625 357.79296875 C-147.6963662 356.50038399 -147.6963662 356.50038399 -149.00856018 355.1816864 C-153.32763857 350.81166308 -157.51630551 346.38401756 -161.50682068 341.71089172 C-163.8698427 339.00333024 -166.4283747 336.50732402 -169 334 C-172.88619576 330.16118956 -176.62578818 326.2759898 -180.16796875 322.11328125 C-182.04902117 319.94345319 -183.98943356 317.83512575 -185.94311523 315.73071289 C-190.72916058 310.57255557 -195.29674428 305.30389606 -199.70703125 299.81640625 C-201.70634177 297.36069435 -203.75620358 294.96005528 -205.83203125 292.5690918 C-245.85852666 246.2343861 -274.18286091 189.13575839 -269.77294922 126.79003906 C-268.59964001 113.80707257 -266.08176735 101.37089488 -262 89 C-261.75266113 88.23768066 -261.50532227 87.47536133 -261.25048828 86.68994141 C-255.60871781 69.58754994 -247.57349525 53.59723552 -237 39 C-236.46246094 38.25105469 -235.92492187 37.50210938 -235.37109375 36.73046875 C-230.51372544 30.23447017 -224.95740206 24.34797499 -219.38671875 18.46582031 C-218.21911441 17.23161319 -217.06150268 15.98796371 -215.90625 14.7421875 C-197.10945256 -4.93073185 -170.14944754 -19.18609996 -144 -26 C-143.31147949 -26.18401367 -142.62295898 -26.36802734 -141.91357422 -26.55761719 C-94.45158557 -38.9899461 -39.28325774 -30.39250438 0 0 Z M-192.26953125 53.02734375 C-210.65872211 73.99019112 -222.83345733 100.18480134 -226 128 C-226.1340625 129.17175781 -226.268125 130.34351563 -226.40625 131.55078125 C-230.55014828 178.40508571 -206.50941445 221.65613688 -178 257 C-176.93265625 258.33804688 -176.93265625 258.33804688 -175.84375 259.703125 C-166.17371328 271.68556181 -155.94874964 283.17976343 -145.44970703 294.43701172 C-143.9972824 296.00292995 -142.55717409 297.57924464 -141.12109375 299.16015625 C-136.29820187 304.46833394 -131.42002341 309.67981984 -126.265625 314.671875 C-124.35738493 316.63275617 -122.5761322 318.63066833 -120.79296875 320.703125 C-116.75878074 325.35038848 -112.43654945 329.67467603 -108.0625 334 C-106.89364258 335.16208984 -106.89364258 335.16208984 -105.70117188 336.34765625 C-103.8030758 338.23410757 -101.90266851 340.11816245 -100 342 C-96.76951252 340.5800745 -94.61757512 338.86380613 -92.13671875 336.3671875 C-91.41419922 335.64273437 -90.69167969 334.91828125 -89.94726562 334.171875 C-89.20154297 333.41390625 -88.45582031 332.6559375 -87.6875 331.875 C-86.95337891 331.14023437 -86.21925781 330.40546875 -85.46289062 329.6484375 C-81.38503271 325.53801462 -77.5019928 321.32198001 -73.72192383 316.93798828 C-70.79546631 313.64432321 -67.64444223 310.58367034 -64.5 307.5 C-60.10497698 303.14712907 -55.78480318 298.80490171 -51.79296875 294.07421875 C-49.81758733 291.78897358 -47.76776315 289.58612242 -45.70556641 287.37939453 C-40.68127387 282.001213 -35.86714122 276.53159901 -31.26171875 270.78515625 C-29.26015199 268.32035988 -27.20296791 265.91616905 -25.11938477 263.52075195 C-13.22073502 249.76379998 -3.04650082 234.76048968 6 219 C6.43441406 218.24638184 6.86882812 217.49276367 7.31640625 216.71630859 C26.53624045 182.95968189 34.06951209 146.04793519 24.0925293 108.05908203 C14.38511042 73.32076231 -7.92382654 45.02749252 -39.08935547 27.06640625 C-90.48126142 -1.61744824 -152.33125957 11.31403777 -192.26953125 53.02734375 Z " fill="#000000" transform="translate(270,32)"/>
<path d="M0 0 C17.82667393 14.82461253 27.52240041 36.49347662 29.8125 59.30859375 C31.38093819 82.47573278 23.57820573 104.54045993 8.7265625 122.14453125 C8.09492188 122.85867188 7.46328125 123.5728125 6.8125 124.30859375 C6.28398437 124.91960937 5.75546875 125.530625 5.2109375 126.16015625 C-8.07363407 140.49178765 -28.96134171 150.32173797 -48.39501953 151.43505859 C-74.47377822 152.28257776 -96.80050673 144.93168915 -116.34375 127.37109375 C-132.46966476 111.98945197 -140.98354839 90.62781726 -142.35546875 68.61328125 C-142.53114462 46.75920307 -135.74511265 24.40235106 -120.38500977 8.45117188 C-118.99864373 7.05745803 -117.59331682 5.68268551 -116.1875 4.30859375 C-115.40761719 3.50808594 -114.62773437 2.70757812 -113.82421875 1.8828125 C-82.35898771 -28.73629468 -33.10487972 -25.59716593 0 0 Z M-88.1875 37.30859375 C-97.01015616 48.09184017 -99.53576019 59.67465652 -98.1875 73.30859375 C-95.4185694 85.86211621 -87.69463625 95.37297281 -77.30078125 102.625 C-67.86588977 108.3707429 -56.92608003 109.19021796 -46.28515625 107.171875 C-34.20556895 103.80543264 -25.26673635 96.99458425 -18.98828125 86.2578125 C-13.7626697 76.25338891 -12.39710826 65.04234778 -14.9453125 54.03515625 C-16.70377171 48.98131679 -18.91646359 44.57085332 -22.1875 40.30859375 C-22.88875 39.33921875 -23.59 38.36984375 -24.3125 37.37109375 C-31.43207423 29.04666849 -41.39316345 24.2723738 -52.1875 23.30859375 C-66.14816355 22.62200374 -78.5264688 26.98128454 -88.1875 37.30859375 Z " fill="#000000" transform="translate(230,102)"/>
</svg>
