<?xml version="1.0" encoding="UTF-8"?>
<svg version="1.1" xmlns="http://www.w3.org/2000/svg" width="256" height="256" viewBox="0 0 256 256">
<path d="M0 0 C0.72111865 -0.00367669 1.44223729 -0.00735338 2.18520802 -0.01114148 C4.60795082 -0.02217783 7.03065074 -0.02602205 9.45341492 -0.02983093 C11.18794389 -0.03609555 12.92247152 -0.04274235 14.65699768 -0.04974365 C19.37400994 -0.06715179 24.09101207 -0.07770464 28.80804849 -0.08594918 C31.75444162 -0.09109914 34.70083161 -0.09717483 37.64722252 -0.10346031 C46.86402481 -0.12251083 56.08081909 -0.13674296 65.29763728 -0.14507228 C75.94044639 -0.15484891 86.58304776 -0.18118014 97.22578365 -0.22157317 C105.45007547 -0.25171748 113.67430768 -0.2665395 121.89865369 -0.26985329 C126.81174412 -0.27220544 131.72461258 -0.2811875 136.63764381 -0.30631447 C141.25959937 -0.32957112 145.8811864 -0.33383815 150.50318527 -0.32355309 C152.19870287 -0.32305705 153.89423847 -0.32939747 155.5897007 -0.34310913 C157.9065967 -0.36079688 160.22216559 -0.35373847 162.5390625 -0.34057617 C163.83489415 -0.34296453 165.1307258 -0.34535288 166.46582508 -0.34781361 C170.57698884 0.23457251 172.75073122 1.56053096 175.96000671 4.14717102 C177.70222382 7.63160524 177.54675826 11.34604147 176.96000671 15.14717102 C175.25748952 18.22186625 173.14774163 20.55330356 169.96000671 22.14717102 C167.64260608 22.25268554 165.32208437 22.29115057 163.00230408 22.30107117 C162.2779563 22.30545342 161.55360853 22.30983567 160.80731082 22.31435072 C158.36764698 22.32776009 155.92801928 22.33392237 153.48832703 22.34004211 C151.74409318 22.34794141 149.99986097 22.35621026 148.25563049 22.36482239 C142.51648016 22.3910629 136.77732245 22.40635226 131.03813171 22.42060852 C129.06391647 22.42596741 127.08970128 22.43134491 125.11548615 22.43674088 C116.90421812 22.45837276 108.69295207 22.47711004 100.48166275 22.48836327 C88.70653629 22.50460561 76.93173967 22.53778679 65.15673757 22.59476411 C56.88151264 22.63344375 48.606376 22.65299363 40.33106303 22.65828383 C35.38660251 22.66194006 30.44249361 22.6739901 25.4981308 22.70638657 C20.84576528 22.73643233 16.19396478 22.74279156 11.54152298 22.73100281 C9.83470938 22.73078178 8.12786983 22.73911121 6.42114639 22.75665665 C4.08863169 22.77932847 1.75816929 22.77106485 -0.57435608 22.75517273 C-2.5311133 22.76013795 -2.5311133 22.76013795 -4.52740097 22.76520348 C-9.14133375 21.95339273 -10.75139575 20.42449645 -14.03999329 17.14717102 C-15.65540201 13.91635357 -15.62962078 10.63958004 -15.03999329 7.14717102 C-11.4046615 0.59234497 -7.03190895 0.02321057 0 0 Z " fill="#000000" transform="translate(47.03999328613281,52.85282897949219)"/>
<path d="M0 0 C1.41937866 -0.01073296 1.41937866 -0.01073296 2.86743164 -0.02168274 C3.903853 -0.02437164 4.94027435 -0.02706055 6.00810242 -0.02983093 C7.10105621 -0.03640213 8.19401001 -0.04297333 9.32008362 -0.04974365 C12.94354823 -0.06948409 16.56697141 -0.08114019 20.19047546 -0.09111023 C21.42691488 -0.09518576 22.6633543 -0.09926128 23.93726158 -0.10346031 C29.80521745 -0.12217154 35.67315701 -0.13673749 41.54113704 -0.14507228 C48.30812515 -0.15484355 55.07478606 -0.18116284 61.84165889 -0.22157317 C67.70800604 -0.25540017 73.57424363 -0.26721953 79.44067955 -0.27127647 C81.93376575 -0.27615239 84.4268482 -0.28779477 86.91987038 -0.30631447 C90.40788058 -0.33061748 93.89503377 -0.32975669 97.38310242 -0.32279968 C98.92862541 -0.34201477 98.92862541 -0.34201477 100.50537109 -0.36161804 C106.43457427 -0.31849372 109.88370237 0.17053281 114.38969421 4.14717102 C116.13191132 7.63160524 115.97644576 11.34604147 115.38969421 15.14717102 C113.68717702 18.22186625 111.57742913 20.55330356 108.38969421 22.14717102 C106.8829818 22.24989264 105.37185506 22.2909451 103.86167908 22.30107117 C102.43174118 22.31397186 102.43174118 22.31397186 100.97291565 22.32713318 C99.92354828 22.33139313 98.87418091 22.33565308 97.79301453 22.34004211 C96.13917252 22.35230835 96.13917252 22.35230835 94.45191956 22.36482239 C90.79055836 22.38970539 87.129236 22.40619983 83.46781921 22.42060852 C82.21943016 22.4259322 80.97104111 22.43125587 79.68482208 22.43674088 C74.43823712 22.45797668 69.19165801 22.47710623 63.94504166 22.48836327 C56.42986925 22.50459427 48.91521456 22.53774902 41.40023732 22.59476411 C35.47678344 22.63816919 29.55344479 22.65411201 23.62982941 22.66049576 C21.11160853 22.66722037 18.59339555 22.68247354 16.07527924 22.70638657 C12.55110197 22.73794406 9.02823303 22.7380882 5.50395203 22.73066711 C3.94204636 22.75527512 3.94204636 22.75527512 2.34858704 22.78038025 C-2.2551819 22.74067725 -5.56699917 22.69849127 -9.2424469 19.73570251 C-12.47533268 16.20152795 -13.00978634 14.08513625 -12.96577454 9.25263977 C-12.33077351 5.49147987 -10.3340826 3.74426054 -7.61030579 1.14717102 C-4.75500002 0.19540243 -2.96313184 0.01539107 0 0 Z " fill="#000000" transform="translate(44.61030578613281,116.85282897949219)"/>
<path d="M0 0 C1.77247856 -0.02409439 1.77247856 -0.02409439 3.58076477 -0.04867554 C8.97995466 -0.09313222 14.37899986 -0.13461927 19.77832031 -0.15722656 C22.62728004 -0.17056188 25.4755228 -0.19840927 28.32421875 -0.23925781 C32.43005414 -0.29812447 36.53512198 -0.31589348 40.64135742 -0.33056641 C41.9134053 -0.35323578 43.18545319 -0.37590515 44.49604797 -0.39926147 C54.34434237 -0.37569688 54.34434237 -0.37569688 58.03466797 2.60058594 C61.4659957 6.62153703 61.60500494 8.90973421 61.24682617 14.19287109 C59.42100617 18.42108583 57.3157333 20.15048938 53.24682617 22.19287109 C50.40809631 22.58728027 50.40809631 22.58728027 47.26660156 22.61279297 C46.08510025 22.62870483 44.90359894 22.6446167 43.68629456 22.66101074 C42.41849655 22.66121216 41.15069855 22.66141357 39.84448242 22.66162109 C37.87879555 22.67304138 37.87879555 22.67304138 35.87339783 22.68469238 C33.1036624 22.69811361 30.3342119 22.6997167 27.56445312 22.69384766 C24.02563598 22.68795217 20.48819113 22.71854447 16.94963932 22.75896454 C13.56037761 22.79112193 10.1713961 22.78672521 6.78198242 22.78662109 C4.88332176 22.81121399 4.88332176 22.81121399 2.94630432 22.83630371 C-6.843058 22.75940854 -6.843058 22.75940854 -10.53662109 19.78076172 C-13.58712724 16.21920591 -14.15180926 14.03804153 -14.10864258 9.29833984 C-13.47364156 5.53717994 -11.47695064 3.78996061 -8.75317383 1.19287109 C-5.60017901 0.14187282 -3.31222947 0.04091367 0 0 Z " fill="#000000" transform="translate(45.753173828125,180.80712890625)"/>
</svg>
