<?xml version="1.0" encoding="UTF-8"?>
<svg version="1.1" xmlns="http://www.w3.org/2000/svg" width="430" height="448" viewBox="0 0 430 448">
<path d="M0 0 C2.39606537 2.02168016 3.82122537 3.73174335 4.40625 6.859375 C4.64845624 13.52004659 3.14582231 18.35867224 0.49511719 24.43676758 C-1.81903791 29.8845052 -3.37995678 35.37092343 -4.75 41.125 C-4.94811279 41.93372559 -5.14622559 42.74245117 -5.3503418 43.57568359 C-8.57792977 57.59728532 -9.38155107 71.54911786 -9.3125 85.875 C-9.31034485 86.68454132 -9.3081897 87.49408264 -9.30596924 88.32815552 C-9.25208559 100.97726339 -8.77319813 113.29905338 -6 125.6875 C-5.80132324 126.57888672 -5.60264648 127.47027344 -5.39794922 128.38867188 C-0.07755439 151.36002454 9.44526616 172.79054756 25 190.6875 C25.70898438 191.51765625 26.41796875 192.3478125 27.1484375 193.203125 C52.71743308 222.45046731 91.12560793 237.9756283 129.45776367 240.87329102 C155.50475742 242.50167779 183.83221141 242.2757892 208.3125 231.9375 C214.0019541 230.00887149 219.4251038 229.56098291 225 232 C227.75575184 234.32516562 228.88940771 236.27065216 229.8125 239.75 C230.24345663 248.80008926 225.68489134 256.98758436 221.5625 264.8125 C221.035354 265.81514893 220.50820801 266.81779785 219.96508789 267.85083008 C206.76136242 292.34739601 186.2021538 313.5232352 163 328.6875 C162.0409375 329.34363281 161.081875 329.99976563 160.09375 330.67578125 C137.99143423 345.18769647 111.12145857 353.52163734 85 356.6875 C84.2877124 356.7803125 83.5754248 356.873125 82.84155273 356.96875 C74.85462892 357.9029907 66.84343595 357.92997947 58.8125 357.9375 C58.06388702 357.93850708 57.31527405 357.93951416 56.54397583 357.94055176 C7.24135846 357.89590846 -37.85144776 341.37021828 -74.375 308.125 C-75.22421021 307.35567139 -75.22421021 307.35567139 -76.09057617 306.57080078 C-77.43520735 305.31952043 -78.72365785 304.00836571 -80 302.6875 C-80 302.0275 -80 301.3675 -80 300.6875 C-80.66 300.6875 -81.32 300.6875 -82 300.6875 C-83.81404051 298.59969881 -85.51110297 296.5070459 -87.1875 294.3125 C-87.68362793 293.66909668 -88.17975586 293.02569336 -88.69091797 292.36279297 C-90.13650813 290.47783372 -91.57039793 288.58460227 -93 286.6875 C-93.64839844 285.8315625 -94.29679687 284.975625 -94.96484375 284.09375 C-111.57110571 261.27479238 -121.47350807 234.37265629 -126 206.6875 C-126.11859375 205.98286621 -126.2371875 205.27823242 -126.359375 204.55224609 C-131.64449343 171.68541585 -127.58218996 138.03474197 -117 106.6875 C-116.76587402 105.98802246 -116.53174805 105.28854492 -116.29052734 104.56787109 C-110.60655788 88.05082464 -101.99115583 71.27848693 -91 57.6875 C-90.19442469 56.61328695 -89.39258079 55.53626924 -88.59375 54.45703125 C-73.50749853 34.30050837 -29.09293102 -12.72815732 0 0 Z " fill="#000000" transform="translate(128,90.3125)"/>
<path d="M0 0 C5.4304329 0.25111828 5.4304329 0.25111828 7.61938477 1.65454102 C9.63600661 4.5610965 9.93331024 7.69464488 10.4296875 11.12109375 C10.54913223 11.8652504 10.66857697 12.60940704 10.79164124 13.37611389 C11.17348294 15.75950025 11.53953334 18.14489765 11.90234375 20.53125 C14.66081709 42.58181977 14.66081709 42.58181977 26.94140625 60.23828125 C36.63257249 66.81561916 48.92369553 68.80896522 60.21484375 71.0625 C61.47312988 71.31708984 62.73141602 71.57167969 64.02783203 71.83398438 C66.53796024 72.33427379 69.05202291 72.81527142 71.56982422 73.27539062 C73.3083667 73.61860352 73.3083667 73.61860352 75.08203125 73.96875 C76.63833252 74.25878906 76.63833252 74.25878906 78.22607422 74.5546875 C81.71583941 75.87867044 83.00725579 77.45319707 84.96484375 80.59375 C85.02734375 84.21875 85.02734375 84.21875 83.96484375 87.59375 C80.1364881 90.52526236 76.48942332 91.26293937 71.78515625 92.0234375 C70.36588324 92.26431008 68.94661248 92.50519595 67.52734375 92.74609375 C65.32572571 93.10672034 63.12350451 93.46333185 60.92089844 93.81787109 C42.8860779 96.47894969 42.8860779 96.47894969 26.96484375 104.59375 C26.30484375 104.59375 25.64484375 104.59375 24.96484375 104.59375 C24.96484375 105.25375 24.96484375 105.91375 24.96484375 106.59375 C24.30484375 106.59375 23.64484375 106.59375 22.96484375 106.59375 C22.68382812 107.1609375 22.4028125 107.728125 22.11328125 108.3125 C21.37265066 109.78368458 20.60851626 111.24338107 19.81640625 112.6875 C13.56044719 124.96033687 11.83203643 139.434027 10.7355957 153.03759766 C10.32489738 157.47491313 9.27559482 160.77899386 6.96484375 164.59375 C4.15568901 165.99832737 2.07673841 165.84270157 -1.03515625 165.59375 C-4.01470537 164.00428792 -4.89127499 163.03841752 -5.94140625 159.79296875 C-6.13734375 158.63410156 -6.33328125 157.47523438 -6.53515625 156.28125 C-6.65060791 155.63897461 -6.76605957 154.99669922 -6.88500977 154.33496094 C-7.28557405 152.09054181 -7.661304 149.84276883 -8.03515625 147.59375 C-10.94820593 124.51378028 -10.94820593 124.51378028 -23.16015625 105.59375 C-35.30614545 97.14436621 -51.56771411 95.2474343 -65.84033203 92.7734375 C-67.08669434 92.5465625 -68.33305664 92.3196875 -69.6171875 92.0859375 C-71.29131714 91.79759033 -71.29131714 91.79759033 -72.99926758 91.50341797 C-76.48909876 90.45773152 -78.4612323 89.15736765 -81.03515625 86.59375 C-81.59765625 83.09375 -81.59765625 83.09375 -81.03515625 79.59375 C-77.99487493 75.61574336 -75.24957956 74.86945077 -70.41015625 74.03125 C-69.76062988 73.91322021 -69.11110352 73.79519043 -68.44189453 73.67358398 C-64.80441213 73.02314186 -61.15464786 72.45324088 -57.50390625 71.8828125 C-35.08626538 68.7350698 -35.08626538 68.7350698 -17.66015625 55.53125 C-11.2437697 44.34067198 -9.88808064 31.49039944 -8.25341797 18.92871094 C-7.97560468 16.82533551 -7.67828007 14.72539867 -7.37890625 12.625 C-7.21583984 11.39330078 -7.05277344 10.16160156 -6.88476562 8.89257812 C-5.84761931 4.86558935 -4.23468998 1.23545658 0 0 Z " fill="#000000" transform="translate(345.03515625,84.40625)"/>
<path d="M0 0 C2.5625 0.4375 2.5625 0.4375 4.0703125 2.2890625 C6.60031373 7.62723264 7.42990643 13.39185411 8.58007812 19.15820312 C10.03598748 26.06081544 11.71445073 32.42191842 16.6875 37.6875 C24.06239994 42.17656953 32.1952009 44.25848658 40.5625 46.0625 C42.41812587 46.46467954 44.27238717 46.87322423 46.125 47.2890625 C47.33349609 47.54937256 47.33349609 47.54937256 48.56640625 47.81494141 C50.5625 48.4375 50.5625 48.4375 52.5625 50.4375 C52.8125 52.9375 52.8125 52.9375 52.5625 55.4375 C50.10085226 57.89914774 48.55889263 58.06633201 45.1796875 58.8046875 C44.09429687 59.05089844 43.00890625 59.29710937 41.890625 59.55078125 C39.61253362 60.05330141 37.33389671 60.55335568 35.0546875 61.05078125 C22.9350458 63.7466711 22.9350458 63.7466711 13.64453125 71.5859375 C9.09625352 79.36891095 7.59756741 88.31434853 5.95678711 97.06323242 C5.80346924 97.85834229 5.65015137 98.65345215 5.4921875 99.47265625 C5.36054199 100.1881665 5.22889648 100.90367676 5.09326172 101.64086914 C4.5625 103.4375 4.5625 103.4375 2.5625 105.4375 C0.125 105.875 0.125 105.875 -2.4375 105.4375 C-6.4982775 100.35626805 -7.14186849 93.6482757 -8.45507812 87.44921875 C-11.03850262 75.60145305 -11.03850262 75.60145305 -18.515625 66.484375 C-26.45760861 62.15825385 -35.68227504 60.58660375 -44.46972656 58.83178711 C-50.22879312 57.64620688 -50.22879312 57.64620688 -52.4375 55.4375 C-52.8125 53 -52.8125 53 -52.4375 50.4375 C-49.4903187 47.67309628 -46.80566969 46.83989288 -42.89453125 46.04296875 C-41.82009766 45.80900391 -40.74566406 45.57503906 -39.63867188 45.33398438 C-37.40060649 44.86573208 -35.16102737 44.4046507 -32.91992188 43.95117188 C-25.24490331 42.26239319 -18.10959085 40.17727101 -13.10913086 33.72290039 C-9.83487074 27.87386369 -8.7273865 21.04552491 -7.3125 14.5625 C-6.81643074 12.31365268 -6.31413885 10.06616608 -5.8046875 7.8203125 C-5.58925293 6.83434082 -5.37381836 5.84836914 -5.15185547 4.83251953 C-4.19120553 1.61174855 -3.33907209 0.59932063 0 0 Z " fill="#000000" transform="translate(244.4375,-0.4375)"/>
</svg>
