<?xml version="1.0" encoding="UTF-8"?>
<svg version="1.1" xmlns="http://www.w3.org/2000/svg" width="256" height="256" viewBox="0 0 256 256">
<path d="M0 0 C3.96 0 7.92 0 12 0 C13.7148681 4.92758532 15.42370025 9.85720608 17.12695312 14.78881836 C17.70732517 16.4664766 18.28934749 18.14356488 18.87304688 19.82006836 C19.71137224 22.22882807 20.54375694 24.63956978 21.375 27.05078125 C21.63748535 27.80087967 21.8999707 28.55097809 22.17041016 29.32380676 C23.20420273 32.33806007 24 34.78955964 24 38 C24.66 38 25.32 38 26 38 C26.22429688 36.82566406 26.44859375 35.65132812 26.6796875 34.44140625 C28.23861224 27.42624491 30.74294387 20.7048933 33.125 13.9375 C33.5981182 12.5815413 34.07077806 11.22542259 34.54296875 9.86914062 C35.69003678 6.57756639 36.84328344 3.28819785 38 0 C41.96 0 45.92 0 50 0 C52.24029259 18.73955439 54.22073562 37.11484125 54 56 C50.7 56 47.4 56 44 56 C43.01 43.13 42.02 30.26 41 17 C37.09408618 29.08610841 37.09408618 29.08610841 33.19165039 41.17333984 C32.70211199 42.68591328 32.2124554 44.19844848 31.72265625 45.7109375 C31.46867065 46.49960205 31.21468506 47.2882666 30.95300293 48.10083008 C29.1140718 53.7718564 29.1140718 53.7718564 28 56 C25.36 56 22.72 56 20 56 C19.71278076 55.13310547 19.42556152 54.26621094 19.12963867 53.37304688 C18.0517778 50.1223071 16.97251515 46.87203948 15.89233398 43.62207031 C15.42726289 42.2218632 14.96273301 40.82147619 14.4987793 39.42089844 C13.82747237 37.39469324 13.15414844 35.36916735 12.48046875 33.34375 C12.07723389 32.12880859 11.67399902 30.91386719 11.25854492 29.66210938 C9.91351423 25.74834404 8.45310249 21.87493998 7 18 C6.34 30.54 5.68 43.08 5 56 C2.03 56 -0.94 56 -4 56 C-4.42439683 43.20522141 -3.69931812 30.61103818 -2.5625 17.875 C-2.49501556 17.10577209 -2.42753113 16.33654419 -2.35800171 15.54400635 C-1.19124247 2.38248493 -1.19124247 2.38248493 0 0 Z " fill="#000000" transform="translate(12,139)"/>
<path d="M0 0 C7.03394566 6.87036552 8.30201078 14.33282813 8.4375 23.875 C8.39998486 33.49368516 6.05583478 40.81505258 1 49 C3.64 50.32 6.28 51.64 9 53 C8.45276317 56.37462715 7.9451 58.08235 6 61 C2.61165479 59.72340515 -0.38180643 58.20106541 -3.5 56.375 C-8.81519399 53.63783423 -13.20461236 53.77641104 -19.078125 54.00390625 C-24.11724272 53.99716946 -26.76073336 51.94420315 -30.625 49 C-37.93907923 39.76116308 -38.25479873 28.29847191 -37 17 C-35.57829869 10.33244895 -33.42959002 5.34367202 -28 1 C-27.401875 0.443125 -26.80375 -0.11375 -26.1875 -0.6875 C-18.26976149 -5.4381431 -7.63565445 -5.14962742 0 0 Z M-23 7 C-28.44095166 16.133026 -28.23266872 26.96576068 -25.8125 37.125 C-24.80995052 40.2476197 -23.95755867 42.05530233 -21.9375 44.6875 C-17.58157081 46.63376623 -13.67773058 47.00786629 -9 46 C-3.73470658 41.50256187 -2.29740494 36.16770843 -1.6640625 29.421875 C-1.58053794 21.57056662 -1.70280004 13.845969 -6 7 C-11.6168154 2.89366475 -17.48262894 2.40219078 -23 7 Z " fill="#000000" transform="translate(187,142)"/>
<path d="M0 0 C1.984375 1.11328125 1.984375 1.11328125 3.875 2.4375 C7.04648033 4.65001494 9.4189814 5.38651769 13.25 5.875 C25.55427684 7.77579863 35.40936835 16.55077987 43 26 C46.99489799 31.83976408 50.17201855 37.93951715 52.87890625 44.45703125 C57.4518365 55.43080902 57.4518365 55.43080902 67.25 61.8125 C73.39303769 64.46517536 78.37136045 69.25745656 83 74 C82.505 75.485 82.505 75.485 82 77 C79.27734375 77.94921875 79.27734375 77.94921875 75.9375 78.6875 C74.83277344 78.93886719 73.72804688 79.19023438 72.58984375 79.44921875 C71.73519531 79.63097656 70.88054687 79.81273438 70 80 C70.97839844 80.65355469 70.97839844 80.65355469 71.9765625 81.3203125 C77.17124076 84.86004901 81.72601555 88.38859572 86 93 C85.505 94.485 85.505 94.485 85 96 C81.64960219 94.02753198 78.32032244 92.02267209 75 90 C74.16597656 89.49726563 73.33195312 88.99453125 72.47265625 88.4765625 C67.71776213 85.48596354 64.70968525 82.94812089 62 78 C63 76 63 76 65.625 74.9375 C69.08083902 73.97754472 72.44209512 73.42694859 76 73 C68.37510078 67.79436603 68.37510078 67.79436603 59.8125 64.5625 C54.78728634 62.70985003 53.02552315 59.24983052 50.8125 54.625 C49.49545718 51.76912747 48.24486565 48.88787597 47 46 C40.61187161 31.77254255 31.86400285 18.9593281 17 12.6875 C13.01781964 11.22364554 9.04129601 10.31540829 4.88671875 9.49609375 C2.45345657 8.85629189 0.97532089 7.52928069 -1 6 C-2.36088593 5.5901751 -3.73710923 5.22959784 -5.12109375 4.90625 C-6.40113281 4.6071875 -7.68117187 4.308125 -9 4 C-8.39671875 4.95519531 -7.7934375 5.91039062 -7.171875 6.89453125 C-2.94371242 13.6980854 0.70990232 20.09462396 3.15625 27.7734375 C3.95679582 30.25625593 3.95679582 30.25625593 6.3125 32.75 C8 35 8 35 7.8125 38.625 C7 42 7 42 6 45 C5.46475285 52.04055861 5.59081902 57.74983486 9 64 C9.19335938 63.31292969 9.38671875 62.62585938 9.5859375 61.91796875 C9.84632813 61.01691406 10.10671875 60.11585937 10.375 59.1875 C10.63023437 58.29417969 10.88546875 57.40085938 11.1484375 56.48046875 C12 54 12 54 14 51 C17 52 17 52 18.8671875 55.38671875 C19.54636144 56.81564746 20.21523074 58.24950869 20.875 59.6875 C22.83327811 63.94075621 24.68246639 67.82830008 27.7578125 71.39453125 C30 74 30 74 30 76 C30.66 76 31.32 76 32 76 C31.67 76.66 31.34 77.32 31 78 C18.98257081 67.96514161 18.98257081 67.96514161 16 62 C15.5875 63.134375 15.175 64.26875 14.75 65.4375 C13 69 13 69 11.125 70.25 C8.3923897 69.92851644 6.9915507 68.80311189 5.171875 66.78125 C1.41290414 61.06761429 0.15780924 53.72476564 1 47 C1.43379485 45.35318622 1.87149508 43.70739765 2.3125 42.0625 C3.19082393 38.03940787 2.94300595 36.06401026 0.875 32.5 C0.39675781 31.7678125 -0.08148438 31.035625 -0.57421875 30.28125 C-2.05854959 27.90632066 -2.98422113 25.62861577 -3.9375 23 C-5.62887793 18.54280324 -7.89833651 14.92705478 -10.73046875 11.10546875 C-12.17946997 8.70235596 -12.68065727 6.77828178 -13 4 C-10.68361227 -2.41461218 -5.7780202 -1.38858873 0 0 Z " fill="#000000" transform="translate(162,47)"/>
<path d="M0 0 C1.02222656 0.15984375 2.04445312 0.3196875 3.09765625 0.484375 C6.02530191 1.27367149 7.67272013 2.27306985 9.9375 4.25 C9.2775 5.9 8.6175 7.55 7.9375 9.25 C7.133125 9.085 6.32875 8.92 5.5 8.75 C-2.32686154 7.51658744 -2.32686154 7.51658744 -9.625 9.75 C-10.099375 10.245 -10.57375 10.74 -11.0625 11.25 C-11.04087124 14.61108108 -11.04087124 14.61108108 -10.0625 18.25 C-7.41584542 20.61118273 -7.41584542 20.61118273 -4 22.3125 C-2.81357762 22.9842903 -1.62867754 23.65877617 -0.4453125 24.3359375 C0.67101562 24.96757812 1.78734375 25.59921875 2.9375 26.25 C10.09801302 30.88583366 10.09801302 30.88583366 12.4375 34.6875 C13.62030787 40.74939036 13.25861128 44.98203038 9.9375 50.25 C5.92582594 55.02063943 2.65440807 56.86892898 -3.5390625 57.50390625 C-10.52413203 57.80888816 -15.80870143 56.28872208 -22.0625 53.25 C-21.6875 50.3125 -21.6875 50.3125 -21.0625 47.25 C-20.0725 46.755 -20.0725 46.755 -19.0625 46.25 C-18.010625 46.683125 -18.010625 46.683125 -16.9375 47.125 C-12.32321027 48.93059163 -8.0098476 49.80033736 -3.1875 48.4375 C-0.93787465 47.30692296 -0.93787465 47.30692296 0.9375 45.25 C1.51030344 41.5676922 1.38058281 39.86715105 -0.8125 36.8125 C-4.4817884 33.53333709 -8.97919033 31.36294274 -13.23828125 28.953125 C-17.51995631 26.37109135 -20.4413628 24.11341161 -22.0625 19.25 C-22.59745732 14.6458591 -22.49614314 11.16932346 -20.5 6.9375 C-14.76815545 0.61777395 -8.35577661 -1.39439003 0 0 Z " fill="#000000" transform="translate(134.0625,138.75)"/>
<path d="M0 0 C3.3 0 6.6 0 10 0 C11.12688693 3.35354319 12.25156566 6.70780024 13.375 10.0625 C13.69210938 11.00544922 14.00921875 11.94839844 14.3359375 12.91992188 C16.00831533 17.91963476 17.60383909 22.91599992 19 28 C21.39269355 24.41095967 22.13187655 20.89003589 23.0625 16.75 C23.32256836 15.64205078 23.32256836 15.64205078 23.58789062 14.51171875 C24.39105875 11.02209172 25.09333791 7.56716859 25.55859375 4.015625 C26 1 26 1 27 0 C30.00003445 -0.14177857 32.99757235 -0.04228771 36 0 C35.43931535 6.10724253 34.48803452 11.79214909 32.8125 17.6875 C32.59327881 18.46279053 32.37405762 19.23808105 32.14819336 20.03686523 C28.66404229 31.95298009 24.07949243 47.07531723 13 54 C7.92948455 56.36624054 4.3573733 55.92368505 -1 55 C-1 53.02 -1 51.04 -1 49 C-0.30132812 48.89042969 0.39734375 48.78085938 1.1171875 48.66796875 C2.02726562 48.50941406 2.93734375 48.35085937 3.875 48.1875 C4.77992187 48.03667969 5.68484375 47.88585937 6.6171875 47.73046875 C9.34412478 47.16948699 9.34412478 47.16948699 11 44 C11.44496388 38.05689201 10.52490583 33.43883635 8.59375 27.8515625 C8.34959351 27.1129599 8.10543701 26.3743573 7.85388184 25.6133728 C7.0803742 23.28002813 6.29094873 20.95248365 5.5 18.625 C4.71223118 16.27515146 3.92781777 13.92423139 3.14611816 11.57235718 C2.66067151 10.1152363 2.17114019 8.65946857 1.67712402 7.20523071 C0 2.21918425 0 2.21918425 0 0 Z " fill="#000000" transform="translate(70,154)"/>
<path d="M0 0 C3.3 0 6.6 0 10 0 C10 16.17 10 32.34 10 49 C15.94 49 21.88 49 28 49 C28 50.98 28 52.96 28 55 C27.67 55.33 27.34 55.66 27 56 C18.09 56 9.18 56 0 56 C0 37.52 0 19.04 0 0 Z " fill="#000000" transform="translate(202,139)"/>
<path d="M0 0 C1.65 0 3.3 0 5 0 C5.625 2.375 5.625 2.375 6 5 C5.34 5.66 4.68 6.32 4 7 C2.02 3.535 2.02 3.535 0 0 Z " fill="#000000" transform="translate(169,63)"/>
</svg>
