<?xml version="1.0" encoding="UTF-8"?>
<svg version="1.1" xmlns="http://www.w3.org/2000/svg" width="428.55" height="428.47" viewBox="0 0 428.55 428.47">
<path d="M0 0 C1.71765192 -0.00135196 3.43530347 -0.00329688 5.1529541 -0.00579834 C8.72977387 -0.00872465 12.30649285 -0.00453315 15.88330078 0.00488281 C20.42838824 0.01627579 24.97323935 0.00970282 29.51831818 -0.00226212 C33.05830613 -0.00954864 36.59823963 -0.00716191 40.13822937 -0.00200653 C41.81247487 -0.00068873 43.48672559 -0.00225074 45.16096497 -0.00696564 C62.86146309 -0.04589479 79.29167474 0.43599493 92.84375 13.265625 C97.60469744 18.45307398 100.42273085 24.2824769 102.8984375 30.81640625 C103.19254517 31.58288483 103.48665283 32.3493634 103.78967285 33.1390686 C108.22299199 44.77900308 112.42421254 56.50639428 116.65118408 68.22241211 C117.57188193 70.77248631 118.49496324 73.32169481 119.41804504 75.87090683 C123.62583526 87.49257944 127.81972693 99.11951936 131.9375 110.7734375 C132.22266479 111.57353241 132.50782959 112.37362732 132.80163574 113.19796753 C137.2160551 125.77121055 137.17489772 137.88095876 131.84375 150.265625 C130.10367231 153.21660607 128.15481793 155.74336287 125.84375 158.265625 C125.06 159.131875 124.27625 159.998125 123.46875 160.890625 C117.3050463 166.4673093 110.45575434 170.87805563 103.34375 175.140625 C102.52132812 175.63820312 101.69890625 176.13578125 100.8515625 176.6484375 C98.85120247 177.85795752 96.84862025 179.06360132 94.84375 180.265625 C110.91834166 206.31571447 129.34031923 230.52000974 153.84375 249.265625 C154.43236816 249.72533691 155.02098633 250.18504883 155.62744141 250.65869141 C164.96934732 257.95149686 174.54338332 264.40507154 184.84375 270.265625 C185.34003906 269.45480469 185.83632813 268.64398438 186.34765625 267.80859375 C189.73964829 262.27971109 193.14043003 256.75647866 196.59375 251.265625 C197.12484375 250.42 197.6559375 249.574375 198.203125 248.703125 C204.67022078 239.09486841 214.12369539 232.03443509 225.609375 229.5859375 C242.08688643 227.22377677 257.82621277 233.7111966 272.96875 239.453125 C274.58449419 240.05932322 276.20055139 240.66468773 277.81689453 241.26928711 C280.39294298 242.23295743 282.96872087 243.19729308 285.54330444 244.16487122 C292.43446702 246.75169064 299.34681882 249.27724998 306.265625 251.7890625 C309.39347073 252.92885886 312.52098817 254.06955096 315.64837646 255.21060181 C317.68106343 255.95043844 319.71478495 256.68743934 321.74957275 257.42147827 C324.61486477 258.45609981 327.47572456 259.50221432 330.3359375 260.55078125 C331.1802533 260.8524118 332.02456909 261.15404236 332.89447021 261.46481323 C346.0349778 266.32067015 355.34422377 274.26657254 361.65234375 286.8828125 C365.51230138 297.84256105 365.13879573 309.08890142 365.109375 320.546875 C365.11072521 322.41052297 365.1126687 324.2741706 365.11517334 326.13781738 C365.11810786 330.02762229 365.11388109 333.91733481 365.10449219 337.80712891 C365.09309871 342.76624152 365.09966718 347.72513756 365.11163712 352.68424225 C365.11890107 356.52778727 365.11654706 360.37128186 365.11138153 364.21482849 C365.11005755 366.0422722 365.11164831 367.86972065 365.11634064 369.69715881 C365.16469224 393.81410212 365.16469224 393.81410212 359.96875 403.640625 C359.47632813 404.59710938 358.98390625 405.55359375 358.4765625 406.5390625 C353.31665474 415.15536781 345.0520559 422.03565041 335.2734375 424.75 C320.68166525 427.8466462 305.97119344 428.47651108 291.09375 428.453125 C290.37620544 428.45252075 289.65866089 428.4519165 288.91937256 428.45129395 C212.60245779 428.27837839 137.5750401 403.68849597 76.84375 357.265625 C76.25255371 356.81864258 75.66135742 356.37166016 75.05224609 355.91113281 C67.23181543 349.98662876 59.88636518 343.71581655 52.75 336.984375 C50.36995195 334.75787844 47.95561315 332.61989382 45.46875 330.515625 C42.18324593 327.67971622 39.36395713 324.58507869 36.58203125 321.2578125 C34.44539882 318.8090877 32.15017321 316.55496359 29.84375 314.265625 C20.69356866 304.84632068 12.60039432 294.85530628 4.84375 284.265625 C4.27366211 283.49331543 3.70357422 282.72100586 3.11621094 281.92529297 C-6.40770356 268.95288123 -14.5829287 255.45801455 -22.15625 241.265625 C-22.63690918 240.37149902 -23.11756836 239.47737305 -23.61279297 238.55615234 C-54.6873052 180.25792176 -67.39443303 112.77308076 -62.34375 47.078125 C-62.27381836 46.1291333 -62.20388672 45.1801416 -62.13183594 44.20239258 C-60.92432829 30.75503896 -56.84032764 19.96759936 -46.984375 10.6015625 C-33.40391524 -0.61544708 -16.67487378 -0.04695887 0 0 Z M-18.15625 44.265625 C-18.76490846 50.96086807 -19.31903889 57.4214884 -19.359375 64.10546875 C-19.36643463 64.9016864 -19.37349426 65.69790405 -19.38076782 66.51824951 C-19.58156582 95.89610154 -16.87248137 123.57184558 -10.15625 152.265625 C-9.95805664 153.1230127 -9.75986328 153.98040039 -9.55566406 154.86376953 C1.68925156 202.318917 28.10463251 247.80968438 61.15234375 283.3515625 C63.61403257 286.01690337 66.01304775 288.72647835 68.40625 291.453125 C72.14736607 295.62027564 76.12568565 299.37760761 80.3359375 303.06640625 C81.94538831 304.47780937 83.53599727 305.91116355 85.1015625 307.37109375 C129.93515971 349.0891359 190.53421214 374.69714841 250.84375 382.265625 C251.52180695 382.35242523 252.19986389 382.43922546 252.89846802 382.52865601 C264.38680557 383.97040093 275.70509911 384.55884432 287.28051758 384.47143555 C289.80495182 384.45295145 292.32902 384.45092864 294.85351562 384.45117188 C296.50521143 384.44626114 298.15690482 384.44043478 299.80859375 384.43359375 C300.54013168 384.43248093 301.27166962 384.4313681 302.02537537 384.43022156 C308.37548699 384.37384237 314.45630246 383.7979123 320.84375 383.265625 C320.84375 357.195625 320.84375 331.125625 320.84375 304.265625 C312.8399868 300.93072367 304.90317889 297.75845157 296.74609375 294.8671875 C295.63174454 294.4691391 294.51739532 294.0710907 293.36927795 293.66098022 C289.84098754 292.40122116 286.31120901 291.1457 282.78125 289.890625 C279.28702609 288.64564866 275.79313585 287.39974963 272.29971313 286.15252686 C270.02916501 285.34272113 267.75783152 284.5351138 265.48568726 283.72979736 C260.31995818 281.8936835 255.174985 280.02558745 250.06689453 278.03417969 C249.18900772 277.69558929 248.31112091 277.3569989 247.40663147 277.00814819 C245.79243099 276.3815453 244.18296208 275.74255151 242.57957458 275.08877563 C238.59416335 273.49785053 238.59416335 273.49785053 234.44262695 273.93920898 C232.04508401 275.92819216 230.93275505 278.20728748 229.46875 280.953125 C228.77774592 282.20869049 228.08347376 283.4624605 227.38671875 284.71484375 C226.99403809 285.42302246 226.60135742 286.13120117 226.19677734 286.86083984 C223.46918917 291.70868241 220.63303906 296.49010592 217.78125 301.265625 C217.20391113 302.25651123 216.62657227 303.24739746 216.03173828 304.26831055 C211.58424357 311.68185195 207.2546592 317.44124232 198.84375 320.265625 C190.20883671 321.56345086 183.75138278 319.08367671 176.15625 315.203125 C175.08334717 314.67017822 174.01044434 314.13723145 172.9050293 313.58813477 C156.46216167 305.23759364 140.50353998 295.51381769 126.40185547 283.57958984 C124.82729825 282.25175109 123.23058014 280.95509585 121.62890625 279.66015625 C106.35499122 267.13388205 91.64926506 252.9585699 80.05322266 236.92382812 C78.78619835 235.18672091 77.48140463 233.48348553 76.16796875 231.78125 C64.93644749 217.077335 55.64993699 201.02541441 47.84375 184.265625 C47.286875 183.07453125 46.73 181.8834375 46.15625 180.65625 C44.02452812 175.1493018 43.85516096 169.6903799 45.5 163.9921875 C48.97876551 156.16496511 56.21295321 151.76191502 63.38671875 147.62890625 C64.42304192 147.01972603 64.42304192 147.01972603 65.4803009 146.39823914 C67.66015366 145.11824542 69.84532126 143.84770932 72.03125 142.578125 C74.22690006 141.29622412 76.42134088 140.01231658 78.61433411 138.72587585 C79.97153851 137.93040617 81.33041694 137.13778355 82.69120789 136.34846497 C85.89298295 134.47849889 88.90293855 132.5194513 91.84375 130.265625 C89.72046399 122.88614939 87.27611372 115.65738348 84.67578125 108.43359375 C84.27727463 107.32115799 83.87876801 106.20872223 83.46818542 105.06257629 C82.62645026 102.71485046 81.78343575 100.36758297 80.93920898 98.02075195 C79.67408 94.50270631 78.41386887 90.98292909 77.15429688 87.46289062 C69.83792441 65.51884127 69.83792441 65.51884127 60.84375 44.265625 C34.77375 44.265625 8.70375 44.265625 -18.15625 44.265625 Z " fill="#000000" transform="translate(63,0)"/>
</svg>
