<?xml version="1.0" encoding="UTF-8"?>
<svg version="1.1" xmlns="http://www.w3.org/2000/svg" width="256" height="256" viewBox="0 0 256 256">
<path d="M0 0 C9.57080661 10.3402244 14.85462742 20.45452018 14.37109375 34.7265625 C13.05412726 46.63356879 6.58501932 55.18825572 -2.0078125 63.15234375 C-2.48734375 63.64863281 -2.966875 64.14492187 -3.4609375 64.65625 C-14.67418557 75.54118224 -30.25887495 81.75764134 -45.0078125 86.15234375 C-45.75111816 86.37760742 -46.49442383 86.60287109 -47.26025391 86.83496094 C-94.48648845 100.90149606 -149.19990325 98.19087113 -193.2734375 75.46875 C-208.68871367 66.91129541 -220.3460707 56.13756914 -226.0078125 39.15234375 C-227.09864659 24.56020254 -224.08175051 14.43146369 -214.6953125 3.15625 C-194.20037675 -20.31777106 -156.70714253 -29.50059673 -127.0078125 -31.84765625 C-126.30092285 -31.90791992 -125.5940332 -31.96818359 -124.86572266 -32.03027344 C-83.89259302 -35.39939308 -31.26796698 -29.79306288 0 0 Z M-120.0078125 -12.84765625 C-121.44700798 -5.50309654 -122.88221789 1.84222063 -124.31047821 9.1889143 C-124.97387834 12.60047217 -125.6390001 16.01167525 -126.30810547 19.42211914 C-127.07777008 23.34551965 -127.83985597 27.27035915 -128.6015625 31.1953125 C-128.84217407 32.41631149 -129.08278564 33.63731049 -129.33068848 34.89530945 C-129.55091675 36.03611465 -129.77114502 37.17691986 -129.99804688 38.35229492 C-130.19346069 39.35379074 -130.38887451 40.35528656 -130.59020996 41.38713074 C-131.13225148 44.51023893 -131.13225148 44.51023893 -131.0078125 49.15234375 C-127.0478125 49.15234375 -123.0878125 49.15234375 -119.0078125 49.15234375 C-117.59550333 45.13292536 -116.52485879 41.20150616 -115.71875 37.01953125 C-115.49960938 35.88386719 -115.28046875 34.74820313 -115.0546875 33.578125 C-114.83296875 32.40636719 -114.61125 31.23460937 -114.3828125 30.02734375 C-114.15335938 28.84785156 -113.92390625 27.66835937 -113.6875 26.453125 C-112.41527025 19.8495029 -112.41527025 19.8495029 -112.0078125 13.15234375 C-109.40202384 13.23930333 -106.7996846 13.34615783 -104.1953125 13.46484375 C-103.08833008 13.49868164 -103.08833008 13.49868164 -101.95898438 13.53320312 C-96.49201719 13.80531461 -96.49201719 13.80531461 -94.25927734 15.40551758 C-92.60146473 17.71953421 -92.80522591 18.82010994 -93.19140625 21.61328125 C-93.36905518 22.94311035 -93.36905518 22.94311035 -93.55029297 24.29980469 C-94.32646085 29.1390499 -95.16048632 33.96137335 -96.0703125 38.77734375 C-96.25658203 39.78152344 -96.44285156 40.78570312 -96.63476562 41.8203125 C-97.0887803 44.26500689 -97.54777133 46.70877625 -98.0078125 49.15234375 C-93.7178125 49.15234375 -89.4278125 49.15234375 -85.0078125 49.15234375 C-81.39496943 38.31381455 -76.44294358 22.57368311 -79.0078125 11.15234375 C-82.52263577 6.36827875 -86.19648459 4.46860735 -91.9453125 3.46484375 C-97.99329367 2.87825026 -103.98245918 3.54701459 -110.0078125 4.15234375 C-109.79125 3.2603125 -109.5746875 2.36828125 -109.3515625 1.44921875 C-109.073125 0.27875 -108.7946875 -0.89171875 -108.5078125 -2.09765625 C-108.229375 -3.2578125 -107.9509375 -4.41796875 -107.6640625 -5.61328125 C-106.87524798 -8.95096337 -106.87524798 -8.95096337 -107.0078125 -12.84765625 C-111.2978125 -12.84765625 -115.5878125 -12.84765625 -120.0078125 -12.84765625 Z M-164.1328125 3.52734375 C-165.37546875 3.5840625 -166.618125 3.64078125 -167.8984375 3.69921875 C-170.93558783 3.83939492 -173.97174374 3.99066718 -177.0078125 4.15234375 C-180.08454445 18.58383593 -182.99644551 33.04458722 -185.8203125 47.52734375 C-186.05815964 48.7423053 -186.05815964 48.7423053 -186.30081177 49.98181152 C-186.75342573 52.29606474 -187.20335463 54.61082237 -187.65234375 56.92578125 C-187.78960876 57.6268399 -187.92687378 58.32789856 -188.06829834 59.05020142 C-188.76818354 62.57581125 -188.76818354 62.57581125 -189.0078125 66.15234375 C-184.7178125 66.15234375 -180.4278125 66.15234375 -176.0078125 66.15234375 C-175.5128125 64.08984375 -175.0178125 62.02734375 -174.5078125 59.90234375 C-174.09015625 58.16210938 -174.09015625 58.16210938 -173.6640625 56.38671875 C-172.87524798 53.04903663 -172.87524798 53.04903663 -173.0078125 49.15234375 C-172.16972046 49.17590942 -172.16972046 49.17590942 -171.31469727 49.19995117 C-168.7333426 49.26309299 -166.1521512 49.30158079 -163.5703125 49.33984375 C-162.69181641 49.36498047 -161.81332031 49.39011719 -160.90820312 49.41601562 C-152.2863654 49.51146032 -144.65866377 47.64176212 -137.87109375 42.1328125 C-132.52323124 36.44860643 -129.67524286 29.6087436 -129.3828125 21.83984375 C-129.69037182 16.49250553 -130.68128434 13.35427406 -134.0078125 9.15234375 C-142.36033826 1.79416629 -153.7194431 2.96988286 -164.1328125 3.52734375 Z M-56.5078125 3.58984375 C-57.71179688 3.64205078 -58.91578125 3.69425781 -60.15625 3.74804688 C-63.10708944 3.87685336 -66.05751381 4.01177744 -69.0078125 4.15234375 C-71.14577702 9.87259477 -72.22568971 15.74408709 -73.390625 21.71875 C-73.60975555 22.83040024 -73.82888611 23.94205048 -74.05465698 25.08738708 C-74.5154653 27.43116133 -74.97425448 29.77533335 -75.43115234 32.11987305 C-76.13125521 35.70686492 -76.84061055 39.29194264 -77.55078125 42.87695312 C-77.99795564 45.15744238 -78.44458865 47.43803788 -78.890625 49.71875 C-79.10308868 50.78968399 -79.31555237 51.86061798 -79.53445435 52.96400452 C-79.82508255 54.46597633 -79.82508255 54.46597633 -80.12158203 55.99829102 C-80.29319855 56.87510025 -80.46481506 57.75190948 -80.64163208 58.6552887 C-81.12872343 61.55623184 -81.12872343 61.55623184 -81.0078125 66.15234375 C-76.7178125 66.15234375 -72.4278125 66.15234375 -68.0078125 66.15234375 C-67.0178125 60.54234375 -66.0278125 54.93234375 -65.0078125 49.15234375 C-62.99880859 49.20455078 -62.99880859 49.20455078 -60.94921875 49.2578125 C-59.15626266 49.28597411 -57.36329285 49.31327171 -55.5703125 49.33984375 C-54.69181641 49.36498047 -53.81332031 49.39011719 -52.90820312 49.41601562 C-43.01584062 49.52552517 -36.16546319 47.18345103 -28.95703125 40.33984375 C-24.04465365 34.82695506 -22.29503478 29.02984458 -21.7578125 21.77734375 C-22.08322538 17.05885695 -23.07930973 13.19968983 -26.40234375 9.671875 C-35.42620849 1.88165253 -45.20571973 3.04957888 -56.5078125 3.58984375 Z " fill="#000000" transform="translate(234.0078125,96.84765625)"/>
<path d="M0 0 C2.7225 -0.04125 5.445 -0.0825 8.25 -0.125 C9.10110352 -0.14320801 9.95220703 -0.16141602 10.82910156 -0.18017578 C17.94307609 -0.23241008 17.94307609 -0.23241008 21 2 C23.44019004 5.83458434 23.16062489 9.3822682 22.5390625 13.71875 C21.42389636 18.43800381 19.44633862 21.91524604 15.5 24.875 C8.86391511 27.8612382 2.18325142 27.06651159 -5 27 C-3.35 18.09 -1.7 9.18 0 0 Z " fill="#000000" transform="translate(68,110)"/>
<path d="M0 0 C2.73083902 -0.13548815 5.45491807 -0.23429855 8.1875 -0.3125 C8.95642578 -0.35439453 9.72535156 -0.39628906 10.51757812 -0.43945312 C14.77313674 -0.53077413 16.49273878 -0.37732885 20.01953125 2.24609375 C22.94364625 6.31217082 22.75189365 9.18292309 22 14 C20.38090766 19.19813855 18.62800306 22.09404459 14 25 C9.55553355 26.78159069 5.89811408 27.22241049 1.125 27.125 C-0.02742187 27.10695312 -1.17984375 27.08890625 -2.3671875 27.0703125 C-3.23601562 27.04710937 -4.10484375 27.02390625 -5 27 C-3.65667575 7.3133515 -3.65667575 7.3133515 0 0 Z " fill="#000000" transform="translate(176,110)"/>
</svg>
