<?xml version="1.0" encoding="UTF-8"?>
<svg version="1.1" xmlns="http://www.w3.org/2000/svg" width="256" height="256" viewBox="0 0 256 256">
<path d="M0 0 C0.68731201 0.22333008 1.37462402 0.44666016 2.08276367 0.67675781 C15.32855227 5.15240641 26.58104416 11.85642494 36.375 21.9375 C40.09134947 20.35718317 42.64191524 18.00394239 45.625 15.3125 C57.24363924 5.30948112 74.50070478 -3.25754499 90.1328125 -2.4375 C96.03308387 -1.45069503 99.96274021 1.03841407 103.6875 5.6875 C115.09362368 22.53394284 111.55595651 45.00617629 108.375 63.9375 C108.92325439 64.14842285 109.47150879 64.3593457 110.03637695 64.57666016 C148.76149988 79.55313724 148.76149988 79.55313724 156.46875 96.31640625 C158.64332875 102.60581289 158.16657365 109.03030617 155.4375 115.0625 C146.68882706 130.40297084 129.50595881 138.49573076 113.375 143.9375 C111.71642783 144.30902017 110.05171798 144.65910154 108.375 144.9375 C108.5915625 146.18402344 108.808125 147.43054688 109.03125 148.71484375 C112.14172122 167.38136085 114.72635569 187.91046647 103.625 204.5625 C99.39924596 209.02301815 94.22250848 211.66886712 88.0625 212.25 C72.47724541 211.93772714 55.86802317 202.99084511 44.375 192.9375 C43.18875919 191.95680823 42.00139379 190.97747388 40.8125 190 C40.008125 189.319375 39.20375 188.63875 38.375 187.9375 C35.3886107 189.28366236 33.29592082 190.80387872 30.9375 193.0625 C21.9888745 201.01683378 11.68498641 206.21274447 0.375 209.9375 C-0.73488281 210.30681641 -0.73488281 210.30681641 -1.8671875 210.68359375 C-8.18271286 212.52245154 -14.72220259 212.97812549 -20.9375 210.75 C-29.79412833 204.77692508 -33.59338078 197.1351731 -35.625 186.9375 C-37.90010998 173.2681917 -36.29032823 158.25331269 -32.625 144.9375 C-33.78 144.751875 -34.935 144.56625 -36.125 144.375 C-52.86838054 140.60444344 -69.75216514 130.7919921 -80.06640625 117.01171875 C-83.40915171 111.38612273 -83.56798475 105.30264709 -82.625 98.9375 C-78.54750051 86.62658807 -66.72230402 78.80621961 -55.79150391 73.00732422 C-39.44928115 64.9375 -39.44928115 64.9375 -32.625 64.9375 C-32.82996094 64.10347656 -33.03492188 63.26945312 -33.24609375 62.41015625 C-37.59384192 44.24946652 -39.57314794 24.64265818 -30.47265625 7.58203125 C-27.26990367 2.99796467 -23.0776701 0.19232504 -17.8515625 -1.70703125 C-11.51042451 -2.71938837 -6.05474614 -1.9982259 0 0 Z M-20.625 13.9375 C-27.91847176 28.26396238 -25.11949564 45.85708728 -21.625 60.9375 C-15.35334712 60.27003493 -9.11236783 59.49760778 -2.875 58.5625 C-2.05128906 58.4490625 -1.22757813 58.335625 -0.37890625 58.21875 C6.68921694 57.14885696 10.61555822 55.3631256 15.01611328 49.45581055 C15.4232959 48.89289307 15.83047852 48.32997559 16.25 47.75 C17.11767408 46.58435823 17.98747258 45.42029485 18.859375 44.2578125 C19.28283203 43.69223633 19.70628906 43.12666016 20.14257812 42.54394531 C22.71309142 39.19331586 25.53016442 36.05551516 28.375 32.9375 C23.81270786 22.64997852 11.00849128 16.75003728 1.0859375 12.54296875 C-6.59907452 9.78998343 -14.44774493 7.05427292 -20.625 13.9375 Z M46.375 30.9375 C48.04553158 34.93900588 50.80615289 37.96056242 53.625 41.1875 C54.57009679 42.2739686 55.51278448 43.36253724 56.453125 44.453125 C56.94256592 45.00806641 57.43200684 45.56300781 57.9362793 46.13476562 C59.375 47.9375 59.375 47.9375 60.57348633 50.03710938 C62.75616997 53.6940141 64.34312015 55.56440397 68.42431641 57.04003906 C72.12920874 57.84480903 75.8054281 58.4309713 79.5625 58.9375 C80.84576172 59.13988281 82.12902344 59.34226563 83.45117188 59.55078125 C89.88511827 60.57797017 89.88511827 60.57797017 96.375 60.9375 C99.93307543 46.32520963 101.76120118 30.32342973 96.375 15.9375 C94.48990458 13.02417072 93.43316932 11.46658466 90.375 9.9375 C74.03599594 7.96555123 56.76498047 19.23047975 46.375 30.9375 Z M34.7890625 42.29296875 C28.44872412 47.84649285 28.44872412 47.84649285 25.375 54.9375 C33.295 54.9375 41.215 54.9375 49.375 54.9375 C47.12752533 51.19170889 45.15938437 48.33373136 42.3125 45.125 C41.62027344 44.33480469 40.92804688 43.54460937 40.21484375 42.73046875 C37.94210809 40.51563718 37.23369275 40.20359265 34.7890625 42.29296875 Z M28.87890625 65.6328125 C20.92033646 65.11191686 20.92033646 65.11191686 13.78076172 68.12304688 C10.60422211 71.47233214 8.57717978 75.38761413 6.57568359 79.51318359 C5.24495301 82.20007964 3.78551692 84.78973984 2.30078125 87.39453125 C1.2591166 89.26084708 0.22131234 91.12932311 -0.8125 93 C-1.3075 93.89170898 -1.8025 94.78341797 -2.3125 95.70214844 C-4.90888812 100.63403754 -4.90888812 100.63403754 -5.66796875 106.0703125 C-3.42341383 112.24073688 -0.18415483 117.86371932 3.04394531 123.56494141 C3.93659089 125.15605103 4.81083535 126.75761497 5.66699219 128.36865234 C10.3560123 137.85778584 10.3560123 137.85778584 18.296875 144.22265625 C21.76473331 144.53511556 24.90962681 144.28294644 28.375 143.9375 C30.73638416 143.92565445 33.09254869 143.97454696 35.45336914 144.02490234 C37.92012027 144.06223696 40.37736194 144.03056532 42.84375 143.98046875 C45.59024016 143.92743229 48.15780183 144.0041767 50.90625 144.23828125 C54.24319578 144.38878782 56.30212646 144.26816399 59.375 142.9375 C63.66741565 138.46841481 66.43934783 133.35590634 69.375 127.9375 C70.40825944 126.11815169 71.44213871 124.2991553 72.4765625 122.48046875 C73.51002299 120.61463784 74.53872669 118.74616375 75.5625 116.875 C76.05693604 115.98329102 76.55137207 115.09158203 77.06079102 114.17285156 C79.65910231 109.24144336 79.65910231 109.24144336 80.41796875 103.8046875 C78.16636504 97.61488553 74.90139089 92.02114948 71.65332031 86.31005859 C70.37786739 83.94282187 69.29244857 81.54293979 68.2109375 79.08203125 C65.94953962 74.35538704 63.72612444 70.02963786 59.375 66.9375 C52.28477486 64.65925158 44.83707922 65.27462213 37.50732422 65.78027344 C34.58233393 65.9270929 31.79714208 65.83984044 28.87890625 65.6328125 Z M75.375 68.9375 C76.67854 72.19635 77.8386583 74.93792816 79.5390625 77.92578125 C79.93867188 78.63154297 80.33828125 79.33730469 80.75 80.06445312 C81.1625 80.78568359 81.575 81.50691406 82 82.25 C82.42023438 82.99056641 82.84046875 83.73113281 83.2734375 84.49414062 C84.30448495 86.31019011 85.33936046 88.12406533 86.375 89.9375 C88.71554554 87.59695446 89.36821065 85.72274936 90.5 82.625 C91.02980469 81.20767578 91.02980469 81.20767578 91.5703125 79.76171875 C92.6033486 76.62549951 92.6033486 76.62549951 92.375 71.9375 C86.765 70.9475 81.155 69.9575 75.375 68.9375 Z M-9.6875 70.3125 C-10.43322266 70.43882813 -11.17894531 70.56515625 -11.94726562 70.6953125 C-13.85341495 71.04157032 -15.74175929 71.48285274 -17.625 71.9375 C-19.03132523 74.16333243 -19.03132523 74.16333243 -17.41015625 77.6328125 C-16.84366415 79.11235658 -16.26908111 80.58882181 -15.6875 82.0625 C-15.39681641 82.81660156 -15.10613281 83.57070312 -14.80664062 84.34765625 C-14.08625002 86.21358602 -13.35649596 88.0758958 -12.625 89.9375 C-9.89697334 87.50898962 -8.3824265 84.9065116 -6.6875 81.6875 C-4.40079069 77.39350471 -2.05867412 73.14962829 0.375 68.9375 C-3.02815888 68.9375 -6.34766973 69.70895118 -9.6875 70.3125 Z M104.375 75.9375 C102.8839237 79.7871634 101.40930528 83.64293213 99.9375 87.5 C99.51662109 88.58603516 99.09574219 89.67207031 98.66210938 90.79101562 C94.99838018 100.43395087 93.48185458 106.24264647 97.625 115.8125 C98.25742772 117.32980601 98.8876401 118.84803731 99.515625 120.3671875 C99.82564453 121.1106543 100.13566406 121.85412109 100.45507812 122.62011719 C101.93036643 126.33652817 103.1628764 130.12845238 104.375 133.9375 C118.05179366 132.24639723 134.52538885 123.50833772 143.125 112.6875 C145.78331687 108.63499537 145.78331687 108.63499537 146.375 103.9375 C143.51142223 94.65555825 135.5746584 89.17045237 127.5078125 84.4921875 C116.37264208 78.59631704 116.37264208 78.59631704 104.375 75.9375 Z M-60.625 89.9375 C-61.39585938 90.49179688 -62.16671875 91.04609375 -62.9609375 91.6171875 C-67.385138 95.08307742 -69.96816977 98.31211213 -71.421875 103.80078125 C-71.84484626 108.25011349 -69.36523839 110.91152625 -66.89453125 114.3359375 C-58.45457198 124.01065845 -42.15243442 131.64247938 -29.625 133.9375 C-29.39312988 133.29723877 -29.16125977 132.65697754 -28.92236328 131.99731445 C-27.86576226 129.08123293 -26.80789344 126.16561289 -25.75 123.25 C-25.38519531 122.24259766 -25.02039063 121.23519531 -24.64453125 120.19726562 C-24.29003906 119.22080078 -23.93554688 118.24433594 -23.5703125 117.23828125 C-23.24562988 116.34278564 -22.92094727 115.44729004 -22.58642578 114.5246582 C-21.93033098 112.7591334 -21.23039751 111.00943922 -20.4934082 109.27612305 C-18.33213906 103.45582585 -21.96703894 96.92581553 -24.0625 91.4375 C-24.68701882 89.78155936 -25.31073549 88.12531595 -25.93359375 86.46875 C-26.37227783 85.30472656 -26.37227783 85.30472656 -26.81982422 84.1171875 C-27.81943011 81.41115918 -28.73824992 78.68241483 -29.625 75.9375 C-39.67807768 75.9375 -52.88207626 84.16267728 -60.625 89.9375 Z M86.375 118.9375 C85.84390625 119.93910156 85.3128125 120.94070312 84.765625 121.97265625 C84.05214013 123.31513436 83.33859525 124.65758057 82.625 126 C82.27695313 126.65677734 81.92890625 127.31355469 81.5703125 127.99023438 C79.24917105 132.35312062 76.84605672 136.65767428 74.375 140.9375 C76.60519727 140.65382132 78.83413454 140.36022612 81.0625 140.0625 C82.30386719 139.90007812 83.54523438 139.73765625 84.82421875 139.5703125 C88.7004774 139.00327684 88.7004774 139.00327684 93.375 136.9375 C91.395 130.9975 89.415 125.0575 87.375 118.9375 C87.045 118.9375 86.715 118.9375 86.375 118.9375 Z M-12.625 119.9375 C-14.94830984 125.54276694 -17.09245644 131.06274968 -18.625 136.9375 C-14.343484 138.48613345 -10.25433451 139.41902364 -5.75 140.0625 C-4.59757812 140.23007813 -3.44515625 140.39765625 -2.2578125 140.5703125 C-1.38898438 140.69148438 -0.52015625 140.81265625 0.375 140.9375 C-0.42164063 139.54337891 -0.42164063 139.54337891 -1.234375 138.12109375 C-4.69791667 132.05989583 -8.16145833 125.99869792 -11.625 119.9375 C-11.955 119.9375 -12.285 119.9375 -12.625 119.9375 Z M-21.625 148.9375 C-24.88598616 164.62129057 -28.120825 182.3378125 -19.875 197.0625 C-16.86553091 199.57039091 -14.46816753 200.1751219 -10.625 200.9375 C-7.83494784 200.45365918 -5.57018897 199.91476426 -2.9375 199 C-2.24124512 198.76764648 -1.54499023 198.53529297 -0.82763672 198.29589844 C9.76124288 194.58894036 20.10107715 188.64367757 27.375 179.9375 C27.375 174.80366089 25.9717153 174.01832359 22.5546875 170.48828125 C20.375 167.9375 20.375 167.9375 18.4453125 164.48046875 C15.26437765 159.00559743 12.35211766 154.98151907 6.18505859 152.81884766 C-2.81485541 150.61200455 -12.33340605 148.9375 -21.625 148.9375 Z M60.84375 157.5859375 C58.07440482 160.81444481 55.79141186 164.27857801 53.63769531 167.94042969 C51.56036067 171.22592802 48.98413048 174.06734397 46.375 176.9375 C51.46453053 187.88800566 65.53940712 193.90053228 76.20703125 198.03515625 C81.36417645 199.73836089 85.97359339 200.76144338 91.375 199.9375 C96.76931615 195.50217339 98.36406397 189.70058366 99.375 182.9375 C100.35368979 171.29818344 98.96929906 160.27211612 96.375 148.9375 C85.19344521 148.9375 69.25820057 149.52208903 60.84375 157.5859375 Z M25.375 154.9375 C27.9301935 158.77029025 30.12094399 161.96182214 33.125 165.3125 C33.73859375 166.00085938 34.3521875 166.68921875 34.984375 167.3984375 C35.44328125 167.90632812 35.9021875 168.41421875 36.375 168.9375 C39.96292981 167.44588873 42.01812838 165.40717132 44.5625 162.5 C45.25730469 161.71753906 45.95210937 160.93507812 46.66796875 160.12890625 C48.55247955 157.96092442 48.55247955 157.96092442 49.375 154.9375 C41.455 154.9375 33.535 154.9375 25.375 154.9375 Z " fill="#000000" transform="translate(90.625,23.0625)"/>
<path d="M0 0 C4.86478091 4.9618608 7.87361783 10.26066845 8.0625 17.34375 C7.71161996 24.44907073 5.5209225 30.56290899 0.359375 35.6015625 C-4.91558561 39.66470783 -10.27837717 41.2822858 -16.9375 40.875 C-23.93305645 39.93022834 -28.90780299 37.75531077 -33.375 32.1875 C-37.26282339 26.48254176 -38.60375762 20.88283688 -38 14 C-36.45311215 8.0947274 -34.15019096 3.08633661 -28.91796875 -0.37890625 C-19.43748641 -5.89739597 -9.23896453 -6.76875717 0 0 Z " fill="#000000" transform="translate(143,110)"/>
</svg>
