<?xml version="1.0" encoding="UTF-8"?>
<svg version="1.1" xmlns="http://www.w3.org/2000/svg" width="256" height="256" viewBox="0 0 256 256">
<path d="M0 0 C8.40367992 7.98349593 13.9206595 17.53123437 18.71875 27.9921875 C19.1003125 28.81460938 19.481875 29.63703125 19.875 30.484375 C24.47819578 41.12054708 26.10790894 52.49152482 26.71875 63.9921875 C22.6811097 65.3380676 20.66726731 64.31951484 16.65625 62.9921875 C15.40714844 62.6003125 14.15804687 62.2084375 12.87109375 61.8046875 C9.71875 59.9921875 9.71875 59.9921875 8.41796875 56.8046875 C8.18722656 55.5465625 7.95648438 54.2884375 7.71875 52.9921875 C7.39613909 51.69712805 7.05983235 50.40541464 6.7109375 49.1171875 C6.53328857 48.44953369 6.35563965 47.78187988 6.17260742 47.09399414 C1.8990028 31.57671782 -5.62999773 14.81657661 -19.953125 6.2421875 C-20.72140625 5.8296875 -21.4896875 5.4171875 -22.28125 4.9921875 C-23.02890625 4.5796875 -23.7765625 4.1671875 -24.546875 3.7421875 C-35.22179492 -1.34784054 -47.0319796 0.22525222 -57.97265625 3.71484375 C-63.58852516 5.88295371 -69.65172706 8.35040572 -73.95703125 12.67578125 C-75.28125 13.9921875 -75.28125 13.9921875 -77.28125 13.9921875 C-77.54421875 14.559375 -77.8071875 15.1265625 -78.078125 15.7109375 C-79.37146364 18.16324194 -80.88248354 20.26412472 -82.53125 22.4921875 C-95.4131267 40.75713534 -99.62237258 61.89281975 -98.28125 83.9921875 C-98.24547852 84.67506836 -98.20970703 85.35794922 -98.17285156 86.06152344 C-97.40813582 99.37427562 -94.76345246 111.4493556 -90.28125 123.9921875 C-90.02746582 124.74564453 -89.77368164 125.49910156 -89.51220703 126.27539062 C-87.91041288 130.92502876 -86.25242583 135.04523806 -83.28125 138.9921875 C-80.180416 140.47923596 -77.55229034 141.01708065 -74.15625 141.48828125 C-69.63686804 142.28040119 -67.0646567 144.43561227 -64.28125 147.9921875 C-61.23378112 152.77600493 -59.47542847 157.27557986 -60.609375 162.9453125 C-62.37129246 168.31301453 -64.82513744 172.63766419 -68.96875 176.4921875 C-74.63862298 179.05967715 -80.4288721 179.86078691 -86.46875 178.0546875 C-91.67600152 175.78974477 -95.76655156 171.02158439 -98.28125 165.9921875 C-98.18258152 164.05450656 -98.08096675 162.11691016 -97.96118164 160.18041992 C-97.5414693 151.68931639 -98.52958553 146.12725246 -102.93261719 138.88989258 C-106.08937937 133.63530838 -108.17481705 128.30880543 -110.09375 122.4921875 C-110.370979 121.67451904 -110.64820801 120.85685059 -110.93383789 120.0144043 C-115.36220466 106.30192291 -116.85981046 93.16757717 -116.78125 78.8671875 C-116.78048462 78.05913666 -116.77971924 77.25108582 -116.77893066 76.41854858 C-116.6843885 48.68789257 -108.59360706 22.84835039 -89.15625 2.3671875 C-62.774411 -23.18457996 -27.17646626 -23.91901312 0 0 Z " fill="#000000" transform="translate(167.28125,22.0078125)"/>
<path d="M0 0 C1.11375 1.36125 1.11375 1.36125 2.25 2.75 C6.02703746 5.84030337 8.49784693 5.19035406 13.2421875 4.9921875 C29.74024173 5.02648699 49.08307712 8.94916496 64 16 C64.58604004 16.27328125 65.17208008 16.5465625 65.77587891 16.828125 C82.28032213 24.58139417 97.54016546 34.53052877 110 48 C110 48.66 110 49.32 110 50 C110.66 50 111.32 50 112 50 C113.51095332 51.92797643 114.89070934 53.84352646 116.25 55.875 C116.65114014 56.46780762 117.05228027 57.06061523 117.46557617 57.67138672 C118.65432526 59.44080959 119.8295178 61.21845347 121 63 C121.58910156 63.89203125 122.17820313 64.7840625 122.78515625 65.703125 C126.44692757 71.50951431 129.0099374 77.43279341 131 84 C131.35835937 85.17949219 131.71671875 86.35898438 132.0859375 87.57421875 C135.28892748 100.75861935 134.70183614 117.63112662 129 130 C128.59910156 130.93328125 128.19820312 131.8665625 127.78515625 132.828125 C119.89729097 149.19830339 103.86573199 159.07479705 87.26171875 164.97265625 C68.66868717 170.26736061 47.41760074 167.82982443 29.625 161 C28.97523193 160.7510498 28.32546387 160.50209961 27.65600586 160.24560547 C25.8515625 159.5 25.8515625 159.5 23 158 C22.67 157.01 22.34 156.02 22 155 C22.51949219 154.61328125 23.03898437 154.2265625 23.57421875 153.828125 C24.27160156 153.30734375 24.96898437 152.7865625 25.6875 152.25 C26.42226562 151.70730469 27.15703125 151.16460937 27.9140625 150.60546875 C30.14923859 148.94284761 30.14923859 148.94284761 32.5625 146.5625 C35.32055353 144.79451697 36.6829281 144.76968058 39.84765625 145.44140625 C40.55792969 145.62574219 41.26820313 145.81007812 42 146 C42.94746094 146.23589844 43.89492187 146.47179687 44.87109375 146.71484375 C46.9680618 147.24104922 49.06441234 147.7697213 51.16015625 148.30078125 C68.25529008 152.50989948 83.04552794 149.62617718 98 141 C107.07421625 135.06314575 112.51620351 125.73428382 115.34765625 115.44140625 C116.94310635 107.02469044 116.94899622 98.11326711 114 90 C113.59652344 88.85660156 113.19304687 87.71320313 112.77734375 86.53515625 C103.77990237 62.05988108 84.49032339 45.7921504 61.5 34.75 C42.77856142 26.52805435 24.27746638 23.75294049 4 23 C3.71769531 23.77988281 3.43539062 24.55976562 3.14453125 25.36328125 C1.39054789 29.40402789 -1.48131788 31.15628771 -5.25 33.25 C-10.71918078 34.74159476 -15.91000534 34.77662132 -21.1875 32.5625 C-25.95075388 29.8324587 -28.8959228 26.03749869 -31 21 C-32.14952439 14.77488328 -31.46522901 9.20405879 -28.26171875 3.71875 C-20.71384356 -6.56318525 -10.04693896 -6.43004094 0 0 Z " fill="#000000" transform="translate(123,84)"/>
<path d="M0 0 C4.07111852 4.4412202 4.6243745 9.85893463 5.625 15.5625 C4.79302645 20.13835453 2.81109622 21.32473806 -0.71875 24.15234375 C-10.9922004 32.47313491 -18.10503478 45.12239611 -21 58 C-21.27958659 60.77804914 -21.33426106 63.52172279 -21.3125 66.3125 C-21.30758545 67.06088135 -21.3026709 67.8092627 -21.29760742 68.58032227 C-21.1734018 74.46512117 -20.34549855 79.56143364 -18 85 C-17.62488281 85.87398438 -17.24976562 86.74796875 -16.86328125 87.6484375 C-14.51140637 92.70830711 -12.09889459 96.25243923 -8 100 C-8 100.66 -8 101.32 -8 102 C-7.45988281 102.268125 -6.91976563 102.53625 -6.36328125 102.8125 C-4.64616653 103.67531467 -2.93610267 104.55220623 -1.23046875 105.4375 C0.27580078 106.2109375 0.27580078 106.2109375 1.8125 107 C2.80894531 107.515625 3.80539063 108.03125 4.83203125 108.5625 C22.29962278 116.48860812 44.58546285 113.37209448 62 107 C77.42354241 100.48077073 92.15732285 91.52067629 103.64453125 79.2421875 C105 78 105 78 107 78 C107.39638672 77.11828125 107.39638672 77.11828125 107.80078125 76.21875 C109.04201907 73.92225788 110.38648838 72.37931647 112.1875 70.5 C116.58334647 65.57665195 120.36528913 60.06676846 123 54 C122.77647606 51.55986365 121.94033413 49.86168367 120.96875 47.609375 C118.91265364 42.07117997 118.85166853 35.85394146 121.0625 30.359375 C124.27666408 25.08395352 127.98270436 21.64406985 134 20 C139.6798691 19.17068125 144.20051168 19.66122552 149 23 C153.24200563 27.05406867 157.00903472 31.05420835 158 37 C157.78950336 43.63064426 156.20470032 48.58767121 151.61328125 53.4765625 C149.18544839 55.65587703 147.30903588 56.93192858 144.109375 57.63671875 C139.58807988 59.61904538 138.35371681 62.74814747 136.125 67 C132.28873619 73.90152443 128.23579014 80.05583825 123 86 C122.28070313 86.83917969 121.56140625 87.67835938 120.8203125 88.54296875 C101.84952278 110.23793761 78.26578821 121.16309358 51 129 C49.99767334 129.3091333 49.99767334 129.3091333 48.97509766 129.62451172 C43.18896933 131.28382353 37.49234333 131.38451694 31.5 131.375 C30.44353271 131.37338867 29.38706543 131.37177734 28.29858398 131.37011719 C16.17669149 131.18196638 4.76858113 128.78124204 -6 123 C-6.79535156 122.59265625 -7.59070313 122.1853125 -8.41015625 121.765625 C-21.38178647 114.62822105 -30.37687768 103.5215509 -35.23828125 89.67578125 C-37.24705211 82.61932975 -37.21695139 75.65395586 -37.25 68.375 C-37.270625 67.26253906 -37.29125 66.15007812 -37.3125 65.00390625 C-37.36309423 54.13879516 -35.3090869 44.44791287 -30.25 34.8125 C-29.90074463 34.13251953 -29.55148926 33.45253906 -29.19165039 32.75195312 C-26.33996246 27.3442696 -23.04125971 22.59485693 -19 18 C-18.43539063 17.31679687 -17.87078125 16.63359375 -17.2890625 15.9296875 C-12.17004045 9.83781963 -6.39318063 4.72046375 0 0 Z " fill="#000000" transform="translate(37,119)"/>
</svg>
