<?xml version="1.0" encoding="UTF-8"?>
<svg version="1.1" xmlns="http://www.w3.org/2000/svg" width="512" height="419" viewBox="0 0 512 419">
<path d="M0 0 C1.21300781 0.11730469 2.42601562 0.23460938 3.67578125 0.35546875 C15.53136077 1.67468829 15.53136077 1.67468829 20 5 C23.58965226 10.38447839 22.21771861 16.43911498 21 22.5625 C20.67537487 24.04360218 20.34522127 25.52356259 20 27 C21.2684375 27.3403125 21.2684375 27.3403125 22.5625 27.6875 C25.5532643 28.82942819 27.12650462 29.76434575 29.5625 31.6875 C32.21419382 33.64631379 32.21419382 33.64631379 35.4375 34.1875 C37.95444953 33.02110876 39.71061198 31.71572409 41.875 30 C45.55115951 27.12691865 48.20297404 25.90949008 53 26 C58.34407876 28.2838715 61.07547474 32.64815364 64.3125 37.25 C64.86228516 37.98863281 65.41207031 38.72726563 65.97851562 39.48828125 C69.24053831 44.08347842 70.89093533 47.16908175 70 53 C66.61640002 58.18113747 62.03040145 61.47996722 57 65 C57.2165625 66.08667969 57.2165625 66.08667969 57.4375 67.1953125 C57.623125 68.16210938 57.80875 69.12890625 58 70.125 C58.185625 71.07632813 58.37125 72.02765625 58.5625 73.0078125 C59.00725046 76.04958796 59.07286471 78.93057393 59 82 C60.09699219 82.07476562 61.19398438 82.14953125 62.32421875 82.2265625 C63.77877599 82.35794186 65.2331971 82.49083455 66.6875 82.625 C67.40873047 82.67011719 68.12996094 82.71523437 68.87304688 82.76171875 C72.80015336 83.1562226 75.28382482 83.75069407 78.0234375 86.703125 C80.25003133 90.4170483 80.48337532 91.89579124 79.9375 96.125 C79.79828125 97.25035156 79.6590625 98.37570313 79.515625 99.53515625 C79.34546875 100.67855469 79.1753125 101.82195312 79 103 C78.87109375 104.11246094 78.7421875 105.22492188 78.609375 106.37109375 C77.59663781 114.03226308 77.59663781 114.03226308 75.54296875 117.36328125 C71.54461435 119.93672287 67.72978521 118.9944431 63.125 118.625 C56.28996466 118.1473297 56.28996466 118.1473297 50.421875 121.0703125 C48.90820276 123.69248208 47.90028716 126.11558481 47 129 C46.35506923 130.3439816 45.69607031 131.68177834 45 133 C45.84884766 133.97839844 45.84884766 133.97839844 46.71484375 134.9765625 C47.44832031 135.85054687 48.18179688 136.72453125 48.9375 137.625 C49.66839844 138.48351562 50.39929688 139.34203125 51.15234375 140.2265625 C53.24914478 143.37398053 53.9272033 145.22427795 54 149 C52.11064421 154.93242169 48.02628576 157.78979378 43.1875 161.3125 C42.13852539 162.1178418 42.13852539 162.1178418 41.06835938 162.93945312 C37.16992017 165.83137295 34.03203725 168.07551488 29 168 C21.84660482 165.50442007 19.12454263 160.04458834 15 154 C9.39 154.99 3.78 155.98 -2 157 C-2.45762299 161.70914173 -2.45762299 161.70914173 -2.8659668 166.42260742 C-3.29047205 170.10779076 -4.01691188 172.02172746 -6.3046875 174.9609375 C-10.57677478 178.1928644 -13.84971008 177.51638791 -19 177 C-20.77503906 176.82210937 -20.77503906 176.82210937 -22.5859375 176.640625 C-33.84638674 175.27142991 -33.84638674 175.27142991 -38 172 C-40.84912748 167.54722076 -39.84990899 163.15770934 -39.125 158.1875 C-39.02058594 157.39923828 -38.91617188 156.61097656 -38.80859375 155.79882812 C-38.55065721 153.86430406 -38.27689872 151.93190106 -38 150 C-38.91523438 149.72542969 -39.83046875 149.45085937 -40.7734375 149.16796875 C-44.28979618 147.89509799 -46.46197833 146.28168473 -49.2890625 143.92578125 C-50.95666196 142.82590288 -50.95666196 142.82590288 -52.90625 143.1328125 C-56.48881453 144.61663587 -59.32642076 147.13515849 -62.3671875 149.50390625 C-65.64799743 151.36822406 -67.27902907 151.6423671 -71 151 C-75.54317917 147.8565166 -78.9333513 144.02622376 -82.3125 139.6875 C-82.75400391 139.15705078 -83.19550781 138.62660156 -83.65039062 138.08007812 C-87.00766214 133.78708929 -87.92146386 130.46948104 -88 125 C-87.06640625 122.8984375 -87.06640625 122.8984375 -85.5625 121.375 C-84.74072266 120.53388672 -84.74072266 120.53388672 -83.90234375 119.67578125 C-80.75250983 116.90108155 -77.4490365 114.38981463 -74 112 C-74.2165625 111.02417969 -74.433125 110.04835938 -74.65625 109.04296875 C-74.9346875 107.77066406 -75.213125 106.49835938 -75.5 105.1875 C-75.91765625 103.29064453 -75.91765625 103.29064453 -76.34375 101.35546875 C-77 98 -77 98 -77 95 C-78.21236328 94.92652344 -78.21236328 94.92652344 -79.44921875 94.8515625 C-80.51785156 94.77679688 -81.58648437 94.70203125 -82.6875 94.625 C-83.74324219 94.55539063 -84.79898437 94.48578125 -85.88671875 94.4140625 C-89.99522103 93.86763685 -92.83948709 93.17568301 -95.79296875 90.18359375 C-99.69531951 83.12400128 -96.6598793 71.46945687 -95 64 C-93.69771923 60.67515042 -93.10989875 60.07326584 -90 58 C-83.65618329 57.39533896 -77.27793085 58.0523878 -71 59 C-69.82268014 57.0898586 -68.65848895 55.17162056 -67.5 53.25 C-66.8503125 52.18265625 -66.200625 51.1153125 -65.53125 50.015625 C-63.69816742 46.96926091 -63.69816742 46.96926091 -64 43 C-65.53188157 40.59097207 -65.53188157 40.59097207 -67.5 38.1875 C-69.88282527 34.90084446 -70.95527586 33.24801567 -71.6875 29.1875 C-70.27069175 22.61866177 -64.87748458 19.02032031 -59.75 15.1875 C-59.11964844 14.68541016 -58.48929687 14.18332031 -57.83984375 13.66601562 C-53.04057692 10.07389636 -49.97918961 9.32083515 -44 10 C-39.26183486 12.70752294 -35.88628019 17.41765825 -33 22 C-33 22.66 -33 23.32 -33 24 C-32.27554688 23.79503906 -31.55109375 23.59007813 -30.8046875 23.37890625 C-29.83789062 23.10949219 -28.87109375 22.84007813 -27.875 22.5625 C-26.92367187 22.29566406 -25.97234375 22.02882813 -24.9921875 21.75390625 C-22.00723889 21.0018239 -19.04167044 20.46482501 -16 20 C-15.84144531 18.89140625 -15.68289063 17.7828125 -15.51953125 16.640625 C-15.28496083 15.17690555 -15.0492221 13.713373 -14.8125 12.25 C-14.71130859 11.52039062 -14.61011719 10.79078125 -14.50585938 10.0390625 C-13.85559823 6.17264487 -13.39330012 4.40800891 -10.59765625 1.5078125 C-6.95761627 -0.60505281 -4.04821827 -0.41033377 0 0 Z M-36 67 C-42.90782686 75.93477136 -43.91247261 84.88862471 -43 96 C-41.13780405 104.22934497 -36.32610281 111.79827256 -29.53515625 116.82421875 C-20.49207534 122.44044795 -12.61762686 123.95886058 -2 123 C7.67581527 120.49049711 15.16326067 115.04676685 21 107 C25.95287379 98.04902327 27.51044245 88.9681735 24.875 79 C21.87029394 69.95780045 16.19016573 62.27344357 7.6953125 57.78125 C-8.66664218 50.27084457 -23.88970718 53.73114126 -36 67 Z " fill="#000000" transform="translate(371,0)"/>
<path d="M0 0 C1.29357422 -0.00773437 2.58714844 -0.01546875 3.91992188 -0.0234375 C12.62184204 -0.00599004 20.86442916 0.79139014 29.4375 2.25 C30.95408787 6.79976362 31.14447188 10.71195279 29.4375 15.25 C26.88355696 17.41777983 24.24737513 18.91069996 21.3125 20.51953125 C16.67589707 23.31031264 12.86952154 27.38595692 10.4375 32.25 C9.40753906 32.22679688 8.37757813 32.20359375 7.31640625 32.1796875 C-24.78120029 31.67727032 -56.98222825 39.65297491 -81.5625 61.25 C-82.36816406 61.91257813 -83.17382812 62.57515625 -84.00390625 63.2578125 C-101.67588475 78.2471902 -114.02275171 99.91955971 -119.2734375 122.34765625 C-119.5710498 123.61448242 -119.86866211 124.88130859 -120.17529297 126.18652344 C-120.76092742 128.74500792 -121.32044417 131.30962894 -121.85205078 133.87988281 C-122.11743652 135.0603418 -122.38282227 136.24080078 -122.65625 137.45703125 C-122.87990234 138.5241333 -123.10355469 139.59123535 -123.33398438 140.69067383 C-124.5625 143.25 -124.5625 143.25 -127.41821289 144.55615234 C-128.97463501 144.89960693 -128.97463501 144.89960693 -130.5625 145.25 C-131.64519165 145.50487183 -131.64519165 145.50487183 -132.74975586 145.76489258 C-133.75341187 145.95281372 -133.75341187 145.95281372 -134.77734375 146.14453125 C-135.53829346 146.29253174 -136.29924316 146.44053223 -137.08325195 146.59301758 C-137.88077881 146.74794678 -138.67830566 146.90287598 -139.5 147.0625 C-161.38559018 151.53569803 -184.0031123 159.92768506 -197.78515625 178.48828125 C-209.24822359 196.30012434 -213.16973522 216.04034572 -209.4375 236.875 C-204.70552739 257.62965197 -193.44702533 276.62305978 -175.18847656 288.16845703 C-168.35750136 292.21843499 -161.05761198 294.68588274 -153.5625 297.25 C-153.5625 307.81 -153.5625 318.37 -153.5625 329.25 C-180.35306191 326.2732709 -203.32340895 311.3392156 -220.11328125 290.54296875 C-239.2779253 265.34797187 -245.52986092 234.58709051 -242.26220703 203.38232422 C-241.47147991 198.20180244 -240.19720041 193.22501289 -238.5625 188.25 C-238.24104004 187.26604248 -238.24104004 187.26604248 -237.91308594 186.26220703 C-229.16820616 160.49217922 -210.5747942 140.58000672 -186.5625 128.25 C-179.54331332 124.86816488 -172.37193236 121.91056338 -164.8125 119.98828125 C-163.65113525 119.68712402 -163.65113525 119.68712402 -162.46630859 119.37988281 C-160.98746429 119.01167688 -159.50044958 118.67438241 -158.00634766 118.37402344 C-155.26322459 117.70490465 -153.08857667 117.0835678 -151.5324707 114.61791992 C-150.73036056 112.51759984 -150.13393411 110.42396508 -149.5625 108.25 C-149.08372808 106.82270222 -148.59263074 105.39948487 -148.08984375 103.98046875 C-147.83565674 103.24675049 -147.58146973 102.51303223 -147.31958008 101.75708008 C-133.85229562 63.64189698 -106.87909218 33.16469458 -70.5625 15.25 C-60.76222953 10.68199072 -50.7281207 7.04223181 -40.25 4.375 C-39.12416504 4.08834473 -39.12416504 4.08834473 -37.97558594 3.79589844 C-25.42328913 0.8287961 -12.86582954 -0.0771564 0 0 Z " fill="#000000" transform="translate(242.5625,16.75)"/>
<path d="M0 0 C13.2 0 26.4 0 40 0 C47.09357719 17.39491172 53.62570151 34.97962575 60.13562012 52.59857178 C62.41470884 58.76556506 64.6979608 64.93101787 66.98175049 71.09627151 C67.80411949 73.31721084 68.6254707 75.53852481 69.44677734 77.75985718 C72.82545859 86.8886718 76.24975124 95.99841023 79.81762695 105.05540466 C82 110.6758165 82 110.6758165 82 114 C69.79 114 57.58 114 45 114 C42 107 42 107 39 95 C26.13 95 13.26 95 0 95 C-0.66 97.97 -1.32 100.94 -2 104 C-2.99 107.3 -3.98 110.6 -5 114 C-17.21 114 -29.42 114 -42 114 C-40.14304834 107.81016113 -38.28157822 101.7871856 -36.015625 95.76171875 C-35.58253021 94.59855637 -35.58253021 94.59855637 -35.14068604 93.41189575 C-34.18037416 90.83587067 -33.215286 88.26166491 -32.25 85.6875 C-31.5642809 83.85187097 -30.87873918 82.01617566 -30.19335938 80.18041992 C-20.19530823 53.42879785 -10.09048384 26.71684926 0 0 Z M19 32 C17.42987374 37.08924386 15.86338538 42.17958747 14.30029297 47.27099609 C13.76776973 49.00372728 13.23424471 50.73615091 12.69970703 52.46826172 C11.93259803 54.95460572 11.16907066 57.44202498 10.40625 59.9296875 C10.16563843 60.70682098 9.92502686 61.48395447 9.67712402 62.28463745 C8.44191709 66.07253325 8.44191709 66.07253325 8 70 C15.59 70 23.18 70 31 70 C29.37934531 61.89672654 27.43467512 54.35094513 25 46.5 C24.64421875 45.32179688 24.2884375 44.14359375 23.921875 42.9296875 C23.57640625 41.80820312 23.2309375 40.68671875 22.875 39.53125 C22.56304687 38.51611328 22.25109375 37.50097656 21.9296875 36.45507812 C21.14244155 33.86852973 21.14244155 33.86852973 19 32 Z " fill="#000000" transform="translate(159,305)"/>
<path d="M0 0 C11.17875 -0.061875 22.3575 -0.12375 33.875 -0.1875 C37.38624512 -0.21481201 40.89749023 -0.24212402 44.51513672 -0.27026367 C48.84985352 -0.28381348 48.84985352 -0.28381348 50.88821411 -0.28633118 C52.29197047 -0.2908953 53.69571612 -0.30135663 55.09939575 -0.31672668 C67.48492377 -0.4453992 78.34686682 0.54888532 88 9 C95.31721133 17.19591575 97.60639765 27.23308753 97.28515625 38.015625 C96.21118368 49.25555709 92.03595778 58.22443275 83.3125 65.4609375 C75.53971331 70.63404215 66.46214474 72.13973461 57.2890625 72.09765625 C56.16709473 72.09515869 55.04512695 72.09266113 53.88916016 72.09008789 C51.77840088 72.07643188 51.77840088 72.07643188 49.625 72.0625 C42.880625 72.0315625 42.880625 72.0315625 36 72 C36 85.86 36 99.72 36 114 C24.12 114 12.24 114 0 114 C0 76.38 0 38.76 0 0 Z M36 24 C36 31.92 36 39.84 36 48 C47.51727152 48.80577013 47.51727152 48.80577013 58 45 C60.62462509 41.97158643 61.84133961 39.95196232 62.5 36 C61.8474933 32.08495982 60.55669154 30.02766104 58 27 C53.08518028 23.88435536 49.23310369 23.61630318 43.625 23.8125 C41.10875 23.874375 38.5925 23.93625 36 24 Z " fill="#000000" transform="translate(249,305)"/>
<path d="M0 0 C15.91156636 7.32000785 26.10122226 29.52389476 31.94140625 45.046875 C41.39134348 71.29831975 44.35592531 102.77121197 37 130 C36.83371094 130.64420898 36.66742188 131.28841797 36.49609375 131.95214844 C29.10191048 160.11850951 12.09222725 183.8874089 -13 199 C-25.24595045 205.98263909 -38.33405813 211.58351453 -52 215 C-52 204.11 -52 193.22 -52 182 C-48.41125 180.2365625 -48.41125 180.2365625 -44.75 178.4375 C-32.31089301 172.21288996 -21.86686873 165.82268872 -12 156 C-11.40445313 155.43925781 -10.80890625 154.87851562 -10.1953125 154.30078125 C4.473026 139.19635701 8.39050958 114.09297625 8.30249023 94.03100586 C7.73931032 69.22227563 -0.06386625 47.06301714 -16 28 C-16.57621094 27.45988281 -17.15242188 26.91976562 -17.74609375 26.36328125 C-19.71440209 24.22328247 -19.89696248 21.92107587 -19.8046875 19.1015625 C-18.31779063 15.21830756 -14.46360349 13.88349043 -10.98046875 11.94140625 C-6.24139926 8.85448942 -3.21798015 4.58262502 0 0 Z " fill="#000000" transform="translate(472,128)"/>
<path d="M0 0 C11.88 0 23.76 0 36 0 C36 37.62 36 75.24 36 114 C24.12 114 12.24 114 0 114 C0 76.38 0 38.76 0 0 Z " fill="#000000" transform="translate(359,305)"/>
<path d="M0 0 C7.404375 -0.061875 14.80875 -0.12375 22.4375 -0.1875 C25.9168811 -0.22846802 25.9168811 -0.22846802 29.46655273 -0.27026367 C31.33056113 -0.27903566 33.19457533 -0.28667791 35.05859375 -0.29296875 C36.47936218 -0.3159906 36.47936218 -0.3159906 37.92883301 -0.33947754 C45.31132962 -0.34234676 51.52097611 0.88233329 57.875 4.75 C62.11630335 9.24079179 63.18745054 13.41964302 63.4375 19.4375 C63.23489638 26.14183781 61.29007097 30.70992903 56.5625 35.4375 C53.95948831 37.02470225 52.01090819 37.65589621 49 38 C49 38.66 49 39.32 49 40 C50.15242188 40.38478516 50.15242188 40.38478516 51.328125 40.77734375 C58.19273112 43.91860357 61.44575422 53.53018959 64.875 59.9375 C65.28073242 60.69554932 65.68646484 61.45359863 66.10449219 62.23461914 C66.66765137 63.30764282 66.66765137 63.30764282 67.2421875 64.40234375 C67.5810498 65.04679443 67.91991211 65.69124512 68.26904297 66.35522461 C69 68 69 68 69 70 C60.75 70 52.5 70 44 70 C41.958125 66.349375 41.958125 66.349375 39.875 62.625 C39.04284723 61.15558081 38.20974398 59.68669874 37.375 58.21875 C35.97854346 55.75622884 34.62745704 53.2894088 33.3125 50.78125 C32.838125 49.9046875 32.36375 49.028125 31.875 48.125 C31.48054688 47.36445313 31.08609375 46.60390625 30.6796875 45.8203125 C28.57409508 43.22168643 28.57409508 43.22168643 22 42 C22 51.24 22 60.48 22 70 C14.74 70 7.48 70 0 70 C0 46.9 0 23.8 0 0 Z M22 15 C22 19.29 22 23.58 22 28 C31.48460133 28.50392638 31.48460133 28.50392638 40 25 C41.41142752 22.1154892 41.41142752 22.1154892 41 19 C39.53494674 16.6680913 39.53494674 16.6680913 37 15 C34.26317029 14.7088479 31.96059961 14.61677582 29.25 14.75 C28.55261719 14.76804688 27.85523438 14.78609375 27.13671875 14.8046875 C25.42388461 14.85161446 23.71176176 14.92335395 22 15 Z " fill="#000000" transform="translate(123,211)"/>
<path d="M0 0 C19.14 0 38.28 0 58 0 C58 5.28 58 10.56 58 16 C46.12 16 34.24 16 22 16 C22 19.3 22 22.6 22 26 C32.89 26 43.78 26 55 26 C55 30.95 55 35.9 55 41 C44.11 41 33.22 41 22 41 C22 44.96 22 48.92 22 53 C34.21 53 46.42 53 59 53 C59 58.61 59 64.22 59 70 C39.53 70 20.06 70 0 70 C0 46.9 0 23.8 0 0 Z " fill="#000000" transform="translate(195,211)"/>
<path d="M0 0 C0.8559375 -0.020625 1.711875 -0.04125 2.59375 -0.0625 C9.76835531 -0.10598246 15.92557177 1.18146688 22.0625 5 C26.79952751 9.87237115 28.70129616 14.52837796 29.25 21.25 C24.8121439 22.36165232 20.48043614 22.36527763 15.9375 22.3125 C15.19693359 22.30798828 14.45636719 22.30347656 13.69335938 22.29882812 C11.87887101 22.28712175 10.06442466 22.26918898 8.25 22.25 C7.79625 21.280625 7.3425 20.31125 6.875 19.3125 C5.59213779 16.17920418 5.59213779 16.17920418 3.25 15.25 C1.37620395 15.17966231 -0.50001102 15.1656978 -2.375 15.1875 C-3.87933594 15.20103516 -3.87933594 15.20103516 -5.4140625 15.21484375 C-6.57035156 15.23224609 -6.57035156 15.23224609 -7.75 15.25 C-7.75 16.9 -7.75 18.55 -7.75 20.25 C-2.6675921 22.3244522 2.35491339 23.80526529 7.6875 25.125 C16.75870846 27.45129534 23.84357801 30.38611347 29.25 38.25 C31.95920121 42.89434493 31.9696885 48.03036448 31.25 53.25 C29.26301042 59.54367396 26.13959989 64.40121245 20.60546875 68.06640625 C9.29022247 73.75217677 -4.75184834 73.76255596 -16.75 70.25 C-23.42358539 67.4972906 -27.73533301 62.77302509 -30.75 56.25 C-31.45757034 53.15262256 -31.64846316 50.44841044 -31.75 47.25 C-24.78220597 45.92280114 -17.82011089 46.16174619 -10.75 46.25 C-10.49605469 46.80429687 -10.24210937 47.35859375 -9.98046875 47.9296875 C-9.63628906 48.65414062 -9.29210937 49.37859375 -8.9375 50.125 C-8.60105469 50.84429687 -8.26460938 51.56359375 -7.91796875 52.3046875 C-6.75532903 54.55542806 -6.75532903 54.55542806 -3.75 56.25 C-1.56813053 56.5657994 -1.56813053 56.5657994 0.75 56.5 C1.91015625 56.50773437 1.91015625 56.50773437 3.09375 56.515625 C5.54513844 56.37738062 5.54513844 56.37738062 8.25 54.25 C8.83345476 51.29253508 8.83345476 51.29253508 8.25 48.25 C4.80784917 44.67197479 0.21053407 44.0181459 -4.4375 42.875 C-13.99589315 40.35742582 -22.02310133 37.75357681 -27.75 29.25 C-30.22847036 24.18040153 -30.1246511 19.62115329 -28.75 14.25 C-26.32643747 8.18565967 -22.74755323 5.12901092 -17.03125 2.16015625 C-11.4705354 -0.05841653 -5.9061293 0.03494751 0 0 Z " fill="#000000" transform="translate(289.75,209.75)"/>
<path d="M0 0 C21.78 0 43.56 0 66 0 C66 5.94 66 11.88 66 18 C58.74 18 51.48 18 44 18 C44 35.16 44 52.32 44 70 C36.74 70 29.48 70 22 70 C22 52.84 22 35.68 22 18 C14.74 18 7.48 18 0 18 C0 12.06 0 6.12 0 0 Z " fill="#000000" transform="translate(323,211)"/>
</svg>
