<?xml version="1.0" encoding="UTF-8"?>
<svg version="1.1" xmlns="http://www.w3.org/2000/svg" width="256" height="256" viewBox="0 0 256 256">
<path d="M0 0 C1.04220703 -0.01611328 2.08441406 -0.03222656 3.15820312 -0.04882812 C16.11525997 -0.05686102 27.09736362 3.38269296 37.875 10.5 C43.32422481 16.20267713 46.46862512 23.31701518 46.6171875 31.22265625 C45.69337177 47.42959734 37.9176596 59.80487975 26.43359375 70.921875 C9.65085257 84.89607582 -13.25264511 90.84540347 -34.8203125 89.02734375 C-42.82404486 87.72973591 -48.48356025 84.7251725 -54.4375 79.3125 C-56.72763653 75.8772952 -56.61592973 74.327169 -56.4375 70.3125 C-53.95044535 71.46037138 -51.86989418 72.7161308 -49.625 74.3125 C-40.20707663 80.22178525 -27.87738601 79.46440549 -17.31542969 77.234375 C1.03861984 72.79575552 16.51563738 63.04250781 26.85546875 47.29296875 C30.18115171 41.48634153 31.31342893 36.95352773 30.5625 30.3125 C28.86927237 25.58928609 26.85777801 22.9075638 22.5625 20.3125 C4.55348661 12.5130574 -17.4896479 18.05067492 -34.98901367 24.60864258 C-49.93969979 30.58504425 -63.97558418 39.16050316 -76.4375 49.3125 C-77.18257812 49.89386719 -77.92765625 50.47523437 -78.6953125 51.07421875 C-86.80497866 57.68837613 -93.47935878 66.56124516 -94.78515625 77.125 C-95.22422183 85.95134388 -93.03979057 92.02924712 -87.37109375 98.76953125 C-81.68931959 104.71339714 -75.30333537 109.68948878 -68.80078125 114.68359375 C-64.48947788 118.01322397 -60.43855695 121.61840244 -56.4375 125.3125 C-51.14133432 123.25216094 -46.12483638 120.76085432 -41.0625 118.1875 C-40.14210938 117.73890625 -39.22171875 117.2903125 -38.2734375 116.828125 C-32.66694267 113.96080336 -28.83322677 111.01886021 -24.89013672 106.10546875 C-23.19811242 104.01702734 -21.36817344 102.43958887 -19.1875 100.875 C-18.54296875 100.40191406 -17.8984375 99.92882812 -17.234375 99.44140625 C-13.33583058 96.99210334 -8.92182956 96.58949869 -4.4375 97.3125 C-2.26171875 98.44140625 -2.26171875 98.44140625 -0.4375 100.3125 C0.390625 103.23046875 0.390625 103.23046875 0.8125 106.5 C0.96203125 107.58667969 1.1115625 108.67335938 1.265625 109.79296875 C1.36359375 110.62441406 1.4615625 111.45585937 1.5625 112.3125 C3.8725 112.6425 6.1825 112.9725 8.5625 113.3125 C8.90394646 119.51828945 7.62107133 124.88924363 6.0625 130.875 C5.58724059 132.70795995 5.11830368 134.54257293 4.65625 136.37890625 C4.44677734 137.18271729 4.23730469 137.98652832 4.02148438 138.81469727 C3.49362787 141.68730359 3.48848371 144.39810843 3.5625 147.3125 C10.03224835 133.62191405 16.43852643 119.92361897 22.25 105.9375 C22.65911621 104.95330078 23.06823242 103.96910156 23.48974609 102.95507812 C25.01835209 99.23540512 26.48094709 95.56920951 27.69921875 91.734375 C28.5625 89.3125 28.5625 89.3125 30.6875 87.9375 C34.49600156 87.10956488 37.65736207 87.06055562 41.5625 87.3125 C42.5525 87.9725 43.5425 88.6325 44.5625 89.3125 C43.67642405 96.90743671 43.67642405 96.90743671 43 99.3125 C41.84236489 104.6045462 42.31165306 109.04758623 44.078125 114.08203125 C44.49239746 115.27662964 44.49239746 115.27662964 44.91503906 116.49536133 C45.12870117 117.09501709 45.34236328 117.69467285 45.5625 118.3125 C47.50635249 114.96197733 49.44141367 111.60645609 51.375 108.25 C51.92220703 107.30705078 52.46941406 106.36410156 53.03320312 105.39257812 C57.20244993 98.1406155 60.41018285 91.15355718 62.81640625 83.1328125 C63.5625 81.3125 63.5625 81.3125 65.5625 80.3125 C67.7697923 80.24157158 69.97917452 80.22834975 72.1875 80.25 C73.37601563 80.25902344 74.56453125 80.26804687 75.7890625 80.27734375 C76.70429688 80.28894531 77.61953125 80.30054687 78.5625 80.3125 C79.47081952 83.26612642 79.60590763 84.17648944 78.625 87.25 C76.24716944 94.94492389 76.44952477 102.91951966 80.0625 110.125 C80.87002307 111.53592226 81.69393811 112.93831101 82.5625 114.3125 C83.3875 114.02375 84.2125 113.735 85.0625 113.4375 C98.67937615 109.06064695 111.97594941 108.24043621 125.1796875 114.56640625 C132.7771841 118.70332205 137.77966892 124.0513602 140.5625 132.3125 C141.49206613 138.85860253 141.05240769 144.21589705 137.12890625 149.6484375 C134.51817688 152.42193054 132.07558093 153.81618775 128.5625 155.3125 C127.5725 154.9825 126.5825 154.6525 125.5625 154.3125 C125.97242188 153.84199219 126.38234375 153.37148437 126.8046875 152.88671875 C127.34351563 152.26410156 127.88234375 151.64148438 128.4375 151 C129.23800781 150.07767578 129.23800781 150.07767578 130.0546875 149.13671875 C132.96475178 145.61599332 134.14600952 143.2067039 133.9921875 138.56640625 C132.95296518 133.1152128 129.76974181 128.87501482 125.2890625 125.703125 C113.41484697 119.33524916 100.41129358 118.92733708 87.5625 122.3125 C86.5725 122.8075 86.5725 122.8075 85.5625 123.3125 C85.8925 124.3025 86.2225 125.2925 86.5625 126.3125 C87.10031878 132.32159059 87.03100491 137.16954445 83.5625 142.3125 C77.79298597 148.86167808 71.17806939 152.83349392 62.5625 154.3125 C59.5 153.625 59.5 153.625 57.5625 152.3125 C55.89764499 148.98278998 55.97527859 145.89793844 56.5625 142.3125 C59.4062239 134.64460162 63.30067067 128.57391872 69.5625 123.3125 C69.28986328 122.49458984 69.28986328 122.49458984 69.01171875 121.66015625 C67.1953125 116.2109375 65.37890625 110.76171875 63.5625 105.3125 C63.27528076 105.83682617 62.98806152 106.36115234 62.69213867 106.90136719 C61.38125837 109.29016458 60.06568008 111.67634308 58.75 114.0625 C58.07227539 115.3 58.07227539 115.3 57.38085938 116.5625 C56.93935547 117.36171875 56.49785156 118.1609375 56.04296875 118.984375 C55.43811646 120.08410645 55.43811646 120.08410645 54.82104492 121.20605469 C53.5625 123.3125 53.5625 123.3125 51.8984375 125.43725586 C50.31281286 127.24665714 50.31281286 127.24665714 50.70703125 129.64453125 C50.92746094 130.46308594 51.14789063 131.28164062 51.375 132.125 C52.97461738 138.99631238 53.35400706 144.09800126 49.890625 150.390625 C45.49907341 156.74545848 39.41982568 159.94248506 32.125 162 C22.7996134 163.13724227 22.7996134 163.13724227 18.5625 160.3125 C18.0546875 157.5859375 18.0546875 157.5859375 18.5625 154.3125 C20.20514924 151.95667209 21.75350513 150.01750961 23.6875 147.9375 C24.69641669 146.79394198 25.70423485 145.64941382 26.7109375 144.50390625 C27.20045898 143.95621582 27.68998047 143.40852539 28.19433594 142.84423828 C33.52627899 137.37902016 33.52627899 137.37902016 35.6875 130.4375 C34.37734607 126.79818353 32.95333129 123.22322486 31.40234375 119.6796875 C30.5625 117.3125 30.5625 117.3125 30.5625 113.3125 C29.9025 113.3125 29.2425 113.3125 28.5625 113.3125 C28.18480469 114.54484375 27.80710938 115.7771875 27.41796875 117.046875 C25.390399 123.11653377 22.66042339 128.80975867 19.875 134.5625 C19.34189209 135.66625977 18.80878418 136.77001953 18.25952148 137.90722656 C6.25289677 162.46730162 6.25289677 162.46730162 -1.4375 166.3125 C-4.80466797 166.3125 -5.93229674 165.62499532 -8.4375 163.3125 C-9.77323045 159.71344851 -10.65350704 156.06674273 -11.4375 152.3125 C-11.89640625 153.21613281 -12.3553125 154.11976563 -12.828125 155.05078125 C-13.44741623 156.2424477 -14.06723585 157.43383966 -14.6875 158.625 C-15.29078125 159.79675781 -15.8940625 160.96851563 -16.515625 162.17578125 C-18.32362367 165.12664087 -19.47452452 166.62103762 -22.4375 168.3125 C-25.74759993 169.08091606 -28.30701701 169.60319563 -31.625 168.75 C-36.70698469 164.71946042 -39.21807532 158.52449676 -40.4375 152.3125 C-41.19562352 143.06134411 -40.32956212 135.10918894 -37.4375 126.3125 C-41.3975 128.6225 -45.3575 130.9325 -49.4375 133.3125 C-49.1075 134.900625 -48.7775 136.48875 -48.4375 138.125 C-46.01412079 151.87504293 -47.97170066 164.14891902 -55.6875 176.03125 C-62.21238983 184.53690996 -70.40978957 188.96992986 -80.4375 192.3125 C-83.05614161 192.4609944 -85.6307477 192.5435027 -88.25 192.5625 C-89.29897461 192.5934375 -89.29897461 192.5934375 -90.36914062 192.625 C-95.16398492 192.66088284 -98.3913266 191.88188014 -102.4375 189.3125 C-107.67346282 182.51989958 -108.16689001 176.66922551 -107.4375 168.3125 C-105.63949211 161.35875864 -101.42581648 156.31112291 -96.4375 151.3125 C-95.59445313 150.45205078 -95.59445313 150.45205078 -94.734375 149.57421875 C-86.96255212 142.22477754 -77.00269692 136.96265727 -67.4375 132.3125 C-70.65653765 128.85501512 -74.26367822 126.18308897 -78.125 123.5 C-112.54286934 99.20738757 -112.54286934 99.20738757 -116.02734375 81.27734375 C-116.93172367 68.47322808 -109.44288103 56.78827433 -101.34765625 47.3984375 C-100.71730469 46.71007812 -100.08695313 46.02171875 -99.4375 45.3125 C-98.66212891 44.43464844 -98.66212891 44.43464844 -97.87109375 43.5390625 C-74.18889337 18.25430721 -34.62292772 -0.10666336 0 0 Z M-15.4375 112.1875 C-25.09801069 123.7983402 -27.21107431 135.59659798 -26.4375 150.3125 C-26.1075 150.9725 -25.7775 151.6325 -25.4375 152.3125 C-23.51016239 152.20826557 -23.51016239 152.20826557 -21.4375 151.3125 C-16.72295992 144.12412159 -14.11111145 135.02936662 -11.125 127 C-10.6005127 125.60454956 -10.6005127 125.60454956 -10.06542969 124.1809082 C-8.12757731 118.84035889 -6.8959038 113.97943396 -6.4375 108.3125 C-10.99330453 107.82211826 -12.48942489 108.75204151 -15.4375 112.1875 Z M73.5625 129.3125 C69.28642407 133.78611205 66.81612241 138.29511245 65.5625 144.3125 C68.48411999 143.98787556 69.85578947 143.09423807 72.25 141.3125 C75.27978763 137.3819647 75.4462815 134.16198108 75.5625 129.3125 C74.9025 129.3125 74.2425 129.3125 73.5625 129.3125 Z M-83.6328125 154.31640625 C-88.66483749 159.88213086 -91.4375 165.78710619 -91.4375 173.3125 C-90.71064412 175.94874641 -90.71064412 175.94874641 -88.4375 177.3125 C-81.94469451 178.47192955 -77.63652453 176.44952562 -72.0546875 173.140625 C-65.01372805 168.22246228 -60.38430296 161.72128148 -58.4375 153.3125 C-57.63663875 145.61861018 -57.63663875 145.61861018 -59.4375 138.3125 C-66.7184183 138.3125 -78.53519292 149.53618562 -83.6328125 154.31640625 Z M39.5625 141.3125 C38.01312639 142.95266866 36.49766821 144.62498652 35 146.3125 C34.17371094 147.240625 33.34742188 148.16875 32.49609375 149.125 C31.85800781 149.846875 31.21992188 150.56875 30.5625 151.3125 C34.58097141 151.3125 35.71813523 150.08393234 38.5625 147.3125 C39.91022903 144.19116256 39.91022903 144.19116256 40.5625 141.3125 C40.2325 141.3125 39.9025 141.3125 39.5625 141.3125 Z " fill="#000000" transform="translate(115.4375,31.6875)"/>
</svg>
