<?xml version="1.0" encoding="UTF-8"?>
<svg version="1.1" xmlns="http://www.w3.org/2000/svg" width="512" height="512" viewBox="0 0 512 512">
<path d="M0 0 C1.25683594 0.33902344 2.51367188 0.67804688 3.80859375 1.02734375 C35.50902871 10.45361065 61.95911835 33.23615018 77.94604492 61.8359375 C94.55141331 92.57809864 98.31044142 127.86814289 88.484375 161.453125 C82.19677352 181.47462021 71.35977076 198.79844958 57 214 C56.31421875 214.75023437 55.6284375 215.50046875 54.921875 216.2734375 C32.41966981 240.0257652 -0.85546875 252.05895501 -33.078125 252.99609375 C-67.90009896 253.3776094 -99.81230614 239.79293557 -125 216 C-125.75023437 215.31421875 -126.50046875 214.6284375 -127.2734375 213.921875 C-143.56392439 198.48878216 -154.12141646 177.43390999 -160 156 C-160.33902344 154.82566406 -160.67804688 153.65132812 -161.02734375 152.44140625 C-165.75928189 132.53237621 -164.79078675 108.54571643 -159 89 C-158.66097656 87.74316406 -158.32195312 86.48632812 -157.97265625 85.19140625 C-151.97340424 65.01598579 -140.28685 48.19310541 -126 33 C-125.4740625 32.40960938 -124.948125 31.81921875 -124.40625 31.2109375 C-109.42341325 15.08145508 -87.93549045 4.74188422 -67 -1 C-65.82566406 -1.33902344 -64.65132813 -1.67804688 -63.44140625 -2.02734375 C-43.53237621 -6.75928189 -19.54571643 -5.79078675 0 0 Z " fill="#221E1F" transform="translate(291,132)"/>
<path d="M0 0 C0.72104416 -0.0033284 1.44208832 -0.0066568 2.1849823 -0.01008606 C3.70184701 -0.01511819 5.21872265 -0.01749554 6.7355957 -0.01733398 C9.02639494 -0.01951547 11.31670784 -0.0376969 13.60742188 -0.05664062 C26.76131116 -0.10777855 38.50221136 0.52883357 48.48046875 9.91796875 C56.13247873 17.96084761 57.70899352 26.36834822 57.50390625 37.14453125 C57.09046628 45.99050915 52.46043614 52.17358836 46.23046875 58.16796875 C38.86816714 64.47394013 31.95139601 65.48258642 22.4609375 65.50390625 C20.90757439 65.51389145 20.90757439 65.51389145 19.3228302 65.52407837 C17.13670623 65.53418003 14.95055158 65.53889616 12.7644043 65.53857422 C9.43941787 65.54294058 6.11576692 65.57926913 2.79101562 65.6171875 C0.66016076 65.62305771 -1.47070037 65.62702573 -3.6015625 65.62890625 C-4.58623001 65.64327728 -5.57089752 65.65764832 -6.58540344 65.67245483 C-16.14778393 65.6099225 -23.02326582 62.5133417 -29.98046875 56.02734375 C-37.13972991 48.58671425 -39.18803072 41.47783862 -39.13305664 31.21289062 C-38.87710025 21.30225927 -34.78561004 14.91873364 -27.76953125 8.16796875 C-19.57686285 1.15077017 -10.5693524 0.01739377 0 0 Z " fill="#231F20" transform="translate(38.76953125,222.83203125)"/>
<path d="M0 0 C5.90008257 4.61151068 11.14456001 9.97956275 16.43115234 15.26757812 C18.26113783 17.09317047 20.10656914 18.90212648 21.953125 20.7109375 C23.13509262 21.88703873 24.31611516 23.06409069 25.49609375 24.2421875 C26.04094421 24.77266693 26.58579468 25.30314636 27.14715576 25.84970093 C33.81360393 32.59588756 37.33164259 40.89586441 37.58203125 50.3828125 C37.16208814 59.15221281 33.77726434 67.45320441 27.51171875 73.71875 C19.79005755 79.62093931 12.3342514 82.82880639 2.51171875 82.71875 C-10.55117151 80.74450966 -18.246655 73.53480961 -27.48828125 64.71875 C-28.08866211 64.14705078 -28.68904297 63.57535156 -29.30761719 62.98632812 C-50.12373851 43.03344753 -50.12373851 43.03344753 -50.86328125 27.71875 C-50.4073283 18.27672426 -46.49862035 9.38284616 -39.56640625 2.9296875 C-28.10350815 -6.08956953 -12.53116261 -8.81133697 0 0 Z " fill="#221F20" transform="translate(115.48828125,70.28125)"/>
<path d="M0 0 C3.92401108 3.50202662 7.61993308 7.22452713 11.28326416 10.99615479 C13.2161358 12.98420229 15.17236042 14.94677542 17.13336182 16.90704346 C18.3886976 18.17711647 19.64265424 19.44855444 20.89508057 20.72149658 C21.75915527 21.59057899 21.75915527 21.59057899 22.64068604 22.47721863 C29.62461845 29.70797051 32.61479673 37.01728065 33.52008057 46.97540283 C32.69651224 56.36408173 29.26664005 64.82845315 22.28570557 71.32696533 C13.97057821 77.86948802 5.25784371 80.23189103 -5.28460693 79.32305908 C-15.47165273 77.47247118 -22.56040041 70.48233541 -29.79241943 63.53790283 C-30.42341553 62.93413818 -31.05441162 62.33037354 -31.70452881 61.70831299 C-33.82905823 59.66337833 -35.93778809 57.603301 -38.04241943 55.53790283 C-38.71595459 54.88587891 -39.38948975 54.23385498 -40.08343506 53.56207275 C-47.93369649 45.76325344 -53.59448262 37.77372396 -54.79241943 26.53790283 C-54.42510988 16.92107092 -51.88455358 8.25226399 -45.39007568 0.98321533 C-32.03706753 -11.09652309 -13.90283782 -11.34070488 0 0 Z " fill="#221F20" transform="translate(413.79241943359375,367.46209716796875)"/>
<path d="M0 0 C7.47323618 7.03155556 10.94135061 15.69580319 11.34765625 25.8046875 C10.79011892 39.76542225 1.3908597 49.200531 -7.98852539 58.39575195 C-9.93805607 60.31304687 -11.85333334 62.26043443 -13.76757812 64.21289062 C-22.64203648 73.1176309 -30.89623071 79.58669846 -43.875 80.625 C-54.58557414 79.93399522 -62.6773716 76.09889287 -70.140625 68.4375 C-75.3865958 61.71450829 -77.29846015 52.73901725 -76.75 44.375 C-74.64433162 34.22799963 -69.6805475 26.83398774 -62.41796875 19.609375 C-61.82252762 19.00869202 -61.22708649 18.40800903 -60.61360168 17.78912354 C-59.36261961 16.53176689 -58.10781948 15.27819823 -56.84936523 14.02832031 C-54.94040732 12.12789433 -53.05090425 10.20950493 -51.16210938 8.2890625 C-49.93602756 7.06136872 -48.70884976 5.8347683 -47.48046875 4.609375 C-46.92497849 4.04265076 -46.36948822 3.47592651 -45.79716492 2.89202881 C-33.15883452 -9.52829644 -14.22167339 -11.03351804 0 0 Z " fill="#221F20" transform="translate(141.75,366.625)"/>
<path d="M0 0 C6.48275416 5.51406676 10.97725552 13.2399192 12.0390625 21.734375 C12.74419039 30.54847365 10.54375959 38.37099186 5.13085938 45.29174805 C0.8635542 50.27475321 -3.7227767 54.94652591 -8.3449707 59.59887695 C-10.14129157 61.41465168 -11.91509626 63.25068121 -13.68945312 65.08789062 C-22.34298192 73.9021961 -30.48298231 80.21330115 -43.33984375 80.796875 C-52.43901147 80.57990528 -59.98760537 77.18587999 -66.78515625 71.1015625 C-73.02996762 64.33766101 -76.29712277 55.94585149 -75.9609375 46.734375 C-74.33181776 35.59004265 -69.54781792 27.85535228 -61.69921875 20.00390625 C-61.10852097 19.40559494 -60.51782318 18.80728363 -59.90922546 18.19084167 C-58.66671958 16.93761068 -57.42030897 15.68823981 -56.17016602 14.44262695 C-54.28135265 12.55478608 -52.4149023 10.64661625 -50.54882812 8.73632812 C-35.79195308 -6.16932696 -18.83631899 -13.44500508 0 0 Z " fill="#221F20" transform="translate(434.9609375,72.265625)"/>
<path d="M0 0 C8.73564118 5.23212431 14.52339769 12.48831392 17.2109375 22.32421875 C17.54212247 25.80451476 17.58623023 29.27506453 17.6171875 32.76953125 C17.62858765 33.77579559 17.63998779 34.78205994 17.6517334 35.81881714 C17.67058107 37.94524975 17.68368054 40.07174009 17.69140625 42.19824219 C17.71075224 45.41838248 17.7728093 48.63593051 17.8359375 51.85546875 C17.97513015 65.41055455 17.01657411 74.54879405 8.0859375 85.26171875 C0.20413917 92.28305874 -8.98942481 94.12526518 -19.30078125 93.74609375 C-24.10336546 93.1652661 -27.69884126 91.85665716 -31.7890625 89.32421875 C-32.41167969 88.97359375 -33.03429687 88.62296875 -33.67578125 88.26171875 C-40.54458018 83.97058189 -44.71141225 77.03376221 -46.7890625 69.32421875 C-47.10842793 65.84317536 -47.14062616 62.3730878 -47.16015625 58.87890625 C-47.16918472 57.87264191 -47.1782132 56.86637756 -47.18751526 55.82962036 C-47.2019906 53.70317545 -47.21089773 51.57668627 -47.21459961 49.45019531 C-47.226448 46.23033498 -47.27562132 43.0124225 -47.32617188 39.79296875 C-47.43042407 26.67471611 -47.16427622 16.21406165 -38.1640625 5.88671875 C-27.56931024 -3.56372135 -13.06745233 -6.18641846 0 0 Z " fill="#221F20" transform="translate(270.7890625,418.67578125)"/>
<path d="M0 0 C1.52006905 -0.0099852 1.52006905 -0.0099852 3.07084656 -0.02017212 C5.20989169 -0.03027258 7.34896816 -0.03498995 9.48803711 -0.03466797 C12.74060689 -0.03903416 15.9918112 -0.07536326 19.24414062 -0.11328125 C21.32942248 -0.11915153 23.41471073 -0.12311951 25.5 -0.125 C26.46279373 -0.13937103 27.42558746 -0.15374207 28.41755676 -0.16854858 C37.45976109 -0.10813241 45.80861901 3.04484301 52.44921875 9.3359375 C59.9563292 18.67658183 61.58030107 27.46552622 60.44921875 39.3359375 C58.15124088 48.53853725 53.38798409 55.63902913 45.296875 60.67578125 C40.57267002 63.14785127 36.31535068 64.43965678 30.96289062 64.52880859 C30.08097046 64.54487152 29.19905029 64.56093445 28.29040527 64.57748413 C24.24472138 64.62240083 20.19919619 64.66304016 16.15332031 64.68603516 C14.03146342 64.70252627 11.90966048 64.7297247 9.78808594 64.76806641 C-15.94759507 65.23007129 -15.94759507 65.23007129 -26.98828125 55.7734375 C-34.01478044 47.92546867 -36.39976407 39.05636907 -35.96484375 28.6640625 C-34.87180409 19.87849848 -31.06898897 13.27239848 -24.55078125 7.3359375 C-16.76988997 1.42125612 -9.61559087 0.02208861 0 0 Z " fill="#221F20" transform="translate(451.55078125,223.6640625)"/>
<path d="M0 0 C7.50286323 4.55019459 12.74040556 10.9865085 15.19032288 19.44335938 C15.68828322 21.74318543 15.82162512 23.83962211 15.86889648 26.19140625 C15.8881871 27.09334717 15.90747772 27.99528809 15.92735291 28.92456055 C15.98563331 33.06180324 16.03441966 37.19888046 16.06518555 41.33642578 C16.08669237 43.50683576 16.12070724 45.67716074 16.16772461 47.84716797 C16.48229671 62.51899008 16.26008361 72.87990348 6.53515625 84.55078125 C-1.34370583 91.56950555 -10.5455237 93.42711713 -20.85546875 93.02734375 C-30.19327902 91.91769365 -36.85753423 86.8464345 -42.87890625 79.81640625 C-48.02804001 73.01111835 -48.66441199 66.49197201 -48.7109375 58.16796875 C-48.71996597 57.16170441 -48.72899445 56.15544006 -48.73829651 55.11868286 C-48.75277185 52.99223795 -48.76167898 50.86574877 -48.76538086 48.73925781 C-48.77722925 45.51939748 -48.82640257 42.301485 -48.87695312 39.08203125 C-48.98120532 25.96377861 -48.71505747 15.50312415 -39.71484375 5.17578125 C-28.34420111 -4.96674729 -13.7350008 -6.56248356 0 0 Z " fill="#221F20" transform="translate(272.33984375,3.38671875)"/>
</svg>
