<?xml version="1.0" encoding="UTF-8"?>
<svg version="1.1" xmlns="http://www.w3.org/2000/svg" width="256" height="256" viewBox="0 0 256 256">
<path d="M0 0 C6.04787888 4.84685739 11.4573327 10.41099563 16.875 15.9375 C23.78837098 22.86773286 30.75664975 26.55441479 40.73046875 27.16796875 C50.505433 26.78712599 58.87383423 22.45265666 65.75 15.625 C66.84964047 14.43148779 67.93975247 13.22863979 69 12 C70.84252747 17.52758241 67.38669973 22.94381622 65 28 C57.31620329 40.78452985 47.65372536 48.40762743 33.3515625 52.81640625 C16.7133745 56.47680761 -1.54245147 54.56886978 -16.30859375 45.8984375 C-23.11160236 41.09979863 -28.9454026 35.12402007 -34.75 29.1875 C-42.45363083 21.42804575 -49.84078524 17.00295859 -60.9375 16.5625 C-72.2153044 16.93413867 -79.33901078 21.98304562 -87 30 C-87.33 30.66 -87.66 31.32 -88 32 C-88.66 31.67 -89.32 31.34 -90 31 C-84.2665261 13.69098977 -76.85760521 1.70984896 -60.2578125 -6.703125 C-40.99851762 -14.36989466 -16.9916328 -11.41468602 0 0 Z " fill="#000000" transform="translate(111,138)"/>
<path d="M0 0 C6.99955821 5.15456597 13.08963432 11.25642882 19.125 17.4921875 C26.06025329 24.4992343 33.35478373 28.1005068 43.3125 28.4296875 C52.2187792 28.22312987 58.96402978 24.61694815 65.875 19.1171875 C67.67112379 17.19463752 69.24743399 15.18863515 70.875 13.1171875 C71.535 13.1171875 72.195 13.1171875 72.875 13.1171875 C69.03673495 27.78372874 62.507069 39.63048248 49.85546875 48.390625 C35.90473394 56.4721778 16.64096883 57.51965676 1.125 53.9296875 C-11.401856 50.05318192 -20.55802261 42.85120863 -29.625 33.5546875 C-38.17477103 24.88466653 -46.31880956 19.0607079 -58.625 17.7421875 C-67.32163292 18.6739696 -73.5265363 21.44386922 -80.125 27.1171875 C-80.80175781 27.68566406 -81.47851562 28.25414062 -82.17578125 28.83984375 C-83.83906475 30.2498015 -85.4840216 31.6813314 -87.125 33.1171875 C-84.8160034 19.26320789 -77.8701806 8.48887055 -67.16015625 -0.5390625 C-48.39295701 -13.55310341 -18.75524963 -11.87492708 0 0 Z " fill="#000000" transform="translate(162.125,72.8828125)"/>
<path d="" fill="#000000" transform="translate(0,0)"/>
</svg>
